<svg width="23" height="22" viewBox="0 0 23 22" fill="none" xmlns="http://www.w3.org/2000/svg">
<path fill-rule="evenodd" clip-rule="evenodd" d="M11.8842 0C8.89103 0 8.51539 0.0130625 7.33979 0.0664583C6.16649 0.120083 5.36561 0.305479 4.66485 0.5775C3.93997 0.858458 3.32508 1.23429 2.71248 1.84594C2.09942 2.45735 1.72286 3.07106 1.44045 3.79431C1.16721 4.49396 0.981228 5.29352 0.928418 6.4641C0.875837 7.63744 0.862061 8.01258 0.862061 11C0.862061 13.9874 0.875378 14.3612 0.928647 15.5345C0.982605 16.7056 1.16836 17.5049 1.44068 18.2043C1.72241 18.9278 2.09896 19.5415 2.71179 20.1529C3.32416 20.7648 3.93905 21.1415 4.66347 21.4225C5.36469 21.6945 6.1658 21.8799 7.33887 21.9335C8.51447 21.9869 8.88988 22 11.8828 22C14.8762 22 15.2507 21.9869 16.4263 21.9335C17.5996 21.8799 18.4014 21.6945 19.1027 21.4225C19.8273 21.1415 20.4413 20.7648 21.0537 20.1529C21.6667 19.5415 22.0433 18.9278 22.3257 18.2045C22.5966 17.5049 22.7826 16.7053 22.8377 15.5347C22.8905 14.3614 22.9043 13.9874 22.9043 11C22.9043 8.01258 22.8905 7.63767 22.8377 6.46433C22.7826 5.29329 22.5966 4.49396 22.3257 3.79454C22.0433 3.07106 21.6667 2.45735 21.0537 1.84594C20.4406 1.23406 19.8275 0.858229 19.102 0.5775C18.3994 0.305479 17.598 0.120083 16.4247 0.0664583C15.2491 0.0130625 14.8749 0 11.8808 0H11.8842ZM10.8955 1.98223C11.189 1.98177 11.5164 1.98223 11.8842 1.98223C14.8269 1.98223 15.1757 1.99277 16.3377 2.04548C17.4123 2.09452 17.9955 2.27373 18.384 2.42429C18.8983 2.62367 19.265 2.862 19.6505 3.247C20.0363 3.632 20.2751 3.99867 20.4753 4.512C20.6261 4.89929 20.8059 5.48138 20.8548 6.55388C20.9076 7.71346 20.9191 8.06179 20.9191 10.9974C20.9191 13.933 20.9076 14.2814 20.8548 15.441C20.8057 16.5135 20.6261 17.0955 20.4753 17.4828C20.2755 17.9962 20.0363 18.3617 19.6505 18.7465C19.2648 19.1315 18.8986 19.3698 18.384 19.5692C17.996 19.7204 17.4123 19.8992 16.3377 19.9482C15.1759 20.0009 14.8269 20.0124 11.8842 20.0124C8.94134 20.0124 8.59256 20.0009 7.43074 19.9482C6.35617 19.8987 5.77296 19.7195 5.38423 19.5689C4.86991 19.3696 4.50254 19.1312 4.11679 18.7462C3.73105 18.3612 3.49226 17.9955 3.29204 17.4819C3.14118 17.0946 2.9614 16.5125 2.91249 15.44C2.85968 14.2805 2.84912 13.9321 2.84912 10.9947C2.84912 8.05721 2.85968 7.71071 2.91249 6.55113C2.96163 5.47863 3.14118 4.89654 3.29204 4.50879C3.4918 3.99546 3.73105 3.62879 4.11679 3.24379C4.50254 2.85879 4.86991 2.62046 5.38423 2.42063C5.77273 2.26938 6.35617 2.09063 7.43074 2.04136C8.44745 1.99552 8.84146 1.98177 10.8955 1.97948V1.98223Z" fill="white"/>
<path fill-rule="evenodd" clip-rule="evenodd" d="M17.7672 3.80869C17.0371 3.80869 16.4447 4.39925 16.4447 5.12823C16.4447 5.85698 17.0371 6.44823 17.7672 6.44823C18.4974 6.44823 19.0898 5.85698 19.0898 5.12823C19.0898 4.39948 18.4974 3.80823 17.7672 3.80823V3.80869ZM11.8842 5.35113C8.75856 5.35113 6.22437 7.88045 6.22437 11.0001C6.22437 14.1197 8.75856 16.6479 11.8842 16.6479C15.0099 16.6479 17.5432 14.1197 17.5432 11.0001C17.5432 7.88045 15.0097 5.35113 11.884 5.35113H11.8842ZM11.8842 7.33342C13.913 7.33342 15.5579 8.97494 15.5579 11.0001C15.5579 13.025 13.913 14.6667 11.8842 14.6667C9.85513 14.6667 8.21044 13.025 8.21044 11.0001C8.21044 8.97494 9.85513 7.33342 11.8842 7.33342Z" fill="white"/>
</svg>
