<svg width="23" height="22" viewBox="0 0 23 22" fill="none" xmlns="http://www.w3.org/2000/svg">
<path fill-rule="evenodd" clip-rule="evenodd" d="M11.0222 0C8.02897 0 7.65333 0.0130625 6.47773 0.0664583C5.30443 0.120083 4.50355 0.305479 3.80279 0.5775C3.07791 0.858458 2.46302 1.23429 1.85042 1.84594C1.23736 2.45735 0.860804 3.07106 0.578385 3.79431C0.30515 4.49396 0.119167 5.29352 0.066357 6.4641C0.0137765 7.63744 0 8.01258 0 11C0 13.9874 0.0133173 14.3612 0.0665866 15.5345C0.120545 16.7056 0.306298 17.5049 0.578615 18.2043C0.860345 18.9278 1.2369 19.5415 1.84973 20.1529C2.4621 20.7648 3.07699 21.1415 3.80141 21.4225C4.50263 21.6945 5.30374 21.8799 6.47681 21.9335C7.65241 21.9869 8.02782 22 11.0208 22C14.0142 22 14.3887 21.9869 15.5643 21.9335C16.7376 21.8799 17.5394 21.6945 18.2406 21.4225C18.9653 21.1415 19.5792 20.7648 20.1916 20.1529C20.8046 19.5415 21.1812 18.9278 21.4636 18.2045C21.7346 17.5049 21.9205 16.7053 21.9757 15.5347C22.0285 14.3614 22.0422 13.9874 22.0422 11C22.0422 8.01258 22.0285 7.63767 21.9757 6.46433C21.9205 5.29329 21.7346 4.49396 21.4636 3.79454C21.1812 3.07106 20.8046 2.45735 20.1916 1.84594C19.5785 1.23406 18.9655 0.858229 18.2399 0.5775C17.5373 0.305479 16.736 0.120083 15.5627 0.0664583C14.3871 0.0130625 14.0128 0 11.0187 0H11.0222ZM10.0335 1.98223C10.3269 1.98177 10.6543 1.98223 11.0222 1.98223C13.9648 1.98223 14.3136 1.99277 15.4757 2.04548C16.5502 2.09452 17.1335 2.27373 17.522 2.42429C18.0363 2.62367 18.403 2.862 18.7885 3.247C19.1742 3.632 19.413 3.99867 19.6132 4.512C19.7641 4.89929 19.9439 5.48138 19.9928 6.55388C20.0456 7.71346 20.0571 8.06179 20.0571 10.9974C20.0571 13.933 20.0456 14.2814 19.9928 15.441C19.9436 16.5135 19.7641 17.0955 19.6132 17.4828C19.4135 17.9962 19.1742 18.3617 18.7885 18.7465C18.4027 19.1315 18.0365 19.3698 17.522 19.5692C17.1339 19.7204 16.5502 19.8992 15.4757 19.9482C14.3139 20.0009 13.9648 20.0124 11.0222 20.0124C8.07928 20.0124 7.7305 20.0009 6.56868 19.9482C5.49411 19.8987 4.9109 19.7195 4.52217 19.5689C4.00785 19.3696 3.64048 19.1312 3.25473 18.7462C2.86899 18.3612 2.6302 17.9955 2.42998 17.4819C2.27912 17.0946 2.09934 16.5125 2.05043 15.44C1.99762 14.2805 1.98706 13.9321 1.98706 10.9947C1.98706 8.05721 1.99762 7.71071 2.05043 6.55113C2.09957 5.47863 2.27912 4.89654 2.42998 4.50879C2.62974 3.99546 2.86899 3.62879 3.25473 3.24379C3.64048 2.85879 4.00785 2.62046 4.52217 2.42063C4.91067 2.26938 5.49411 2.09063 6.56868 2.04136C7.58539 1.99552 7.9794 1.98177 10.0335 1.97948V1.98223Z" fill="black"/>
<path fill-rule="evenodd" clip-rule="evenodd" d="M16.9052 3.80856C16.175 3.80856 15.5826 4.39913 15.5826 5.12811C15.5826 5.85686 16.175 6.44811 16.9052 6.44811C17.6353 6.44811 18.2277 5.85686 18.2277 5.12811C18.2277 4.39936 17.6353 3.80811 16.9052 3.80811V3.80856ZM11.0222 5.35101C7.8965 5.35101 5.3623 7.88032 5.3623 11C5.3623 14.1196 7.8965 16.6478 11.0222 16.6478C14.1478 16.6478 16.6811 14.1196 16.6811 11C16.6811 7.88032 14.1476 5.35101 11.0219 5.35101H11.0222ZM11.0221 7.33329C13.051 7.33329 14.6959 8.97482 14.6959 11C14.6959 13.0249 13.051 14.6666 11.0221 14.6666C8.99307 14.6666 7.34838 13.0249 7.34838 11C7.34838 8.97482 8.99307 7.33329 11.0221 7.33329Z" fill="black"/>
</svg>
