<svg width="18" height="18" viewBox="0 0 18 18" fill="none" xmlns="http://www.w3.org/2000/svg">
<g clip-path="url(#clip0)">
<path d="M9.13577 16.8069C9.38705 16.8069 9.62932 16.7158 9.81812 16.5505C10.5312 15.927 11.2186 15.341 11.8252 14.8242L11.8283 14.8215C13.6065 13.3061 15.1421 11.9974 16.2105 10.7083C17.4049 9.26709 17.9612 7.90064 17.9612 6.40788C17.9612 4.95753 17.4639 3.61949 16.5609 2.64007C15.6472 1.64907 14.3935 1.10327 13.0303 1.10327C12.0114 1.10327 11.0783 1.42539 10.257 2.06061C9.84249 2.38125 9.46677 2.77366 9.13577 3.23139C8.80463 2.77366 8.42905 2.38125 8.01441 2.06061C7.19309 1.42539 6.25999 1.10327 5.24112 1.10327C3.87804 1.10327 2.62417 1.64907 1.71047 2.64007C0.807537 3.61949 0.310354 4.95753 0.310354 6.40788C0.310354 7.90064 0.866522 9.26709 2.06087 10.7081C3.1293 11.9974 4.66475 13.306 6.44273 14.8212C7.05034 15.3389 7.73889 15.9258 8.45355 16.5507C8.64222 16.7158 8.88462 16.8069 9.13577 16.8069ZM13.0303 2.13723C14.1013 2.13723 15.0851 2.56466 15.8009 3.34087C16.5273 4.1288 16.9274 5.21797 16.9274 6.40788C16.9274 7.66336 16.4607 8.7862 15.4145 10.0486C14.4033 11.2688 12.8993 12.5505 11.1578 14.0346L11.1545 14.0373C10.5457 14.5562 9.85555 15.1444 9.13725 15.7725C8.41464 15.1432 7.7234 14.5541 7.11337 14.0344C5.37201 12.5502 3.86807 11.2688 2.85687 10.0486C1.81079 8.7862 1.34418 7.66336 1.34418 6.40788C1.34418 5.21797 1.74427 4.1288 2.47065 3.34087C3.18626 2.56466 4.17026 2.13723 5.24112 2.13723C6.02568 2.13723 6.746 2.38663 7.38202 2.87843C7.94883 3.3169 8.34367 3.87118 8.57516 4.25902C8.6942 4.45846 8.90374 4.5775 9.13577 4.5775C9.3678 4.5775 9.57734 4.45846 9.69638 4.25902C9.92773 3.87118 10.3226 3.3169 10.8895 2.87843C11.5255 2.38663 12.2459 2.13723 13.0303 2.13723Z" fill="black"/>
</g>
<defs>
<clipPath id="clip0">
<rect width="17.6509" height="17.6509" fill="white" transform="matrix(-1 0 0 1 17.9612 0.137939)"/>
</clipPath>
</defs>
</svg>
