<svg width="232" height="232" viewBox="0 0 232 232" fill="none" xmlns="http://www.w3.org/2000/svg">
<g id="Logo ">
<g id="Oval">
<path fill-rule="evenodd" clip-rule="evenodd" d="M0 116C0 180.065 51.935 232 116 232C180.065 232 232 180.065 232 116C232 51.935 180.065 0 116 0C51.935 0 0 51.935 0 116ZM226.248 116C226.248 176.888 176.888 226.248 116 226.248C55.1119 226.248 5.75217 176.888 5.75217 116C5.75217 55.1118 55.1119 5.75212 116 5.75212C176.888 5.75212 226.248 55.1118 226.248 116Z" fill="white"/>
<path fill-rule="evenodd" clip-rule="evenodd" d="M0 116C0 180.065 51.935 232 116 232C180.065 232 232 180.065 232 116C232 51.935 180.065 0 116 0C51.935 0 0 51.935 0 116ZM226.248 116C226.248 176.888 176.888 226.248 116 226.248C55.1119 226.248 5.75217 176.888 5.75217 116C5.75217 55.1118 55.1119 5.75212 116 5.75212C176.888 5.75212 226.248 55.1118 226.248 116Z" fill="#BA8D6C"/>
</g>
<g id="Oval_2">
<path fill-rule="evenodd" clip-rule="evenodd" d="M13.1365 115.065C13.1365 172.392 59.6087 218.864 116.935 218.864C174.262 218.864 220.734 172.392 220.734 115.065C220.734 57.7387 174.262 11.2664 116.935 11.2664C59.6087 11.2664 13.1365 57.7387 13.1365 115.065ZM218.816 115.065C218.816 171.333 173.202 216.946 116.935 216.946C60.6672 216.946 15.0534 171.333 15.0534 115.065C15.0534 58.7977 60.6672 13.1839 116.935 13.1839C173.202 13.1839 218.816 58.7977 218.816 115.065Z" fill="white"/>
<path fill-rule="evenodd" clip-rule="evenodd" d="M13.1365 115.065C13.1365 172.392 59.6087 218.864 116.935 218.864C174.262 218.864 220.734 172.392 220.734 115.065C220.734 57.7387 174.262 11.2664 116.935 11.2664C59.6087 11.2664 13.1365 57.7387 13.1365 115.065ZM218.816 115.065C218.816 171.333 173.202 216.946 116.935 216.946C60.6672 216.946 15.0534 171.333 15.0534 115.065C15.0534 58.7977 60.6672 13.1839 116.935 13.1839C173.202 13.1839 218.816 58.7977 218.816 115.065Z" fill="#BA8D6C"/>
</g>
<g id="Group">
<g id="&#209;&#131;">
<path fill-rule="evenodd" clip-rule="evenodd" d="M23.6564 98.2873L42.6486 105.508C45.13 106.396 46.8154 107.496 47.7049 108.805C48.5945 110.115 48.7587 112.135 48.1975 114.865L44.5143 114.349C44.7487 113.222 44.7563 112.348 44.5371 111.724C44.3178 111.101 43.7678 110.65 42.887 110.372L42.6668 110.303L21.5647 113.222L22.1434 109.09L31.4444 108.074L37.7886 107.648L31.8005 105.805L23.0459 102.646L23.6564 98.2873Z" fill="white"/>
<path fill-rule="evenodd" clip-rule="evenodd" d="M23.6564 98.2873L42.6486 105.508C45.13 106.396 46.8154 107.496 47.7049 108.805C48.5945 110.115 48.7587 112.135 48.1975 114.865L44.5143 114.349C44.7487 113.222 44.7563 112.348 44.5371 111.724C44.3178 111.101 43.7678 110.65 42.887 110.372L42.6668 110.303L21.5647 113.222L22.1434 109.09L31.4444 108.074L37.7886 107.648L31.8005 105.805L23.0459 102.646L23.6564 98.2873Z" fill="#BA8D6C"/>
</g>
<g id="&#209;&#129;">
<path fill-rule="evenodd" clip-rule="evenodd" d="M43.0236 91.9356L44.4028 88.2016L47.7136 89.4245C49.7309 90.1696 51.0938 91.2442 51.8023 92.6484C52.5108 94.0526 52.5115 95.7121 51.8042 97.627C51.0969 99.5419 50.0176 100.803 48.5664 101.409C47.1153 102.016 45.381 101.946 43.3637 101.201L30.4054 96.4148C28.3881 95.6696 27.0252 94.595 26.3167 93.1908C25.6081 91.7866 25.6075 90.1271 26.3148 88.2122C27.0221 86.2973 28.1013 85.0366 29.5525 84.4302C31.0037 83.8237 32.738 83.893 34.7553 84.6381L37.1761 85.5323L35.7968 89.2663L33.1269 88.2802C31.4893 87.6753 30.4185 88.055 29.9146 89.4194C29.4106 90.7838 29.9774 91.7684 31.615 92.3732L45.0717 97.3437C46.6855 97.9398 47.7444 97.5556 48.2484 96.1913C48.7523 94.8269 48.1974 93.8467 46.5835 93.2506L43.0236 91.9356Z" fill="white"/>
<path fill-rule="evenodd" clip-rule="evenodd" d="M43.0236 91.9356L44.4028 88.2016L47.7136 89.4245C49.7309 90.1696 51.0938 91.2442 51.8023 92.6484C52.5108 94.0526 52.5115 95.7121 51.8042 97.627C51.0969 99.5419 50.0176 100.803 48.5664 101.409C47.1153 102.016 45.381 101.946 43.3637 101.201L30.4054 96.4148C28.3881 95.6696 27.0252 94.595 26.3167 93.1908C25.6081 91.7866 25.6075 90.1271 26.3148 88.2122C27.0221 86.2973 28.1013 85.0366 29.5525 84.4302C31.0037 83.8237 32.738 83.893 34.7553 84.6381L37.1761 85.5323L35.7968 89.2663L33.1269 88.2802C31.4893 87.6753 30.4185 88.055 29.9146 89.4194C29.4106 90.7838 29.9774 91.7684 31.615 92.3732L45.0717 97.3437C46.6855 97.9398 47.7444 97.5556 48.2484 96.1913C48.7523 94.8269 48.1974 93.8467 46.5835 93.2506L43.0236 91.9356Z" fill="#BA8D6C"/>
</g>
<g id="&#208;&#176;">
<path fill-rule="evenodd" clip-rule="evenodd" d="M38.2092 66.0511L62.9286 76.6832L60.6496 80.2688L56.1919 78.2972L53.4202 82.658L57.0977 85.8572L55.024 89.1197L34.9037 71.2518L38.2092 66.0511ZM40.4149 71.3532L50.6648 80.2717L52.8412 76.8476L40.4149 71.3532Z" fill="white"/>
<path fill-rule="evenodd" clip-rule="evenodd" d="M38.2092 66.0511L62.9286 76.6832L60.6496 80.2688L56.1919 78.2972L53.4202 82.658L57.0977 85.8572L55.024 89.1197L34.9037 71.2518L38.2092 66.0511ZM40.4149 71.3532L50.6648 80.2717L52.8412 76.8476L40.4149 71.3532Z" fill="#BA8D6C"/>
</g>
<g id="&#209;&#135;">
<path fill-rule="evenodd" clip-rule="evenodd" d="M49.5349 52.0043L52.518 49.0331L71.2652 67.8548L68.2822 70.826L60.7298 63.2436C60.7752 64.5909 60.2737 65.7868 59.2251 66.8312C58.0319 68.0197 56.7261 68.5437 55.3076 68.4032C53.8891 68.2627 52.5193 67.5292 51.1981 66.2028L43.2706 58.2439L46.2536 55.2727L53.94 62.9896C54.5471 63.599 55.1695 63.8985 55.8074 63.8881C56.4453 63.8777 57.0173 63.6203 57.5235 63.1161C58.0117 62.6299 58.2262 62.086 58.167 61.4842C58.1079 60.8825 57.7659 60.2679 57.141 59.6405L49.5349 52.0043Z" fill="white"/>
<path fill-rule="evenodd" clip-rule="evenodd" d="M49.5349 52.0043L52.518 49.0331L71.2652 67.8548L68.2822 70.826L60.7298 63.2436C60.7752 64.5909 60.2737 65.7868 59.2251 66.8312C58.0319 68.0197 56.7261 68.5437 55.3076 68.4032C53.8891 68.2627 52.5193 67.5292 51.1981 66.2028L43.2706 58.2439L46.2536 55.2727L53.94 62.9896C54.5471 63.599 55.1695 63.8985 55.8074 63.8881C56.4453 63.8777 57.0173 63.6203 57.5235 63.1161C58.0117 62.6299 58.2262 62.086 58.167 61.4842C58.1079 60.8825 57.7659 60.2679 57.141 59.6405L49.5349 52.0043Z" fill="#BA8D6C"/>
</g>
<g id="&#208;&#181;">
<path fill-rule="evenodd" clip-rule="evenodd" d="M65.7956 44.352L69.834 50.5534L74.6771 47.3995L76.7481 50.5797L71.9049 53.7336L76.1503 60.253L82.2444 56.2845L84.3154 59.4647L74.6932 65.7307L60.1965 43.4694L69.8187 37.2034L71.8897 40.3836L65.7956 44.352Z" fill="white"/>
<path fill-rule="evenodd" clip-rule="evenodd" d="M65.7956 44.352L69.834 50.5534L74.6771 47.3995L76.7481 50.5797L71.9049 53.7336L76.1503 60.253L82.2444 56.2845L84.3154 59.4647L74.6932 65.7307L60.1965 43.4694L69.8187 37.2034L71.8897 40.3836L65.7956 44.352Z" fill="#BA8D6C"/>
</g>
<g id="&#208;&#178;">
<path fill-rule="evenodd" clip-rule="evenodd" d="M82.3222 31.6529C84.3425 30.8636 85.9979 30.7533 87.2885 31.322C88.5791 31.8907 89.6018 33.1412 90.3568 35.0736L90.7021 35.9573C91.6964 38.5024 91.5018 40.4934 90.1181 41.9304C92.3617 41.9231 94.0266 43.3098 95.113 46.0905L95.9002 48.1054C96.646 50.0142 96.7095 51.6667 96.0906 53.0629C95.4718 54.4591 94.188 55.5379 92.239 56.2993L86.0714 58.7089L76.4042 33.965L82.3222 31.6529ZM87.3897 45.3593L85.6428 46.0418L88.6121 53.6417L90.8581 52.7642C91.5473 52.4949 91.987 52.1127 92.177 51.6174C92.367 51.1221 92.2871 50.4267 91.9373 49.5312L91.0948 47.375C90.6529 46.2438 90.1507 45.5369 89.5882 45.2541C89.0257 44.9714 88.2929 45.0064 87.3897 45.3593ZM83.596 35.2293L81.7065 35.9675L84.2614 42.507L85.7944 41.9081C86.5788 41.6016 87.0887 41.1715 87.3244 40.6177C87.56 40.0638 87.4937 39.3156 87.1254 38.373L86.5868 36.9944C85.9239 35.2977 84.927 34.7093 83.596 35.2293Z" fill="white"/>
<path fill-rule="evenodd" clip-rule="evenodd" d="M82.3222 31.6529C84.3425 30.8636 85.9979 30.7533 87.2885 31.322C88.5791 31.8907 89.6018 33.1412 90.3568 35.0736L90.7021 35.9573C91.6964 38.5024 91.5018 40.4934 90.1181 41.9304C92.3617 41.9231 94.0266 43.3098 95.113 46.0905L95.9002 48.1054C96.646 50.0142 96.7095 51.6667 96.0906 53.0629C95.4718 54.4591 94.188 55.5379 92.239 56.2993L86.0714 58.7089L76.4042 33.965L82.3222 31.6529ZM87.3897 45.3593L85.6428 46.0418L88.6121 53.6417L90.8581 52.7642C91.5473 52.4949 91.987 52.1127 92.177 51.6174C92.367 51.1221 92.2871 50.4267 91.9373 49.5312L91.0948 47.375C90.6529 46.2438 90.1507 45.5369 89.5882 45.2541C89.0257 44.9714 88.2929 45.0064 87.3897 45.3593ZM83.596 35.2293L81.7065 35.9675L84.2614 42.507L85.7944 41.9081C86.5788 41.6016 87.0887 41.1715 87.3244 40.6177C87.56 40.0638 87.4937 39.3156 87.1254 38.373L86.5868 36.9944C85.9239 35.2977 84.927 34.7093 83.596 35.2293Z" fill="#BA8D6C"/>
</g>
<g id="&#209;&#129;_2">
<path fill-rule="evenodd" clip-rule="evenodd" d="M106.457 42.6L110.386 41.9614L110.952 45.445C111.297 47.5677 111.033 49.2831 110.16 50.5913C109.287 51.8995 107.843 52.7174 105.828 53.0449C103.813 53.3724 102.185 53.054 100.942 52.0897C99.6995 51.1253 98.9058 49.5819 98.5608 47.4592L96.3445 33.8242C95.9995 31.7015 96.2636 29.9861 97.1367 28.6779C98.0099 27.3697 99.4539 26.5518 101.469 26.2243C103.484 25.8968 105.112 26.2152 106.355 27.1795C107.597 28.1439 108.391 29.6873 108.736 31.81L109.15 34.3572L105.221 34.9959L104.765 32.1864C104.484 30.4633 103.627 29.7184 102.191 29.9518C100.755 30.1851 100.178 31.1634 100.458 32.8865L102.759 47.0459C103.035 48.7441 103.891 49.4765 105.327 49.2431C106.762 49.0098 107.342 48.044 107.066 46.3459L106.457 42.6Z" fill="white"/>
<path fill-rule="evenodd" clip-rule="evenodd" d="M106.457 42.6L110.386 41.9614L110.952 45.445C111.297 47.5677 111.033 49.2831 110.16 50.5913C109.287 51.8995 107.843 52.7174 105.828 53.0449C103.813 53.3724 102.185 53.054 100.942 52.0897C99.6995 51.1253 98.9058 49.5819 98.5608 47.4592L96.3445 33.8242C95.9995 31.7015 96.2636 29.9861 97.1367 28.6779C98.0099 27.3697 99.4539 26.5518 101.469 26.2243C103.484 25.8968 105.112 26.2152 106.355 27.1795C107.597 28.1439 108.391 29.6873 108.736 31.81L109.15 34.3572L105.221 34.9959L104.765 32.1864C104.484 30.4633 103.627 29.7184 102.191 29.9518C100.755 30.1851 100.178 31.1634 100.458 32.8865L102.759 47.0459C103.035 48.7441 103.891 49.4765 105.327 49.2431C106.762 49.0098 107.342 48.044 107.066 46.3459L106.457 42.6Z" fill="#BA8D6C"/>
</g>
<g id="&#208;&#186;">
<path fill-rule="evenodd" clip-rule="evenodd" d="M123.307 51.8505L119.805 41.0514L118.371 43.4043L117.918 51.5511L113.715 51.3176L115.188 24.7931L119.392 25.0267L118.75 36.5838L124.895 25.3324L129.099 25.566L122.595 37.0635L127.625 52.0904L123.307 51.8505Z" fill="white"/>
<path fill-rule="evenodd" clip-rule="evenodd" d="M123.307 51.8505L119.805 41.0514L118.371 43.4043L117.918 51.5511L113.715 51.3176L115.188 24.7931L119.392 25.0267L118.75 36.5838L124.895 25.3324L129.099 25.566L122.595 37.0635L127.625 52.0904L123.307 51.8505Z" fill="#BA8D6C"/>
</g>
<g id="&#208;&#184;">
<path fill-rule="evenodd" clip-rule="evenodd" d="M139.534 42.8154L132.761 53.5362L128.607 52.3324L136 26.8167L139.603 27.8606L134.924 44.0084L138.021 38.8211L144.382 29.2454L148.831 30.5343L141.437 56.0501L137.798 54.9955L143.005 37.0251L139.534 42.8154Z" fill="white"/>
<path fill-rule="evenodd" clip-rule="evenodd" d="M139.534 42.8154L132.761 53.5362L128.607 52.3324L136 26.8167L139.603 27.8606L134.924 44.0084L138.021 38.8211L144.382 29.2454L148.831 30.5343L141.437 56.0501L137.798 54.9955L143.005 37.0251L139.534 42.8154Z" fill="#BA8D6C"/>
</g>
<g id="&#208;&#181;_2">
<path fill-rule="evenodd" clip-rule="evenodd" d="M157.756 38.9256L154.285 45.4616L159.39 48.1722L157.61 51.5239L152.505 48.8134L148.857 55.6845L155.279 59.0952L153.5 62.447L143.358 57.0617L155.817 33.5992L165.959 38.9845L164.179 42.3363L157.756 38.9256Z" fill="white"/>
<path fill-rule="evenodd" clip-rule="evenodd" d="M157.756 38.9256L154.285 45.4616L159.39 48.1722L157.61 51.5239L152.505 48.8134L148.857 55.6845L155.279 59.0952L153.5 62.447L143.358 57.0617L155.817 33.5992L165.959 38.9845L164.179 42.3363L157.756 38.9256Z" fill="#BA8D6C"/>
</g>
<g id="&#208;&#177;">
<path fill-rule="evenodd" clip-rule="evenodd" d="M165.023 72.0168L160.366 67.2552L179.36 48.6817L187.602 57.1102L184.889 59.7636L179.59 54.3452L174.733 59.0948L176.446 60.8461C177.909 62.3421 178.612 63.8668 178.557 65.4202C178.501 66.9736 177.714 68.4932 176.194 69.9791L174.159 71.9691C172.64 73.455 171.103 74.2084 169.549 74.2293C167.994 74.2503 166.486 73.5128 165.023 72.0168ZM166.024 67.6118L167.737 69.3632C168.736 70.3849 169.832 70.3119 171.026 69.1445L173.441 66.783C174.635 65.6155 174.732 64.5209 173.733 63.4993L172.02 61.7479L166.024 67.6118Z" fill="white"/>
<path fill-rule="evenodd" clip-rule="evenodd" d="M165.023 72.0168L160.366 67.2552L179.36 48.6817L187.602 57.1102L184.889 59.7636L179.59 54.3452L174.733 59.0948L176.446 60.8461C177.909 62.3421 178.612 63.8668 178.557 65.4202C178.501 66.9736 177.714 68.4932 176.194 69.9791L174.159 71.9691C172.64 73.455 171.103 74.2084 169.549 74.2293C167.994 74.2503 166.486 73.5128 165.023 72.0168ZM166.024 67.6118L167.737 69.3632C168.736 70.3849 169.832 70.3119 171.026 69.1445L173.441 66.783C174.635 65.6155 174.732 64.5209 173.733 63.4993L172.02 61.7479L166.024 67.6118Z" fill="#BA8D6C"/>
</g>
<g id="&#208;&#176;_2">
<path fill-rule="evenodd" clip-rule="evenodd" d="M197.995 72.26L177.664 89.8879L175.427 86.2755L179.143 83.1203L176.423 78.7268L171.942 80.6454L169.907 77.3585L194.751 67.0204L197.995 72.26ZM192.261 71.9382L179.77 77.2847L181.906 80.7344L192.261 71.9382Z" fill="white"/>
<path fill-rule="evenodd" clip-rule="evenodd" d="M197.995 72.26L177.664 89.8879L175.427 86.2755L179.143 83.1203L176.423 78.7268L171.942 80.6454L169.907 77.3585L194.751 67.0204L197.995 72.26ZM192.261 71.9382L179.77 77.2847L181.906 80.7344L192.261 71.9382Z" fill="#BA8D6C"/>
</g>
<g id="&#208;&#189;">
<path fill-rule="evenodd" clip-rule="evenodd" d="M191.705 92.3297L180.94 96.0372L179.569 92.0564L204.687 83.4057L206.058 87.3865L195.293 91.0939L196.851 95.6176L207.616 91.9101L209.012 95.9633L183.894 104.614L182.498 100.561L193.263 96.8534L191.705 92.3297Z" fill="white"/>
<path fill-rule="evenodd" clip-rule="evenodd" d="M191.705 92.3297L180.94 96.0372L179.569 92.0564L204.687 83.4057L206.058 87.3865L195.293 91.0939L196.851 95.6176L207.616 91.9101L209.012 95.9633L183.894 104.614L182.498 100.561L193.263 96.8534L191.705 92.3297Z" fill="#BA8D6C"/>
</g>
<g id="&#208;&#184;_2">
<path fill-rule="evenodd" clip-rule="evenodd" d="M195.803 111.526L183.312 109.341L182.845 105.041L209.255 102.172L209.66 105.901L192.946 107.717L198.922 108.607L210.197 110.847L210.698 115.452L184.288 118.321L183.878 114.554L202.479 112.533L195.803 111.526Z" fill="white"/>
<path fill-rule="evenodd" clip-rule="evenodd" d="M195.803 111.526L183.312 109.341L182.845 105.041L209.255 102.172L209.66 105.901L192.946 107.717L198.922 108.607L210.197 110.847L210.698 115.452L184.288 118.321L183.878 114.554L202.479 112.533L195.803 111.526Z" fill="#BA8D6C"/>
</g>
</g>
<g id="Rectangle-path">
<path d="M23.4442 131.894H60.8406V133.763H23.4442V131.894Z" fill="white"/>
<path d="M23.4442 131.894H60.8406V133.763H23.4442V131.894Z" fill="#BA8D6C"/>
</g>
<g id="Rectangle-path_2">
<path d="M174.899 131.894H212.296V133.763H174.899V131.894Z" fill="white"/>
<path d="M174.899 131.894H212.296V133.763H174.899V131.894Z" fill="#BA8D6C"/>
</g>
<g id="4838485">
<g id="Shape">
<path fill-rule="evenodd" clip-rule="evenodd" d="M152.342 91.6438C152.478 91.879 152.499 92.1647 152.399 92.4176C151.25 95.2881 148.247 101.769 143.499 104.877C145.877 105.767 148.179 106.851 150.384 108.117C150.614 108.254 150.77 108.491 150.805 108.759C150.841 109.027 150.753 109.297 150.566 109.491C148.295 111.837 142.898 116.9 137.076 118.476C139.16 119.612 141.152 120.913 143.033 122.368C143.244 122.535 143.367 122.791 143.367 123.062C143.367 123.332 143.244 123.588 143.033 123.755C138.503 127.361 132.088 131.266 126.061 130.601C126.835 131.997 127.534 133.434 128.154 134.907C128.254 135.153 128.239 135.432 128.112 135.666C127.985 135.899 127.761 136.062 127.501 136.109L127.493 136.11C127.068 136.184 119.786 137.446 114.254 136.135C114.266 137.415 114.222 138.31 114.21 138.569L114.21 138.569L114.21 138.572L114.21 138.572C114.208 138.613 114.207 138.638 114.207 138.644C114.185 138.957 114.001 139.235 113.723 139.374C113.446 139.512 113.116 139.491 112.857 139.318C109.963 137.447 106.034 134.453 103.283 130.579C102.532 131.283 101.791 131.985 101.06 132.683C101.715 133.947 101.469 135.496 100.457 136.489C99.4436 137.483 97.9052 137.682 96.6772 136.98C94.9713 138.693 93.2871 140.432 91.6508 142.166C92.3174 143.383 92.1337 144.895 91.1959 145.912C90.2581 146.929 88.7796 147.219 87.5339 146.631C85.5582 148.806 83.552 151.082 81.3761 153.582C80.9794 154.039 80.4134 154.31 79.8124 154.33C79.2115 154.35 78.6291 154.118 78.2035 153.688L74.5654 150.012C73.7572 149.193 73.7134 147.881 74.4653 147.009C76.6412 144.473 78.7171 142.166 80.7624 139.904C80.0635 138.673 80.2421 137.125 81.2023 136.091C82.1626 135.057 83.6785 134.78 84.9359 135.409C86.6157 133.63 88.3216 131.869 90.0319 130.156C89.4671 128.932 89.7115 127.481 90.6455 126.515C91.617 125.523 93.1124 125.282 94.3403 125.921C95.0844 125.208 95.8373 124.495 96.5902 123.79C92.6953 120.999 89.6925 116.979 87.8125 113.99C87.6388 113.724 87.6213 113.383 87.7667 113.1C87.9121 112.816 88.1977 112.635 88.5131 112.625C88.5204 112.625 88.5493 112.624 88.5981 112.623C88.8684 112.613 89.7515 112.581 90.9937 112.581C89.6751 106.946 90.9589 99.5145 91.0198 99.1799C91.0658 98.9176 91.2268 98.6905 91.4576 98.5622C91.6885 98.4339 91.9643 98.4182 92.2079 98.5195C93.6565 99.1532 95.07 99.8659 96.4422 100.655C95.7938 94.5572 99.6495 88.0635 103.214 83.4848C103.385 83.2833 103.634 83.1674 103.897 83.1674C104.16 83.1674 104.409 83.2833 104.58 83.4848C106.018 85.3902 107.306 87.4069 108.432 89.5163C109.99 83.6213 114.99 78.1577 117.309 75.8684C117.501 75.6796 117.768 75.5904 118.033 75.6265C118.298 75.6626 118.532 75.82 118.667 76.0533C119.923 78.2807 120.996 80.6087 121.875 83.0137C124.938 78.1929 131.344 75.1552 134.195 73.9929C134.451 73.8885 134.741 73.9135 134.977 74.0603C135.212 74.2071 135.364 74.4582 135.387 74.7369C135.611 76.7934 135.69 78.8635 135.622 80.9313C139.826 77.4621 146.445 76.3967 149.374 76.0885C149.635 76.0604 149.895 76.1534 150.081 76.3415C150.267 76.5296 150.359 76.7926 150.331 77.0571C149.957 80.7156 148.843 86.932 145.579 90.9692C147.623 90.9001 149.67 90.9825 151.702 91.2157C151.969 91.2505 152.206 91.4086 152.342 91.6438ZM89.1185 139.432L90.5154 140.846C92.0952 139.16 93.7184 137.482 95.3634 135.844L93.9491 134.409C92.3476 136.047 90.7069 137.755 89.1185 139.432ZM91.1155 131.548L92.717 133.168C91.1155 134.801 89.4749 136.509 87.8865 138.187L86.2676 136.545C87.856 134.841 89.4923 133.168 91.1155 131.534V131.548ZM81.9072 141.233C79.9097 143.426 77.8991 145.697 75.7754 148.154C75.6154 148.331 75.6251 148.605 75.7972 148.77L77.1811 150.157C78.6564 148.304 80.8236 145.816 83.5174 142.862L81.9072 141.233ZM80.0664 152.411C79.9841 152.5 79.8691 152.551 79.7487 152.551C79.6283 152.551 79.5133 152.5 79.431 152.411L78.4214 151.412C79.8618 149.594 82.0291 147.097 84.7533 144.117L86.1546 145.534C84.2007 147.683 82.1988 149.941 80.0664 152.411ZM87.9085 144.803C88.4844 145.293 89.3334 145.261 89.8712 144.729C90.4254 144.172 90.437 143.27 89.8974 142.699L84.5228 137.262C84.1582 136.894 83.6272 136.751 83.1298 136.886C82.6325 137.021 82.2443 137.415 82.1115 137.918C81.9787 138.422 82.1215 138.959 82.4861 139.327L82.5716 139.413C83.2594 140.11 87.8397 144.75 87.9085 144.803ZM98.2399 135.651C97.8528 135.65 97.4823 135.491 97.2128 135.21L94.5582 132.525L94.5115 132.478C94.1508 132.113 91.8614 129.8 91.8209 129.747C91.2866 129.176 91.2983 128.278 91.8473 127.722C92.3962 127.165 93.2832 127.151 93.8488 127.691C94.0316 127.858 99.1146 133.005 99.2887 133.185C99.6847 133.609 99.7935 134.231 99.5656 134.767C99.3376 135.303 98.8165 135.65 98.2399 135.651ZM137.085 104.736C138.194 105.009 139.491 104.842 140.949 104.243C145.34 102.301 148.395 97.2958 150.336 92.8404C146.946 92.563 142.39 92.6071 139.208 93.7825C138.779 93.8876 138.339 93.6501 138.187 93.2302C138.035 92.8104 138.217 92.3417 138.612 92.1404C140.021 91.6491 141.481 91.3241 142.964 91.1718C146.663 87.9844 148.008 81.5258 148.478 77.9641C144.94 78.4396 138.56 79.8044 135.422 83.5466C135.267 85.0842 134.931 86.5976 134.421 88.0548C134.336 88.3802 134.076 88.6282 133.749 88.6938C133.423 88.7594 133.088 88.631 132.887 88.3631C132.686 88.0952 132.653 87.7346 132.802 87.434C133.999 84.1982 134.038 79.5315 133.769 76.0843C130.383 77.5943 124.412 80.8346 122.489 85.5806C121.892 87.0598 121.727 88.3762 121.997 89.5033C122.11 89.9762 121.822 90.4522 121.355 90.5665C120.887 90.6807 120.417 90.39 120.304 89.9171C119.983 88.3416 120.144 86.7047 120.765 85.224C119.962 82.7126 118.943 80.2774 117.719 77.9465C115.182 80.6013 110.012 86.6944 109.716 92.4177C109.736 93.612 109.848 94.8028 110.051 95.9794C110.162 96.3065 110.074 96.6692 109.825 96.9065C109.576 97.1438 109.213 97.2118 108.897 97.0802C108.581 96.9487 108.37 96.6421 108.358 96.2964C108.148 95.0728 108.026 93.8353 107.992 92.5938C106.866 90.0977 105.495 87.7218 103.902 85.5013C100.52 90.0712 96.9474 96.653 98.5184 102.161C98.7015 102.853 98.9956 103.51 99.3888 104.107C99.58 104.363 99.6177 104.705 99.4872 104.998C99.3567 105.291 99.0787 105.489 98.7619 105.514C98.4451 105.539 98.14 105.388 97.9658 105.119C97.5198 104.463 97.1736 103.744 96.9387 102.984C95.5266 102.104 94.068 101.303 92.5694 100.584C92.2387 103.068 91.6643 109.055 92.9698 113.193C93.0572 113.468 93.0058 113.769 92.8321 113.999C92.6584 114.228 92.3846 114.356 92.0994 114.342H90.1368C91.8122 116.804 94.5104 120.198 97.857 122.527C103.101 116.742 104.193 112.934 104.193 109.037C104.193 108.551 104.583 108.157 105.064 108.157C105.544 108.157 105.934 108.551 105.934 109.037C105.957 110.762 105.714 112.479 105.212 114.127C106.766 112.788 107.938 111.054 108.606 109.103C108.702 108.804 108.95 108.579 109.254 108.514C109.559 108.448 109.875 108.552 110.083 108.787C110.292 109.021 110.361 109.35 110.264 109.649C109.285 112.678 106.922 115.478 103.919 117.195C102.448 119.779 100.663 122.166 98.6055 124.301C98.6055 124.301 97.0301 125.767 95.6897 127.048L97.2303 128.607C103.505 122.57 110.281 117.09 117.484 112.229C117.118 104.111 119.573 98.1411 125.426 93.0077C125.665 92.797 125.998 92.7345 126.296 92.8443C126.594 92.9542 126.809 93.2192 126.858 93.536C127.798 99.792 126.183 104.432 123.041 108.69C125.571 107.166 128.102 105.766 130.635 104.49C131.064 104.273 131.586 104.448 131.802 104.881C131.906 105.091 131.923 105.334 131.849 105.556C131.776 105.778 131.618 105.962 131.41 106.066C125.75 108.944 120.315 112.254 115.151 115.967C118.859 115.267 122.328 115.602 126.279 116.962C126.564 117.06 126.779 117.3 126.847 117.596C126.915 117.893 126.827 118.204 126.614 118.419C121.914 123.174 115.443 123.531 110.625 119.335C106.382 122.606 102.321 126.113 98.4619 129.839L99.9502 131.363C100.899 130.456 101.874 129.536 102.857 128.624C103.046 128.454 103.298 128.375 103.549 128.408C103.799 128.441 104.024 128.583 104.163 128.796C106.391 132.265 109.729 135.065 112.514 136.998C112.531 136.637 112.526 136.225 112.52 135.773V135.773V135.773C112.517 135.53 112.514 135.276 112.514 135.012C112.5 134.724 112.627 134.447 112.854 134.271C113.081 134.096 113.378 134.044 113.65 134.132C117.741 135.47 123.677 134.872 126.114 134.537C125.415 133.017 124.636 131.535 123.781 130.099C123.03 129.862 122.319 129.511 121.67 129.06C121.405 128.884 121.255 128.575 121.28 128.255C121.305 127.934 121.5 127.653 121.79 127.521C122.08 127.389 122.418 127.427 122.671 127.621C123.26 128.02 123.91 128.318 124.595 128.501C130.296 130.165 137.041 126.102 141.062 123.055C138.866 121.446 136.518 120.061 134.051 118.921C132.824 118.888 131.601 118.764 130.392 118.551C130.078 118.506 129.813 118.292 129.7 117.992C129.588 117.692 129.646 117.354 129.851 117.109C130.056 116.865 130.377 116.753 130.687 116.817C131.851 117.02 133.028 117.135 134.208 117.16C139.883 116.852 145.897 111.626 148.508 109.064C146.203 107.826 143.794 106.794 141.31 105.982C139.847 106.61 138.229 106.773 136.671 106.449C136.369 106.374 136.129 106.142 136.042 105.839C135.954 105.537 136.033 105.211 136.248 104.983C136.463 104.756 136.782 104.661 137.085 104.736ZM112.383 118.521C116.565 117.134 120.182 117.028 124.277 118.19C120.569 121.175 116.052 121.299 112.383 118.521ZM119.19 110.569C119.221 104.406 121.161 99.6466 125.335 95.4862C125.74 100.945 123.921 105.405 119.19 110.569Z" fill="white"/>
<path fill-rule="evenodd" clip-rule="evenodd" d="M152.342 91.6438C152.478 91.879 152.499 92.1647 152.399 92.4176C151.25 95.2881 148.247 101.769 143.499 104.877C145.877 105.767 148.179 106.851 150.384 108.117C150.614 108.254 150.77 108.491 150.805 108.759C150.841 109.027 150.753 109.297 150.566 109.491C148.295 111.837 142.898 116.9 137.076 118.476C139.16 119.612 141.152 120.913 143.033 122.368C143.244 122.535 143.367 122.791 143.367 123.062C143.367 123.332 143.244 123.588 143.033 123.755C138.503 127.361 132.088 131.266 126.061 130.601C126.835 131.997 127.534 133.434 128.154 134.907C128.254 135.153 128.239 135.432 128.112 135.666C127.985 135.899 127.761 136.062 127.501 136.109L127.493 136.11C127.068 136.184 119.786 137.446 114.254 136.135C114.266 137.415 114.222 138.31 114.21 138.569L114.21 138.569L114.21 138.572L114.21 138.572C114.208 138.613 114.207 138.638 114.207 138.644C114.185 138.957 114.001 139.235 113.723 139.374C113.446 139.512 113.116 139.491 112.857 139.318C109.963 137.447 106.034 134.453 103.283 130.579C102.532 131.283 101.791 131.985 101.06 132.683C101.715 133.947 101.469 135.496 100.457 136.489C99.4436 137.483 97.9052 137.682 96.6772 136.98C94.9713 138.693 93.2871 140.432 91.6508 142.166C92.3174 143.383 92.1337 144.895 91.1959 145.912C90.2581 146.929 88.7796 147.219 87.5339 146.631C85.5582 148.806 83.552 151.082 81.3761 153.582C80.9794 154.039 80.4134 154.31 79.8124 154.33C79.2115 154.35 78.6291 154.118 78.2035 153.688L74.5654 150.012C73.7572 149.193 73.7134 147.881 74.4653 147.009C76.6412 144.473 78.7171 142.166 80.7624 139.904C80.0635 138.673 80.2421 137.125 81.2023 136.091C82.1626 135.057 83.6785 134.78 84.9359 135.409C86.6157 133.63 88.3216 131.869 90.0319 130.156C89.4671 128.932 89.7115 127.481 90.6455 126.515C91.617 125.523 93.1124 125.282 94.3403 125.921C95.0844 125.208 95.8373 124.495 96.5902 123.79C92.6953 120.999 89.6925 116.979 87.8125 113.99C87.6388 113.724 87.6213 113.383 87.7667 113.1C87.9121 112.816 88.1977 112.635 88.5131 112.625C88.5204 112.625 88.5493 112.624 88.5981 112.623C88.8684 112.613 89.7515 112.581 90.9937 112.581C89.6751 106.946 90.9589 99.5145 91.0198 99.1799C91.0658 98.9176 91.2268 98.6905 91.4576 98.5622C91.6885 98.4339 91.9643 98.4182 92.2079 98.5195C93.6565 99.1532 95.07 99.8659 96.4422 100.655C95.7938 94.5572 99.6495 88.0635 103.214 83.4848C103.385 83.2833 103.634 83.1674 103.897 83.1674C104.16 83.1674 104.409 83.2833 104.58 83.4848C106.018 85.3902 107.306 87.4069 108.432 89.5163C109.99 83.6213 114.99 78.1577 117.309 75.8684C117.501 75.6796 117.768 75.5904 118.033 75.6265C118.298 75.6626 118.532 75.82 118.667 76.0533C119.923 78.2807 120.996 80.6087 121.875 83.0137C124.938 78.1929 131.344 75.1552 134.195 73.9929C134.451 73.8885 134.741 73.9135 134.977 74.0603C135.212 74.2071 135.364 74.4582 135.387 74.7369C135.611 76.7934 135.69 78.8635 135.622 80.9313C139.826 77.4621 146.445 76.3967 149.374 76.0885C149.635 76.0604 149.895 76.1534 150.081 76.3415C150.267 76.5296 150.359 76.7926 150.331 77.0571C149.957 80.7156 148.843 86.932 145.579 90.9692C147.623 90.9001 149.67 90.9825 151.702 91.2157C151.969 91.2505 152.206 91.4086 152.342 91.6438ZM89.1185 139.432L90.5154 140.846C92.0952 139.16 93.7184 137.482 95.3634 135.844L93.9491 134.409C92.3476 136.047 90.7069 137.755 89.1185 139.432ZM91.1155 131.548L92.717 133.168C91.1155 134.801 89.4749 136.509 87.8865 138.187L86.2676 136.545C87.856 134.841 89.4923 133.168 91.1155 131.534V131.548ZM81.9072 141.233C79.9097 143.426 77.8991 145.697 75.7754 148.154C75.6154 148.331 75.6251 148.605 75.7972 148.77L77.1811 150.157C78.6564 148.304 80.8236 145.816 83.5174 142.862L81.9072 141.233ZM80.0664 152.411C79.9841 152.5 79.8691 152.551 79.7487 152.551C79.6283 152.551 79.5133 152.5 79.431 152.411L78.4214 151.412C79.8618 149.594 82.0291 147.097 84.7533 144.117L86.1546 145.534C84.2007 147.683 82.1988 149.941 80.0664 152.411ZM87.9085 144.803C88.4844 145.293 89.3334 145.261 89.8712 144.729C90.4254 144.172 90.437 143.27 89.8974 142.699L84.5228 137.262C84.1582 136.894 83.6272 136.751 83.1298 136.886C82.6325 137.021 82.2443 137.415 82.1115 137.918C81.9787 138.422 82.1215 138.959 82.4861 139.327L82.5716 139.413C83.2594 140.11 87.8397 144.75 87.9085 144.803ZM98.2399 135.651C97.8528 135.65 97.4823 135.491 97.2128 135.21L94.5582 132.525L94.5115 132.478C94.1508 132.113 91.8614 129.8 91.8209 129.747C91.2866 129.176 91.2983 128.278 91.8473 127.722C92.3962 127.165 93.2832 127.151 93.8488 127.691C94.0316 127.858 99.1146 133.005 99.2887 133.185C99.6847 133.609 99.7935 134.231 99.5656 134.767C99.3376 135.303 98.8165 135.65 98.2399 135.651ZM137.085 104.736C138.194 105.009 139.491 104.842 140.949 104.243C145.34 102.301 148.395 97.2958 150.336 92.8404C146.946 92.563 142.39 92.6071 139.208 93.7825C138.779 93.8876 138.339 93.6501 138.187 93.2302C138.035 92.8104 138.217 92.3417 138.612 92.1404C140.021 91.6491 141.481 91.3241 142.964 91.1718C146.663 87.9844 148.008 81.5258 148.478 77.9641C144.94 78.4396 138.56 79.8044 135.422 83.5466C135.267 85.0842 134.931 86.5976 134.421 88.0548C134.336 88.3802 134.076 88.6282 133.749 88.6938C133.423 88.7594 133.088 88.631 132.887 88.3631C132.686 88.0952 132.653 87.7346 132.802 87.434C133.999 84.1982 134.038 79.5315 133.769 76.0843C130.383 77.5943 124.412 80.8346 122.489 85.5806C121.892 87.0598 121.727 88.3762 121.997 89.5033C122.11 89.9762 121.822 90.4522 121.355 90.5665C120.887 90.6807 120.417 90.39 120.304 89.9171C119.983 88.3416 120.144 86.7047 120.765 85.224C119.962 82.7126 118.943 80.2774 117.719 77.9465C115.182 80.6013 110.012 86.6944 109.716 92.4177C109.736 93.612 109.848 94.8028 110.051 95.9794C110.162 96.3065 110.074 96.6692 109.825 96.9065C109.576 97.1438 109.213 97.2118 108.897 97.0802C108.581 96.9487 108.37 96.6421 108.358 96.2964C108.148 95.0728 108.026 93.8353 107.992 92.5938C106.866 90.0977 105.495 87.7218 103.902 85.5013C100.52 90.0712 96.9474 96.653 98.5184 102.161C98.7015 102.853 98.9956 103.51 99.3888 104.107C99.58 104.363 99.6177 104.705 99.4872 104.998C99.3567 105.291 99.0787 105.489 98.7619 105.514C98.4451 105.539 98.14 105.388 97.9658 105.119C97.5198 104.463 97.1736 103.744 96.9387 102.984C95.5266 102.104 94.068 101.303 92.5694 100.584C92.2387 103.068 91.6643 109.055 92.9698 113.193C93.0572 113.468 93.0058 113.769 92.8321 113.999C92.6584 114.228 92.3846 114.356 92.0994 114.342H90.1368C91.8122 116.804 94.5104 120.198 97.857 122.527C103.101 116.742 104.193 112.934 104.193 109.037C104.193 108.551 104.583 108.157 105.064 108.157C105.544 108.157 105.934 108.551 105.934 109.037C105.957 110.762 105.714 112.479 105.212 114.127C106.766 112.788 107.938 111.054 108.606 109.103C108.702 108.804 108.95 108.579 109.254 108.514C109.559 108.448 109.875 108.552 110.083 108.787C110.292 109.021 110.361 109.35 110.264 109.649C109.285 112.678 106.922 115.478 103.919 117.195C102.448 119.779 100.663 122.166 98.6055 124.301C98.6055 124.301 97.0301 125.767 95.6897 127.048L97.2303 128.607C103.505 122.57 110.281 117.09 117.484 112.229C117.118 104.111 119.573 98.1411 125.426 93.0077C125.665 92.797 125.998 92.7345 126.296 92.8443C126.594 92.9542 126.809 93.2192 126.858 93.536C127.798 99.792 126.183 104.432 123.041 108.69C125.571 107.166 128.102 105.766 130.635 104.49C131.064 104.273 131.586 104.448 131.802 104.881C131.906 105.091 131.923 105.334 131.849 105.556C131.776 105.778 131.618 105.962 131.41 106.066C125.75 108.944 120.315 112.254 115.151 115.967C118.859 115.267 122.328 115.602 126.279 116.962C126.564 117.06 126.779 117.3 126.847 117.596C126.915 117.893 126.827 118.204 126.614 118.419C121.914 123.174 115.443 123.531 110.625 119.335C106.382 122.606 102.321 126.113 98.4619 129.839L99.9502 131.363C100.899 130.456 101.874 129.536 102.857 128.624C103.046 128.454 103.298 128.375 103.549 128.408C103.799 128.441 104.024 128.583 104.163 128.796C106.391 132.265 109.729 135.065 112.514 136.998C112.531 136.637 112.526 136.225 112.52 135.773V135.773V135.773C112.517 135.53 112.514 135.276 112.514 135.012C112.5 134.724 112.627 134.447 112.854 134.271C113.081 134.096 113.378 134.044 113.65 134.132C117.741 135.47 123.677 134.872 126.114 134.537C125.415 133.017 124.636 131.535 123.781 130.099C123.03 129.862 122.319 129.511 121.67 129.06C121.405 128.884 121.255 128.575 121.28 128.255C121.305 127.934 121.5 127.653 121.79 127.521C122.08 127.389 122.418 127.427 122.671 127.621C123.26 128.02 123.91 128.318 124.595 128.501C130.296 130.165 137.041 126.102 141.062 123.055C138.866 121.446 136.518 120.061 134.051 118.921C132.824 118.888 131.601 118.764 130.392 118.551C130.078 118.506 129.813 118.292 129.7 117.992C129.588 117.692 129.646 117.354 129.851 117.109C130.056 116.865 130.377 116.753 130.687 116.817C131.851 117.02 133.028 117.135 134.208 117.16C139.883 116.852 145.897 111.626 148.508 109.064C146.203 107.826 143.794 106.794 141.31 105.982C139.847 106.61 138.229 106.773 136.671 106.449C136.369 106.374 136.129 106.142 136.042 105.839C135.954 105.537 136.033 105.211 136.248 104.983C136.463 104.756 136.782 104.661 137.085 104.736ZM112.383 118.521C116.565 117.134 120.182 117.028 124.277 118.19C120.569 121.175 116.052 121.299 112.383 118.521ZM119.19 110.569C119.221 104.406 121.161 99.6466 125.335 95.4862C125.74 100.945 123.921 105.405 119.19 110.569Z" fill="#BA8D6C"/>
</g>
</g>
<g id="c 1934">
<path fill-rule="evenodd" clip-rule="evenodd" d="M75.9141 186.156H69.6615C67.5998 186.156 66.1326 185.848 65.2598 185.231C64.6428 184.809 64.15 184.219 63.7813 183.459C63.4126 182.699 63.2283 181.905 63.2283 181.077C63.2283 180.129 63.4803 179.069 63.9845 177.895C64.4886 176.721 65.1244 175.713 65.8918 174.87C66.7195 173.982 67.6713 173.282 68.7473 172.771C69.8232 172.259 70.8879 172.003 71.9413 172.003C73.2204 172.003 74.2738 172.357 75.1015 173.064C75.9291 173.772 76.343 174.674 76.343 175.773C76.343 176.586 76.0796 177.391 75.5529 178.188H72.7539C73.4461 177.285 73.7922 176.555 73.7922 175.999C73.7922 175.517 73.6041 175.115 73.2279 174.791C72.8517 174.467 72.3852 174.306 71.8284 174.306C70.8051 174.306 69.7217 174.765 68.578 175.683C67.7503 176.345 67.0769 177.154 66.5577 178.109C66.0386 179.065 65.779 179.971 65.779 180.829C65.779 181.386 65.9182 181.909 66.1966 182.398C66.475 182.887 66.8399 183.252 67.2913 183.493C67.818 183.779 68.7962 183.922 70.2258 183.922H76.817L75.9141 186.156ZM93.93 186.021H91.2213L100.386 164.013H96.3227L97.2482 161.71H104.043L93.93 186.021ZM112.295 177.263C111.467 177.534 110.685 177.669 109.947 177.669C108.367 177.669 107.028 177.158 105.929 176.134C104.71 174.991 104.101 173.538 104.101 171.778C104.101 170.438 104.402 169.122 105.004 167.828C105.651 166.443 106.546 165.217 107.69 164.148C109.496 162.463 111.482 161.62 113.649 161.62C115.831 161.62 117.517 162.403 118.705 163.968C119.533 165.066 119.947 166.345 119.947 167.805C119.947 168.843 119.676 170.017 119.134 171.326C118.593 172.635 117.84 173.922 116.877 175.186L108.593 186.111H105.523L112.295 177.263ZM113.514 164.013C112.069 164.028 110.662 164.705 109.293 166.044C108.495 166.827 107.859 167.722 107.385 168.73C106.911 169.739 106.674 170.709 106.674 171.642C106.674 172.605 106.998 173.471 107.645 174.238C108.337 175.051 109.315 175.457 110.579 175.457C111.949 175.457 113.258 174.885 114.507 173.742C115.35 172.974 116.034 172.071 116.561 171.033C117.088 169.994 117.374 168.979 117.419 167.985C117.464 166.917 117.14 166.007 116.448 165.254C115.681 164.427 114.702 164.013 113.514 164.013ZM133.662 170.152C135.076 170.769 136.103 171.552 136.743 172.5C137.382 173.448 137.702 174.674 137.702 176.179C137.702 178.542 136.942 180.656 135.422 182.522C133.511 184.885 131.066 186.066 128.086 186.066C126.19 186.066 124.67 185.622 123.526 184.734C122.368 183.831 121.788 182.507 121.788 180.762C121.788 179.798 122.067 178.692 122.624 177.443H125.535C124.903 178.497 124.587 179.437 124.587 180.265C124.587 181.303 124.926 182.135 125.603 182.759C126.28 183.384 127.191 183.696 128.334 183.696C130.366 183.696 132.097 182.786 133.526 180.965C134.625 179.55 135.174 177.993 135.174 176.292C135.174 174.516 134.459 173.23 133.03 172.432C132.142 171.936 131.111 171.687 129.937 171.687C129.681 171.687 129.29 171.717 128.763 171.778L136.37 163.629H128.267L129.215 161.327H141.81L133.662 170.152ZM156.405 177.782H160.152L159.227 180.017H155.435L152.884 186.134H150.22L152.726 180.017H141.891L142.636 178.053L158.775 161.755H163.087L156.405 177.782ZM159.227 164.599L146.203 177.782H153.629L159.227 164.599Z" fill="white"/>
<path fill-rule="evenodd" clip-rule="evenodd" d="M75.9141 186.156H69.6615C67.5998 186.156 66.1326 185.848 65.2598 185.231C64.6428 184.809 64.15 184.219 63.7813 183.459C63.4126 182.699 63.2283 181.905 63.2283 181.077C63.2283 180.129 63.4803 179.069 63.9845 177.895C64.4886 176.721 65.1244 175.713 65.8918 174.87C66.7195 173.982 67.6713 173.282 68.7473 172.771C69.8232 172.259 70.8879 172.003 71.9413 172.003C73.2204 172.003 74.2738 172.357 75.1015 173.064C75.9291 173.772 76.343 174.674 76.343 175.773C76.343 176.586 76.0796 177.391 75.5529 178.188H72.7539C73.4461 177.285 73.7922 176.555 73.7922 175.999C73.7922 175.517 73.6041 175.115 73.2279 174.791C72.8517 174.467 72.3852 174.306 71.8284 174.306C70.8051 174.306 69.7217 174.765 68.578 175.683C67.7503 176.345 67.0769 177.154 66.5577 178.109C66.0386 179.065 65.779 179.971 65.779 180.829C65.779 181.386 65.9182 181.909 66.1966 182.398C66.475 182.887 66.8399 183.252 67.2913 183.493C67.818 183.779 68.7962 183.922 70.2258 183.922H76.817L75.9141 186.156ZM93.93 186.021H91.2213L100.386 164.013H96.3227L97.2482 161.71H104.043L93.93 186.021ZM112.295 177.263C111.467 177.534 110.685 177.669 109.947 177.669C108.367 177.669 107.028 177.158 105.929 176.134C104.71 174.991 104.101 173.538 104.101 171.778C104.101 170.438 104.402 169.122 105.004 167.828C105.651 166.443 106.546 165.217 107.69 164.148C109.496 162.463 111.482 161.62 113.649 161.62C115.831 161.62 117.517 162.403 118.705 163.968C119.533 165.066 119.947 166.345 119.947 167.805C119.947 168.843 119.676 170.017 119.134 171.326C118.593 172.635 117.84 173.922 116.877 175.186L108.593 186.111H105.523L112.295 177.263ZM113.514 164.013C112.069 164.028 110.662 164.705 109.293 166.044C108.495 166.827 107.859 167.722 107.385 168.73C106.911 169.739 106.674 170.709 106.674 171.642C106.674 172.605 106.998 173.471 107.645 174.238C108.337 175.051 109.315 175.457 110.579 175.457C111.949 175.457 113.258 174.885 114.507 173.742C115.35 172.974 116.034 172.071 116.561 171.033C117.088 169.994 117.374 168.979 117.419 167.985C117.464 166.917 117.14 166.007 116.448 165.254C115.681 164.427 114.702 164.013 113.514 164.013ZM133.662 170.152C135.076 170.769 136.103 171.552 136.743 172.5C137.382 173.448 137.702 174.674 137.702 176.179C137.702 178.542 136.942 180.656 135.422 182.522C133.511 184.885 131.066 186.066 128.086 186.066C126.19 186.066 124.67 185.622 123.526 184.734C122.368 183.831 121.788 182.507 121.788 180.762C121.788 179.798 122.067 178.692 122.624 177.443H125.535C124.903 178.497 124.587 179.437 124.587 180.265C124.587 181.303 124.926 182.135 125.603 182.759C126.28 183.384 127.191 183.696 128.334 183.696C130.366 183.696 132.097 182.786 133.526 180.965C134.625 179.55 135.174 177.993 135.174 176.292C135.174 174.516 134.459 173.23 133.03 172.432C132.142 171.936 131.111 171.687 129.937 171.687C129.681 171.687 129.29 171.717 128.763 171.778L136.37 163.629H128.267L129.215 161.327H141.81L133.662 170.152ZM156.405 177.782H160.152L159.227 180.017H155.435L152.884 186.134H150.22L152.726 180.017H141.891L142.636 178.053L158.775 161.755H163.087L156.405 177.782ZM159.227 164.599L146.203 177.782H153.629L159.227 164.599Z" fill="#BA8D6C"/>
</g>
</g>
</svg>
