<svg width="135" height="135" viewBox="0 0 135 135" fill="none" xmlns="http://www.w3.org/2000/svg">
<g id="Logo ">
<path id="Oval" fill-rule="evenodd" clip-rule="evenodd" d="M0 67.5C0 104.779 30.2208 135 67.5 135C104.779 135 135 104.779 135 67.5C135 30.2208 104.779 0 67.5 0C30.2208 0 0 30.2208 0 67.5ZM131.652 67.5001C131.652 102.931 102.93 131.653 67.4996 131.653C32.0689 131.653 3.34668 102.931 3.34668 67.5001C3.34668 32.0694 32.0689 3.34717 67.4996 3.34717C102.93 3.34717 131.652 32.0694 131.652 67.5001Z" fill="white"/>
<path id="Oval_2" fill-rule="evenodd" clip-rule="evenodd" d="M7.64355 66.9557C7.64355 100.314 34.6856 127.356 68.0436 127.356C101.402 127.356 128.444 100.314 128.444 66.9557C128.444 33.5977 101.402 6.55566 68.0436 6.55566C34.6856 6.55566 7.64355 33.5977 7.64355 66.9557ZM127.328 66.9558C127.328 99.6976 100.785 126.24 68.0435 126.24C35.3017 126.24 8.75915 99.6976 8.75915 66.9558C8.75915 34.2139 35.3017 7.67141 68.0435 7.67141C100.785 7.67141 127.328 34.2139 127.328 66.9558Z" fill="white"/>
<g id="Group">
<path id="&#209;&#131;" fill-rule="evenodd" clip-rule="evenodd" d="M13.766 57.1929L24.8175 61.3945C26.2614 61.9115 27.2421 62.5512 27.7597 63.3133C28.2774 64.0755 28.3729 65.2509 28.0464 66.8394L25.9031 66.5392C26.0395 65.8836 26.044 65.3745 25.9164 65.0118C25.7888 64.649 25.4687 64.3868 24.9562 64.2251L24.8281 64.1847L12.5488 65.8833L12.8856 63.4791L18.2978 62.8877L21.9895 62.6401L18.505 61.5674L13.4107 59.7294L13.766 57.1929Z" fill="white"/>
<path id="&#209;&#129;" fill-rule="evenodd" clip-rule="evenodd" d="M25.0352 53.4971L25.8378 51.3243L27.7643 52.0359C28.9382 52.4695 29.7313 53.0948 30.1435 53.9119C30.5558 54.729 30.5562 55.6946 30.1446 56.8089C29.733 57.9232 29.105 58.6568 28.2606 59.0097C27.4162 59.3626 26.407 59.3222 25.2331 58.8886L17.6928 56.1035C16.5189 55.6699 15.7258 55.0446 15.3135 54.2275C14.9012 53.4104 14.9009 52.4447 15.3125 51.3304C15.724 50.2162 16.352 49.4826 17.1965 49.1297C18.0409 48.7768 19.0501 48.8171 20.2239 49.2507L21.6326 49.771L20.83 51.9439L19.2764 51.37C18.3235 51.018 17.7004 51.239 17.4071 52.0329C17.1139 52.8268 17.4437 53.3998 18.3966 53.7518L26.227 56.644C27.1661 56.9909 27.7823 56.7674 28.0755 55.9734C28.3688 55.1795 28.0458 54.6091 27.1068 54.2623L25.0352 53.4971Z" fill="white"/>
<path id="&#208;&#176;" fill-rule="evenodd" clip-rule="evenodd" d="M22.2346 38.4344L36.6183 44.6217L35.2922 46.7082L32.6984 45.5608L31.0856 48.0984L33.2255 49.9601L32.0189 51.8586L20.3112 41.4607L22.2346 38.4344ZM23.518 41.5201L29.4823 46.7098L30.7487 44.7173L23.518 41.5201Z" fill="white"/>
<path id="&#209;&#135;" fill-rule="evenodd" clip-rule="evenodd" d="M28.8239 30.2613L30.5597 28.5324L41.4687 39.4847L39.7329 41.2136L35.3381 36.8014C35.3646 37.5854 35.0727 38.2813 34.4626 38.889C33.7683 39.5806 33.0084 39.8855 32.183 39.8038C31.3576 39.722 30.5605 39.2952 29.7917 38.5233L25.1787 33.8921L26.9145 32.1631L31.3872 36.6536C31.7404 37.0082 32.1026 37.1825 32.4738 37.1764C32.845 37.1704 33.1779 37.0206 33.4724 36.7272C33.7565 36.4443 33.8813 36.1278 33.8469 35.7776C33.8125 35.4275 33.6135 35.0699 33.2498 34.7048L28.8239 30.2613Z" fill="white"/>
<path id="&#208;&#181;" fill-rule="evenodd" clip-rule="evenodd" d="M38.2864 25.8085L40.6363 29.4171L43.4545 27.5818L44.6596 29.4324L41.8414 31.2676L44.3118 35.0612L47.8579 32.752L49.063 34.6025L43.4639 38.2487L35.0283 25.2949L40.6274 21.6488L41.8325 23.4993L38.2864 25.8085Z" fill="white"/>
<path id="&#208;&#178;" fill-rule="evenodd" clip-rule="evenodd" d="M47.9036 18.4184C49.0791 17.959 50.0423 17.8948 50.7933 18.2257C51.5443 18.5566 52.1393 19.2843 52.5786 20.4088L52.7795 20.923C53.358 22.404 53.2447 23.5626 52.4395 24.3989C53.745 24.3946 54.7137 25.2015 55.3458 26.8196L55.8038 27.9921C56.2377 29.1028 56.2746 30.0645 55.9145 30.8769C55.5543 31.6894 54.8073 32.3172 53.6732 32.7604L50.0844 34.1628L44.46 19.764L47.9036 18.4184ZM50.8515 26.3945L49.835 26.7916L51.5627 31.214L52.8697 30.7034C53.2708 30.5467 53.5266 30.3242 53.6372 30.036C53.7478 29.7478 53.7013 29.3432 53.4977 28.8221L53.0075 27.5674C52.7503 26.9092 52.4581 26.4978 52.1308 26.3333C51.8034 26.1688 51.377 26.1892 50.8515 26.3945ZM48.6444 20.4999L47.5449 20.9294L49.0316 24.7347L49.9237 24.3862C50.3801 24.2079 50.6768 23.9576 50.8139 23.6353C50.9511 23.3131 50.9125 22.8777 50.6982 22.3292L50.3848 21.527C49.999 20.5397 49.4189 20.1973 48.6444 20.4999Z" fill="white"/>
<path id="&#209;&#129;_2" fill-rule="evenodd" clip-rule="evenodd" d="M61.9475 24.7886L64.2338 24.417L64.5633 26.4442C64.7641 27.6793 64.6104 28.6775 64.1023 29.4388C63.5942 30.2 62.754 30.6759 61.5815 30.8665C60.409 31.057 59.4613 30.8718 58.7383 30.3106C58.0153 29.7495 57.5534 28.8514 57.3526 27.6162L56.063 19.682C55.8622 18.4468 56.0159 17.4486 56.524 16.6874C57.0321 15.9262 57.8723 15.4503 59.0448 15.2597C60.2173 15.0691 61.165 15.2544 61.888 15.8155C62.611 16.3767 63.0729 17.2748 63.2737 18.51L63.5146 19.9922L61.2283 20.3638L60.9626 18.729C60.7996 17.7263 60.3004 17.2929 59.465 17.4287C58.6296 17.5645 58.2934 18.1337 58.4564 19.1364L59.7956 27.3757C59.9562 28.3638 60.4542 28.79 61.2896 28.6542C62.125 28.5185 62.4624 27.9565 62.3018 26.9684L61.9475 24.7886Z" fill="white"/>
<path id="&#208;&#186;" fill-rule="evenodd" clip-rule="evenodd" d="M71.7516 30.1718L69.7139 23.8879L68.8794 25.257L68.616 29.9976L66.1698 29.8617L67.0273 14.4272L69.4735 14.5632L69.0999 21.2882L72.6758 14.7411L75.122 14.877L71.3373 21.5673L74.2644 30.3114L71.7516 30.1718Z" fill="white"/>
<path id="&#208;&#184;" fill-rule="evenodd" clip-rule="evenodd" d="M81.1938 24.9141L77.2529 31.1525L74.8355 30.452L79.1377 15.6045L81.2341 16.212L78.5115 25.6083L80.3137 22.5898L84.0151 17.0178L86.6036 17.7678L82.3014 32.6153L80.1836 32.0017L83.2136 21.5448L81.1938 24.9141Z" fill="white"/>
<path id="&#208;&#181;_2" fill-rule="evenodd" clip-rule="evenodd" d="M91.798 22.6507L89.7784 26.4539L92.7487 28.0312L91.713 29.9816L88.7427 28.4043L86.6196 32.4026L90.357 34.3873L89.3213 36.3377L83.4201 33.204L90.6699 19.5513L96.5712 22.6849L95.5355 24.6353L91.798 22.6507Z" fill="white"/>
<path id="&#208;&#177;" fill-rule="evenodd" clip-rule="evenodd" d="M96.0266 41.9062L93.3171 39.1355L104.369 28.3276L109.165 33.2322L107.586 34.7761L104.503 31.6232L101.677 34.387L102.674 35.4061C103.525 36.2766 103.934 37.1638 103.902 38.0677C103.87 38.9716 103.411 39.8559 102.527 40.7205L101.343 41.8785C100.459 42.7431 99.5645 43.1815 98.6601 43.1937C97.7557 43.2059 96.8779 42.7768 96.0266 41.9062ZM96.6093 39.343L97.6059 40.3621C98.1873 40.9566 98.8253 40.9142 99.52 40.2348L100.925 38.8607C101.62 38.1813 101.677 37.5444 101.095 36.9499L100.099 35.9308L96.6093 39.343Z" fill="white"/>
<path id="&#208;&#176;_2" fill-rule="evenodd" clip-rule="evenodd" d="M115.212 42.0478L103.382 52.3054L102.08 50.2034L104.242 48.3673L102.66 45.8108L100.052 46.9272L98.8682 45.0146L113.325 38.9989L115.212 42.0478ZM111.875 41.8605L104.607 44.9716L105.85 46.979L111.875 41.8605Z" fill="white"/>
<path id="&#208;&#189;" fill-rule="evenodd" clip-rule="evenodd" d="M111.552 53.7266L105.289 55.8839L104.491 53.5675L119.106 48.5337L119.904 50.8501L113.64 53.0074L114.547 55.6397L120.811 53.4824L121.623 55.8409L107.007 60.8747L106.195 58.5162L112.459 56.3588L111.552 53.7266Z" fill="white"/>
<path id="&#208;&#184;_2" fill-rule="evenodd" clip-rule="evenodd" d="M113.937 64.8966L106.669 63.6251L106.397 61.1231L121.765 59.4536L122 61.6235L112.275 62.6801L115.752 63.1985L122.313 64.502L122.604 67.1812L107.236 68.8506L106.998 66.6586L117.822 65.4828L113.937 64.8966Z" fill="white"/>
</g>
<path id="Rectangle-path" d="M13.6416 76.7485H35.4024V77.8366H13.6416V76.7485Z" fill="white"/>
<path id="Rectangle-path_2" d="M101.773 76.7485H123.534V77.8366H101.773V76.7485Z" fill="white"/>
<g id="4838485">
<path id="Shape" fill-rule="evenodd" clip-rule="evenodd" d="M88.6477 53.3271C88.727 53.4639 88.7392 53.6302 88.6806 53.7774C88.0121 55.4477 86.2648 59.2187 83.502 61.0274C84.8855 61.5454 86.2253 62.176 87.5082 62.9129C87.6424 62.9926 87.7329 63.1303 87.7536 63.2863C87.7744 63.4424 87.7231 63.5994 87.6145 63.7122C86.2926 65.0776 83.1525 68.0237 79.7643 68.9409C80.9773 69.6018 82.1365 70.359 83.2311 71.2055C83.3537 71.3026 83.4254 71.4514 83.4254 71.609C83.4254 71.7666 83.3537 71.9154 83.2311 72.0125C80.5949 74.1106 76.8622 76.383 73.3549 75.9962C73.8053 76.8085 74.2119 77.6449 74.573 78.5016C74.6313 78.645 74.6223 78.8074 74.5485 78.9433C74.4747 79.0791 74.344 79.1739 74.1931 79.201L74.1885 79.2018C73.9404 79.2448 69.7032 79.9795 66.4847 79.2164C66.4912 79.9614 66.4661 80.482 66.4588 80.6328C66.4576 80.6578 66.4569 80.6726 66.4569 80.6766C66.4445 80.8586 66.3374 81.0202 66.1757 81.1009C66.014 81.1816 65.8221 81.1693 65.6718 81.0686C63.9878 79.9798 61.7011 78.2378 60.1007 75.9833C59.6634 76.3932 59.2321 76.8014 58.8067 77.2079C59.188 77.9432 59.0452 78.8447 58.4558 79.4227C57.8664 80.0006 56.9712 80.1168 56.2566 79.7082C55.2639 80.7048 54.2839 81.7167 53.3317 82.7261C53.7196 83.4339 53.6127 84.3138 53.067 84.9056C52.5213 85.4973 51.661 85.6662 50.9362 85.3238C49.7865 86.5893 48.6191 87.9138 47.3529 89.3689C47.1221 89.6349 46.7927 89.7924 46.443 89.8041C46.0933 89.8157 45.7545 89.6805 45.5068 89.4304L43.3898 87.2913C42.9195 86.8149 42.8941 86.0515 43.3316 85.5441C44.5977 84.0685 45.8056 82.7261 46.9958 81.4093C46.5891 80.6935 46.693 79.7927 47.2518 79.1909C47.8106 78.5891 48.6927 78.4278 49.4244 78.7937C50.4018 77.7587 51.3945 76.734 52.3897 75.7374C52.0611 75.0249 52.2033 74.1809 52.7468 73.6188C53.3121 73.0413 54.1823 72.9013 54.8967 73.2729C55.3298 72.8579 55.7679 72.4429 56.206 72.033C53.9395 70.4088 52.1922 68.0698 51.0982 66.3304C50.9972 66.1753 50.987 65.977 51.0716 65.8122C51.1562 65.6473 51.3224 65.5417 51.5059 65.5362L51.5237 65.5357L51.5554 65.5346C51.7127 65.5289 52.2266 65.5106 52.9494 65.5106C52.1821 62.2314 52.9291 57.9071 52.9646 57.7124C52.9914 57.5597 53.085 57.4275 53.2193 57.3529C53.3537 57.2782 53.5142 57.2691 53.6559 57.3281C54.4989 57.6968 55.3214 58.1115 56.1199 58.5706C55.7425 55.0224 57.9862 51.2437 60.0602 48.5794C60.1598 48.4622 60.3049 48.3947 60.4577 48.3947C60.6105 48.3947 60.7557 48.4622 60.8553 48.5794C61.692 49.6882 62.4414 50.8617 63.0964 52.0891C64.003 48.6588 66.9127 45.4796 68.2624 44.1474C68.3739 44.0376 68.5291 43.9857 68.6833 44.0067C68.8376 44.0277 68.9737 44.1193 69.0525 44.255C69.7832 45.5512 70.4074 46.9058 70.9188 48.3053C72.7016 45.5001 76.4292 43.7324 78.0879 43.0561C78.2371 42.9953 78.406 43.0099 78.5429 43.0953C78.6798 43.1807 78.7684 43.3269 78.7817 43.4891C78.9121 44.6857 78.9578 45.8903 78.9185 47.0936C81.3647 45.0748 85.2164 44.4549 86.9207 44.2755C87.0728 44.2592 87.2241 44.3133 87.3323 44.4227C87.4405 44.5322 87.4939 44.6852 87.4778 44.8391C87.26 46.968 86.6117 50.5853 84.7125 52.9345C85.902 52.8943 87.0928 52.9423 88.2755 53.078C88.431 53.0983 88.5684 53.1902 88.6477 53.3271ZM51.8584 81.1352L52.6713 81.9576C53.5905 80.9764 54.5351 80.0003 55.4923 79.0473L54.6693 78.2122C53.7374 79.1652 52.7827 80.1591 51.8584 81.1352ZM53.0202 76.547L53.9521 77.4897C53.0202 78.4402 52.0656 79.4342 51.1412 80.4102L50.1992 79.4547C51.1235 78.4632 52.0757 77.4897 53.0202 76.5393V76.547ZM47.6617 82.183C46.4993 83.4588 45.3294 84.7807 44.0936 86.2102C44.0005 86.3133 44.0062 86.4728 44.1063 86.5688L44.9116 87.3758C45.77 86.2973 47.0311 84.8498 48.5987 83.1309L47.6617 82.183ZM46.591 88.6875C46.5431 88.7392 46.4762 88.7686 46.4062 88.7686C46.3361 88.7686 46.2692 88.7392 46.2213 88.6875L45.6338 88.1059C46.472 87.0479 47.7331 85.5953 49.3183 83.861L50.1338 84.6859C48.9967 85.936 47.8319 87.2503 46.591 88.6875ZM51.1536 84.2605C51.4887 84.5453 51.9827 84.5265 52.2957 84.217C52.6182 83.8933 52.6249 83.368 52.3109 83.036L49.1835 79.8721C48.9713 79.6579 48.6623 79.5745 48.3729 79.6533C48.0835 79.7321 47.8576 79.9611 47.7803 80.2541C47.7031 80.547 47.7862 80.8594 47.9983 81.0736L48.0447 81.1205C48.433 81.514 51.1134 84.2294 51.1536 84.2605ZM57.1661 78.9345C56.9408 78.9343 56.7253 78.8419 56.5685 78.6783L55.0237 77.1156L54.9972 77.0888L54.9953 77.0869L54.9951 77.0866C54.7804 76.8697 53.4544 75.53 53.4309 75.4991C53.12 75.1668 53.1268 74.6446 53.4463 74.3208C53.7657 73.9969 54.2819 73.9889 54.611 74.3027C54.7173 74.4 57.6751 77.3948 57.7764 77.4998C58.0068 77.7466 58.0702 78.1083 57.9375 78.4202C57.8049 78.732 57.5016 78.9341 57.1661 78.9345ZM79.769 60.9455C80.4148 61.1043 81.1694 61.007 82.0178 60.6586C84.5729 59.5288 86.3506 56.616 87.48 54.0234C85.5073 53.862 82.856 53.8876 81.0048 54.5716C80.7548 54.6328 80.4991 54.4946 80.4104 54.2503C80.3217 54.006 80.4282 53.7332 80.6579 53.6161C81.4777 53.3302 82.3275 53.1411 83.1902 53.0525C85.3427 51.1977 86.1252 47.4395 86.3987 45.367C84.3399 45.6437 80.6275 46.4378 78.8017 48.6154C78.7112 49.5101 78.5156 50.3907 78.2193 51.2387C78.1699 51.4281 78.0181 51.5724 77.8282 51.6105C77.6383 51.6487 77.4436 51.574 77.3264 51.4181C77.2092 51.2622 77.1901 51.0524 77.2772 50.8775C77.9736 48.9945 77.9964 46.279 77.8394 44.2731C75.8692 45.1518 72.3949 47.0373 71.2756 49.7989C70.9287 50.6597 70.8324 51.4257 70.9894 52.0815C71.0552 52.3567 70.8879 52.6337 70.6159 52.7002C70.3439 52.7667 70.0701 52.5975 70.0044 52.3223C69.8178 51.4056 69.9114 50.4531 70.2728 49.5914C69.8056 48.1301 69.2125 46.7131 68.5001 45.3567C67.0238 46.9015 64.0154 50.4471 63.8432 53.7775C63.855 54.4724 63.9202 55.1653 64.0382 55.85C64.1029 56.0403 64.0515 56.2514 63.9067 56.3894C63.762 56.5275 63.5507 56.5671 63.3667 56.4906C63.1827 56.414 63.06 56.2356 63.0531 56.0344C62.9308 55.3224 62.8597 54.6024 62.8404 53.8799C62.1848 52.4275 61.3873 51.0449 60.46 49.7528C58.4924 52.412 56.4133 56.242 57.3275 59.4468C57.434 59.8497 57.6051 60.2322 57.8339 60.5791C57.9452 60.7285 57.9671 60.9274 57.8912 61.0979C57.8152 61.2685 57.6535 61.3836 57.4691 61.3982C57.2848 61.4129 57.1072 61.3248 57.0059 61.1684C56.7464 60.7868 56.5449 60.3679 56.4082 59.9259C55.5865 59.414 54.7378 58.9479 53.8658 58.5297C53.6733 59.9745 53.339 63.4586 54.0987 65.8668C54.1496 66.0268 54.1197 66.2018 54.0186 66.3353C53.9176 66.4687 53.7582 66.5435 53.5923 66.5354H52.4502C53.4251 67.9675 54.9952 69.9426 56.9426 71.2978C59.994 67.9316 60.6296 65.7156 60.6296 63.4484C60.6296 63.1654 60.8564 62.936 61.1361 62.936C61.4158 62.936 61.6426 63.1654 61.6426 63.4484C61.6562 64.4517 61.5143 65.451 61.2222 66.4099C62.1264 65.6311 62.8084 64.6219 63.1974 63.4868C63.2535 63.3125 63.3973 63.1816 63.5746 63.1436C63.7519 63.1056 63.9358 63.1661 64.057 63.3024C64.1782 63.4387 64.2183 63.6301 64.1623 63.8045C63.5925 65.567 62.2174 67.1963 60.4701 68.1955C59.6141 69.6989 58.5754 71.088 57.3781 72.3303C57.3781 72.3303 56.4614 73.1834 55.6815 73.9288L56.5779 74.8357C60.2289 71.3229 64.1719 68.1344 68.3634 65.3057C68.1507 60.5817 69.5789 57.1079 72.9849 54.1208C73.124 53.9982 73.3179 53.9618 73.4912 54.0257C73.6644 54.0896 73.7897 54.2438 73.8181 54.4282C74.365 58.0685 73.4255 60.7687 71.5972 63.246C73.0693 62.3596 74.5423 61.5449 76.0161 60.802C76.2658 60.6759 76.5693 60.7778 76.6948 61.03C76.7553 61.1519 76.7653 61.2932 76.7225 61.4225C76.6797 61.5519 76.5877 61.6586 76.4669 61.7192C73.1734 63.3942 70.0107 65.3203 67.0061 67.4807C69.1636 67.0734 71.1819 67.2681 73.4813 68.0597C73.6471 68.1166 73.7722 68.2562 73.8119 68.4288C73.8516 68.6014 73.8003 68.7825 73.6762 68.9077C70.9413 71.6744 67.1757 71.8819 64.3724 69.4405C61.903 71.3437 59.54 73.3844 57.2946 75.553L58.1606 76.4394C58.7127 75.9117 59.2799 75.3763 59.8522 74.846C59.962 74.747 60.1088 74.7011 60.2546 74.7202C60.4005 74.7394 60.5309 74.8218 60.6119 74.9459C61.9085 76.9646 63.8508 78.5939 65.4715 79.7186C65.4814 79.5084 65.4784 79.2688 65.4751 79.0055V79.0055V79.0055C65.4733 78.8645 65.4715 78.7168 65.4715 78.5632C65.4635 78.3953 65.5374 78.2341 65.6693 78.1319C65.8012 78.0297 65.9742 77.9994 66.1324 78.0508C68.5128 78.8296 71.9669 78.4812 73.385 78.2865C72.9784 77.4019 72.5253 76.5399 72.0277 75.7042C71.5907 75.5659 71.1767 75.3621 70.7995 75.0996C70.6449 74.9971 70.5578 74.8174 70.5723 74.6309C70.5868 74.4445 70.7006 74.2808 70.8691 74.204C71.0377 74.1271 71.2343 74.1493 71.3819 74.2619C71.7243 74.4943 72.1026 74.6675 72.5012 74.7742C75.8186 75.7426 79.7437 73.378 82.0836 71.6053C80.8057 70.6689 79.4392 69.8631 78.004 69.1997C77.2899 69.1803 76.5781 69.1083 75.8743 68.9845C75.6916 68.9582 75.5375 68.8335 75.4721 68.659C75.4067 68.4844 75.4402 68.2877 75.5597 68.1455C75.6792 68.0032 75.8657 67.938 76.0465 67.9751C76.7235 68.0937 77.4083 68.1605 78.0952 68.175C81.3973 67.9956 84.897 64.9547 86.4164 63.4638C85.0748 62.7432 83.6733 62.1432 82.2279 61.6705C81.3762 62.0361 80.4347 62.1308 79.5285 61.942C79.3525 61.8986 79.2128 61.7634 79.1621 61.5875C79.1113 61.4116 79.1571 61.2217 79.2823 61.0892C79.4075 60.9568 79.5931 60.902 79.769 60.9455ZM65.3955 68.9666C67.8291 68.1596 69.9335 68.0981 72.3164 68.7744C70.1588 70.5113 67.5303 70.5831 65.3955 68.9666ZM69.3564 64.3398C69.3742 60.7533 70.5036 57.9839 72.9321 55.563C73.1676 58.7397 72.1091 61.3348 69.3564 64.3398Z" fill="white"/>
</g>
<path id="c 1934" fill-rule="evenodd" clip-rule="evenodd" d="M44.1738 108.324H40.5354C39.3358 108.324 38.482 108.144 37.9741 107.785C37.6151 107.54 37.3283 107.196 37.1138 106.754C36.8993 106.312 36.792 105.85 36.792 105.368C36.792 104.817 36.9387 104.199 37.232 103.516C37.5254 102.833 37.8953 102.247 38.3419 101.756C38.8235 101.24 39.3774 100.832 40.0035 100.535C40.6296 100.237 41.2491 100.088 41.8621 100.088C42.6064 100.088 43.2193 100.294 43.701 100.705C44.1826 101.117 44.4234 101.642 44.4234 102.282C44.4234 102.755 44.2701 103.223 43.9637 103.687H42.3349C42.7377 103.162 42.9391 102.737 42.9391 102.413C42.9391 102.133 42.8297 101.899 42.6108 101.71C42.3918 101.522 42.1204 101.428 41.7964 101.428C41.2009 101.428 40.5705 101.695 39.905 102.229C39.4234 102.614 39.0315 103.085 38.7294 103.641C38.4273 104.197 38.2762 104.725 38.2762 105.224C38.2762 105.548 38.3572 105.852 38.5192 106.137C38.6812 106.421 38.8936 106.634 39.1563 106.774C39.4628 106.94 40.0319 107.023 40.8638 107.023H44.6992L44.1738 108.324ZM54.6574 108.245H53.0812L58.414 95.4385H56.0497L56.5882 94.0988H60.5419L54.6574 108.245ZM65.3438 103.149C64.8621 103.306 64.4068 103.385 63.9777 103.385C63.0583 103.385 62.2789 103.087 61.6397 102.492C60.9304 101.827 60.5758 100.982 60.5758 99.957C60.5758 99.1776 60.7509 98.4114 61.1012 97.6584C61.4777 96.8528 61.9987 96.1391 62.6642 95.5174C63.715 94.5366 64.8709 94.0463 66.1319 94.0463C67.4016 94.0463 68.3823 94.5016 69.0741 95.4123C69.5557 96.0515 69.7965 96.7958 69.7965 97.6452C69.7965 98.2494 69.6389 98.9325 69.3236 99.6943C69.0084 100.456 68.5706 101.205 68.0101 101.94L63.1896 108.298H61.4033L65.3438 103.149ZM66.0531 95.4385C65.2125 95.4472 64.3937 95.8413 63.5969 96.6206C63.1328 97.076 62.7628 97.597 62.487 98.1837C62.2112 98.7704 62.0732 99.3352 62.0732 99.8781C62.0732 100.439 62.2615 100.942 62.638 101.389C63.0408 101.861 63.61 102.098 64.3456 102.098C65.1424 102.098 65.9043 101.765 66.6311 101.1C67.1214 100.653 67.5199 100.128 67.8263 99.5234C68.1328 98.9192 68.2992 98.3282 68.3255 97.7502C68.3517 97.1285 68.1635 96.5987 67.7607 96.1609C67.3141 95.6793 66.7449 95.4385 66.0531 95.4385ZM77.777 99.0112C78.6001 99.3703 79.1977 99.8256 79.5699 100.377C79.9421 100.929 80.1281 101.643 80.1281 102.518C80.1281 103.893 79.6859 105.123 78.8015 106.209C77.6894 107.584 76.2665 108.271 74.5327 108.271C73.4293 108.271 72.5449 108.013 71.8794 107.496C71.2051 106.971 70.868 106.2 70.868 105.185C70.868 104.624 71.03 103.981 71.354 103.254H73.0484C72.6806 103.867 72.4967 104.414 72.4967 104.896C72.4967 105.5 72.6938 105.984 73.0878 106.347C73.4819 106.71 74.0116 106.892 74.6771 106.892C75.8593 106.892 76.8663 106.362 77.6982 105.303C78.3374 104.48 78.657 103.573 78.657 102.584C78.657 101.551 78.2411 100.802 77.4092 100.338C76.8926 100.049 76.2927 99.9044 75.6097 99.9044C75.4609 99.9044 75.2332 99.9219 74.9267 99.957L79.3532 95.2153H74.6377L75.1894 93.8755H82.5187L77.777 99.0112ZM91.0115 103.451H93.1919L92.6534 104.751H90.4467L88.9625 108.311H87.4125L88.8705 104.751H82.5657L82.9992 103.608L92.3907 94.1251H94.8994L91.0115 103.451ZM92.6531 95.7799L85.0742 103.451H89.3956L92.6531 95.7799Z" fill="white"/>
</g>
</svg>
