<svg width="121" height="121" viewBox="0 0 121 121" fill="none" xmlns="http://www.w3.org/2000/svg">
<path fill-rule="evenodd" clip-rule="evenodd" d="M0 60.5C0 93.9132 27.0868 121 60.5 121C93.9132 121 121 93.9132 121 60.5C121 27.0868 93.9132 0 60.5 0C27.0868 0 0 27.0868 0 60.5ZM118 60.5001C118 92.2564 92.2564 118 60.5001 118C28.7437 118 3.00005 92.2564 3.00005 60.5001C3.00005 28.7437 28.7437 3.00005 60.5001 3.00005C92.2564 3.00005 118 28.7437 118 60.5001Z" fill="#B68E6A"/>
<path fill-rule="evenodd" clip-rule="evenodd" d="M6.85132 60.0123C6.85132 89.911 31.089 114.149 60.9877 114.149C90.8864 114.149 115.124 89.911 115.124 60.0123C115.124 30.1137 90.8864 5.87598 60.9877 5.87598C31.089 5.87598 6.85132 30.1137 6.85132 60.0123ZM114.124 60.0124C114.124 89.3588 90.3339 113.149 60.9875 113.149C31.6411 113.149 7.85113 89.3588 7.85113 60.0124C7.85113 30.666 31.6411 6.87605 60.9875 6.87605C90.3339 6.87605 114.124 30.666 114.124 60.0124Z" fill="#B68E6A"/>
<path fill-rule="evenodd" clip-rule="evenodd" d="M12.338 51.2618L22.2434 55.0277C23.5376 55.4911 24.4166 56.0644 24.8806 56.7476C25.3445 57.4307 25.4301 58.4842 25.1375 59.908L23.2165 59.6389C23.3387 59.0513 23.3427 58.595 23.2283 58.2699C23.114 57.9448 22.8271 57.7097 22.3678 57.5648L22.2529 57.5285L11.2471 59.051L11.5489 56.8961L16.3998 56.3661L19.7087 56.1442L16.5856 55.1827L12.0196 53.5353L12.338 51.2618Z" fill="#B68E6A"/>
<path fill-rule="evenodd" clip-rule="evenodd" d="M22.439 47.9492L23.1584 46.0017L24.8851 46.6395C25.9372 47.0281 26.6481 47.5886 27.0176 48.3209C27.3871 49.0533 27.3875 49.9188 27.0186 50.9175C26.6497 51.9162 26.0868 52.5737 25.3299 52.89C24.573 53.2063 23.6686 53.1702 22.6164 52.7816L15.858 50.2853C14.8059 49.8966 14.095 49.3362 13.7255 48.6038C13.356 47.8714 13.3557 47.0059 13.7245 46.0072C14.0934 45.0085 14.6563 44.351 15.4132 44.0347C16.1701 43.7184 17.0746 43.7545 18.1267 44.1431L19.3892 44.6095L18.6699 46.557L17.2774 46.0426C16.4233 45.7272 15.8648 45.9252 15.602 46.6368C15.3392 47.3484 15.6348 47.8619 16.4889 48.1774L23.5072 50.7697C24.3489 51.0806 24.9012 50.8803 25.164 50.1687C25.4269 49.4571 25.1374 48.9459 24.2957 48.635L22.439 47.9492Z" fill="#B68E6A"/>
<path fill-rule="evenodd" clip-rule="evenodd" d="M19.928 34.4491L32.8204 39.9943L31.6318 41.8644L29.3069 40.8361L27.8613 43.1105L29.7793 44.779L28.6978 46.4806L18.204 37.1615L19.928 34.4491ZM21.0784 37.2143L26.4243 41.8658L27.5593 40.08L21.0784 37.2143Z" fill="#B68E6A"/>
<path fill-rule="evenodd" clip-rule="evenodd" d="M25.8349 27.1228L27.3907 25.5732L37.1684 35.3897L35.6126 36.9393L31.6736 32.9847C31.6973 33.6874 31.4357 34.3111 30.8888 34.8558C30.2665 35.4757 29.5855 35.749 28.8457 35.6757C28.1058 35.6024 27.3914 35.2199 26.7023 34.528L22.5677 30.3771L24.1235 28.8274L28.1324 32.8522C28.449 33.1701 28.7736 33.3263 29.1063 33.3208C29.439 33.3154 29.7374 33.1812 30.0014 32.9182C30.256 32.6646 30.3678 32.3809 30.337 32.0671C30.3062 31.7533 30.1278 31.4327 29.8019 31.1055L25.8349 27.1228Z" fill="#B68E6A"/>
<path fill-rule="evenodd" clip-rule="evenodd" d="M34.3157 23.1319L36.4219 26.3662L38.9479 24.7213L40.028 26.3799L37.502 28.0248L39.7162 31.425L42.8946 29.3552L43.9747 31.0139L38.9562 34.2819L31.3955 22.6715L36.414 19.4035L37.4941 21.0621L34.3157 23.1319Z" fill="#B68E6A"/>
<path fill-rule="evenodd" clip-rule="evenodd" d="M42.9352 16.5087C43.9889 16.097 44.8522 16.0395 45.5254 16.3361C46.1985 16.6327 46.7319 17.285 47.1257 18.2928L47.3057 18.7537C47.8243 20.0811 47.7228 21.1195 47.0012 21.869C48.1713 21.8651 49.0397 22.5884 49.6063 24.0387L50.0168 25.0895C50.4058 26.0851 50.4389 26.9469 50.1161 27.6751C49.7934 28.4033 49.1238 28.9659 48.1073 29.3631L44.8906 30.6198L39.8486 17.7146L42.9352 16.5087ZM45.5782 23.6573L44.6671 24.0132L46.2157 27.977L47.3871 27.5193C47.7466 27.3789 47.9759 27.1795 48.075 26.9212C48.1741 26.6629 48.1325 26.3002 47.95 25.8332L47.5106 24.7086C47.2801 24.1186 47.0182 23.7499 46.7248 23.6024C46.4315 23.455 46.0493 23.4732 45.5782 23.6573ZM43.5996 18.374L42.6141 18.759L43.9466 22.1696L44.7462 21.8573C45.1552 21.6975 45.4212 21.4731 45.5441 21.1843C45.667 20.8954 45.6324 20.5052 45.4404 20.0136L45.1594 19.2946C44.8137 18.4096 44.2938 18.1028 43.5996 18.374Z" fill="#B68E6A"/>
<path fill-rule="evenodd" clip-rule="evenodd" d="M55.5228 22.218L57.572 21.885L57.8674 23.7019C58.0473 24.809 57.9096 25.7036 57.4542 26.3859C56.9988 27.0682 56.2457 27.4948 55.1948 27.6656C54.1439 27.8364 53.2945 27.6703 52.6464 27.1674C51.9984 26.6644 51.5844 25.8594 51.4045 24.7524L50.2486 17.641C50.0686 16.5339 50.2064 15.6392 50.6617 14.9569C51.1171 14.2746 51.8703 13.8481 52.9211 13.6773C53.972 13.5065 54.8215 13.6725 55.4695 14.1755C56.1175 14.6784 56.5315 15.4834 56.7115 16.5905L56.9274 17.919L54.8782 18.2521L54.64 16.7868C54.494 15.8881 54.0466 15.4996 53.2978 15.6213C52.5491 15.743 52.2477 16.2532 52.3938 17.1519L53.5941 24.5368C53.7381 25.4225 54.1844 25.8045 54.9332 25.6828C55.6819 25.5611 55.9843 25.0574 55.8404 24.1717L55.5228 22.218Z" fill="#B68E6A"/>
<path fill-rule="evenodd" clip-rule="evenodd" d="M64.3108 27.0427L62.4845 21.4104L61.7365 22.6376L61.5004 26.8866L59.3079 26.7648L60.0765 12.9309L62.269 13.0527L61.9342 19.0803L65.1392 13.2122L67.3317 13.334L63.9396 19.3305L66.5631 27.1679L64.3108 27.0427Z" fill="#B68E6A"/>
<path fill-rule="evenodd" clip-rule="evenodd" d="M72.7742 22.3304L69.2419 27.9218L67.0753 27.294L70.9313 13.9862L72.8103 14.5307L70.37 22.9526L71.9853 20.2471L75.3029 15.2529L77.6229 15.9252L73.7669 29.233L71.8687 28.6829L74.5845 19.3104L72.7742 22.3304Z" fill="#B68E6A"/>
<path fill-rule="evenodd" clip-rule="evenodd" d="M82.2778 20.3017L80.4677 23.7105L83.1299 25.1242L82.2017 26.8724L79.5394 25.4587L77.6364 29.0423L80.9863 30.8212L80.058 32.5693L74.7687 29.7606L81.2667 17.5237L86.556 20.3324L85.6277 22.0805L82.2778 20.3017Z" fill="#B68E6A"/>
<path fill-rule="evenodd" clip-rule="evenodd" d="M86.0679 37.5605L83.6394 35.0771L93.5453 25.39L97.8441 29.7859L96.4289 31.1698L93.6654 28.3438L91.1324 30.821L92.0256 31.7344C92.7886 32.5146 93.1556 33.3098 93.1266 34.12C93.0975 34.9302 92.6868 35.7227 91.8943 36.4977L90.833 37.5356C90.0405 38.3106 89.2389 38.7035 88.4283 38.7144C87.6177 38.7254 86.8309 38.3407 86.0679 37.5605ZM86.5901 35.263L87.4833 36.1764C88.0044 36.7092 88.5762 36.6712 89.1989 36.0623L90.4584 34.8307C91.081 34.2218 91.1318 33.6509 90.6108 33.1181L89.7175 32.2046L86.5901 35.263Z" fill="#B68E6A"/>
<path fill-rule="evenodd" clip-rule="evenodd" d="M103.264 37.6873L92.6608 46.8812L91.4944 44.9971L93.4321 43.3515L92.0136 41.0601L89.6766 42.0607L88.6154 40.3464L101.573 34.9546L103.264 37.6873ZM100.274 37.5194L93.7594 40.3079L94.8732 42.1071L100.274 37.5194Z" fill="#B68E6A"/>
<path fill-rule="evenodd" clip-rule="evenodd" d="M99.984 48.1547L94.3697 50.0883L93.6546 48.0121L106.755 43.5004L107.47 45.5766L101.855 47.5102L102.668 49.8695L108.282 47.9359L109.01 50.0498L95.9103 54.5616L95.1823 52.4476L100.797 50.514L99.984 48.1547Z" fill="#B68E6A"/>
<path fill-rule="evenodd" clip-rule="evenodd" d="M102.121 58.1664L95.6067 57.0268L95.3631 54.7842L109.137 53.2878L109.348 55.2327L100.631 56.1797L103.748 56.6443L109.629 57.8127L109.89 60.214L96.1155 61.7104L95.902 59.7456L105.603 58.6918L102.121 58.1664Z" fill="#B68E6A"/>
<path d="M12.2273 68.7893H31.7314V69.7645H12.2273V68.7893Z" fill="#B68E6A"/>
<path d="M91.219 68.7893H110.723V69.7645H91.219V68.7893Z" fill="#B68E6A"/>
<path fill-rule="evenodd" clip-rule="evenodd" d="M79.4542 47.7969C79.5253 47.9196 79.5362 48.0686 79.4837 48.2005C78.8845 49.6976 77.3184 53.0776 74.8422 54.6987C76.0822 55.163 77.283 55.7281 78.4329 56.3886C78.5531 56.4601 78.6343 56.5835 78.6529 56.7234C78.6715 56.8632 78.6255 57.0039 78.5282 57.105C77.3434 58.3289 74.5289 60.9695 71.492 61.7915C72.5792 62.3839 73.6183 63.0626 74.5993 63.8213C74.7092 63.9083 74.7735 64.0417 74.7735 64.1829C74.7735 64.3242 74.7092 64.4575 74.5993 64.5446C72.2365 66.4251 68.8909 68.4618 65.7474 68.1151C66.151 68.8432 66.5155 69.5929 66.8391 70.3608C66.8914 70.4893 66.8833 70.6348 66.8171 70.7566C66.751 70.8784 66.6339 70.9633 66.4987 70.9876L66.4945 70.9883C66.2723 71.0269 62.4744 71.6854 59.5896 71.0014C59.5955 71.6691 59.5729 72.1358 59.5664 72.2709C59.5653 72.2933 59.5646 72.3066 59.5646 72.3102C59.5536 72.4733 59.4576 72.6181 59.3127 72.6905C59.1678 72.7629 58.9957 72.7518 58.861 72.6615C57.3517 71.6856 55.3021 70.1243 53.8676 68.1036C53.4757 68.471 53.0891 68.8369 52.7078 69.2012C53.0496 69.8603 52.9216 70.6683 52.3933 71.1863C51.865 71.7043 51.0627 71.8085 50.4222 71.4423C49.5325 72.3355 48.6541 73.2424 47.8007 74.1471C48.1483 74.7815 48.0525 75.5702 47.5634 76.1006C47.0743 76.631 46.3032 76.7823 45.6535 76.4754C44.623 77.6097 43.5767 78.7969 42.4418 80.1011C42.235 80.3395 41.9398 80.4807 41.6263 80.4911C41.3129 80.5016 41.0092 80.3803 40.7872 80.1562L38.8897 78.2389C38.4682 77.8119 38.4454 77.1277 38.8375 76.6729C39.9724 75.3503 41.055 74.1471 42.1218 72.9669C41.7573 72.3253 41.8504 71.518 42.3512 70.9786C42.8521 70.4391 43.6427 70.2946 44.2985 70.6225C45.1746 69.6949 46.0643 68.7764 46.9563 67.8832C46.6617 67.2446 46.7892 66.4881 47.2764 65.9843C47.783 65.4667 48.563 65.3412 49.2034 65.6743C49.5915 65.3023 49.9841 64.9303 50.3768 64.563C48.3454 63.1072 46.7793 61.0108 45.7988 59.4517C45.7082 59.3127 45.699 59.135 45.7749 58.9873C45.8507 58.8395 45.9997 58.7449 46.1642 58.7399L46.187 58.7392L46.2081 58.7385L46.2085 58.7384H46.2086C46.3496 58.7334 46.8101 58.7169 47.4579 58.7169C46.7702 55.7778 47.4398 51.9019 47.4716 51.7274C47.4956 51.5906 47.5795 51.4721 47.6999 51.4052C47.8203 51.3383 47.9642 51.3301 48.0912 51.383C48.8467 51.7135 49.584 52.0852 50.2996 52.4966C49.9614 49.3165 51.9724 45.9296 53.8313 43.5416C53.9206 43.4365 54.0507 43.3761 54.1877 43.3761C54.3246 43.3761 54.4548 43.4365 54.544 43.5416C55.294 44.5354 55.9656 45.5872 56.5527 46.6873C57.3653 43.6128 59.9732 40.7633 61.183 39.5692C61.2829 39.4708 61.422 39.4243 61.5602 39.4431C61.6985 39.4619 61.8205 39.544 61.8911 39.6657C62.546 40.8274 63.1055 42.0415 63.5639 43.2959C65.1618 40.7816 68.5028 39.1973 69.9895 38.5911C70.1232 38.5366 70.2746 38.5497 70.3973 38.6262C70.52 38.7028 70.5995 38.8338 70.6114 38.9791C70.7283 40.0517 70.7692 41.1314 70.734 42.2098C72.9265 40.4005 76.3788 39.8448 77.9063 39.6841C78.0426 39.6694 78.1782 39.7179 78.2752 39.816C78.3722 39.9141 78.4201 40.0513 78.4056 40.1892C78.2104 42.0973 77.6294 45.3395 75.9271 47.4451C76.9933 47.409 78.0606 47.452 79.1206 47.5737C79.26 47.5918 79.3832 47.6743 79.4542 47.7969ZM46.4798 72.7213L47.2084 73.4584C48.0323 72.5789 48.8789 71.7041 49.7369 70.8499L48.9992 70.1014C48.164 70.9556 47.3083 71.8465 46.4798 72.7213ZM47.5214 68.6089L48.3567 69.4539C47.5214 70.3058 46.6657 71.1967 45.8373 72.0715L44.9929 71.215C45.8214 70.3264 46.6748 69.4539 47.5214 68.602V68.6089ZM42.7188 73.6604C41.677 74.8039 40.6284 75.9887 39.5207 77.27C39.4373 77.3624 39.4423 77.5053 39.5321 77.5914L40.2539 78.3147C41.0233 77.348 42.1536 76.0507 43.5586 74.51L42.7188 73.6604ZM41.7587 79.4903C41.7158 79.5367 41.6558 79.563 41.593 79.563C41.5302 79.563 41.4702 79.5367 41.4273 79.4903L40.9007 78.9691C41.652 78.0208 42.7823 76.7189 44.2032 75.1644L44.934 75.9037C43.9149 77.0243 42.8709 78.2022 41.7587 79.4903ZM45.8488 75.5225C46.1491 75.7778 46.5919 75.7609 46.8724 75.4835C47.1615 75.1934 47.1675 74.7225 46.8861 74.4249L44.0829 71.5892C43.8928 71.3972 43.6158 71.3225 43.3564 71.3931C43.097 71.4637 42.8946 71.669 42.8253 71.9315C42.7561 72.1941 42.8306 72.4741 43.0207 72.6661L43.0631 72.709L43.0649 72.7108C43.4222 73.0728 45.8129 75.4947 45.8488 75.5225ZM51.2371 70.7488C51.0352 70.7486 50.842 70.6658 50.7014 70.5192L49.3169 69.1185L49.2925 69.0939L49.2923 69.0936L49.2916 69.093L49.2914 69.0927C49.0995 68.8988 47.9103 67.6974 47.8893 67.6696C47.6106 67.3718 47.6167 66.9038 47.903 66.6135C48.1894 66.3233 48.652 66.3161 48.947 66.5973C49.0423 66.6846 51.6933 69.3688 51.7841 69.4629C51.9907 69.6841 52.0474 70.0083 51.9285 70.2878C51.8096 70.5673 51.5379 70.7485 51.2371 70.7488ZM71.4967 54.6253C72.0755 54.7677 72.7519 54.6804 73.5122 54.3681C75.8024 53.3555 77.3957 50.7448 78.408 48.4211C76.6399 48.2764 74.2635 48.2994 72.6043 48.9125C72.3802 48.9673 72.1511 48.8434 72.0716 48.6244C71.9921 48.4055 72.0875 48.161 72.2934 48.056C73.0282 47.7998 73.7898 47.6303 74.5631 47.5508C76.4924 45.8884 77.1937 42.52 77.4388 40.6624C75.5935 40.9103 72.2661 41.6222 70.6297 43.5739C70.5485 44.3758 70.3733 45.1651 70.1076 45.9252C70.0634 46.0949 69.9273 46.2242 69.7571 46.2584C69.587 46.2926 69.4124 46.2257 69.3074 46.086C69.2023 45.9462 69.1852 45.7582 69.2633 45.6014C69.8875 43.9137 69.9079 41.4798 69.7672 39.6819C68.0013 40.4695 64.8873 42.1595 63.884 44.6347C63.5731 45.4062 63.4868 46.0928 63.6276 46.6806C63.6865 46.9273 63.5366 47.1755 63.2928 47.2351C63.049 47.2947 62.8036 47.1431 62.7446 46.8964C62.5774 46.0747 62.6613 45.221 62.9852 44.4487C62.5665 43.1389 62.0349 41.8689 61.3964 40.6532C60.0732 42.0378 57.3767 45.2156 57.2224 48.2007C57.233 48.8235 57.2915 49.4446 57.3972 50.0583C57.4552 50.2288 57.4091 50.418 57.2794 50.5418C57.1496 50.6655 56.9603 50.701 56.7953 50.6324C56.6304 50.5638 56.5204 50.4039 56.5142 50.2236C56.4046 49.5854 56.3409 48.94 56.3236 48.2925C55.736 46.9907 55.0212 45.7515 54.1901 44.5934C52.4265 46.9768 50.563 50.4096 51.3824 53.2821C51.4779 53.6432 51.6312 53.986 51.8363 54.297C51.9361 54.4309 51.9557 54.6091 51.8877 54.762C51.8196 54.9148 51.6746 55.018 51.5094 55.0311C51.3442 55.0443 51.185 54.9653 51.0941 54.8251C50.8616 54.4831 50.681 54.1077 50.5585 53.7114C49.822 53.2526 49.0612 52.8349 48.2797 52.46C48.1072 53.7551 47.8076 56.8778 48.4885 59.0362C48.5341 59.1797 48.5073 59.3366 48.4167 59.4562C48.3261 59.5757 48.1833 59.6428 48.0346 59.6355H47.0109C47.8848 60.9191 49.292 62.6894 51.0374 63.9041C53.7724 60.8869 54.3421 58.9008 54.3421 56.8687C54.3421 56.615 54.5454 56.4094 54.7961 56.4094C55.0468 56.4094 55.25 56.615 55.25 56.8687C55.2622 57.7679 55.135 58.6636 54.8732 59.523C55.6837 58.825 56.2949 57.9205 56.6436 56.9031C56.6939 56.7468 56.8228 56.6296 56.9817 56.5955C57.1406 56.5614 57.3054 56.6157 57.4141 56.7378C57.5227 56.86 57.5587 57.0316 57.5084 57.1878C56.9977 58.7676 55.7652 60.2279 54.1991 61.1235C53.4319 62.471 52.5009 63.716 51.4278 64.8295C51.4278 64.8295 50.6062 65.5941 49.9071 66.2623L50.7106 67.0751C53.9829 63.9265 57.517 61.0688 61.2739 58.5334C61.0832 54.2993 62.3633 51.1857 65.4161 48.5083C65.5407 48.3985 65.7146 48.3658 65.8699 48.4232C66.0252 48.4805 66.1374 48.6186 66.1628 48.7839C66.6531 52.0467 65.811 54.4669 64.1723 56.6873C65.4918 55.8928 66.812 55.1626 68.133 54.4967C68.3568 54.3837 68.6288 54.4751 68.7413 54.7011C68.7955 54.8103 68.8044 54.937 68.7661 55.0529C68.7277 55.1688 68.6453 55.2645 68.537 55.3188C65.5851 56.8201 62.7504 58.5465 60.0573 60.4828C61.9911 60.1177 63.8001 60.2922 65.861 61.0018C66.0097 61.0528 66.1217 61.1779 66.1573 61.3326C66.1929 61.4873 66.1469 61.6496 66.0357 61.7618C63.5844 64.2416 60.2094 64.4276 57.6968 62.2394C55.4834 63.9452 53.3655 65.7743 51.3529 67.718L52.1291 68.5125C52.6239 68.0395 53.1324 67.5596 53.6453 67.0843C53.7437 66.9955 53.8753 66.9544 54.006 66.9716C54.1367 66.9888 54.2536 67.0626 54.3262 67.1738C55.4883 68.9832 57.2292 70.4436 58.6818 71.4516C58.6907 71.2631 58.688 71.0484 58.6851 70.8124V70.8124V70.8123C58.6835 70.686 58.6818 70.5537 58.6818 70.416C58.6747 70.2655 58.7409 70.1211 58.8591 70.0294C58.9774 69.9378 59.1325 69.9107 59.2742 69.9568C61.4078 70.6548 64.5037 70.3425 65.7747 70.168C65.4103 69.3751 65.0042 68.6025 64.5582 67.8535C64.1665 67.7296 63.7954 67.5469 63.4573 67.3116C63.3187 67.2197 63.2407 67.0587 63.2537 66.8915C63.2667 66.7244 63.3686 66.5777 63.5197 66.5089C63.6708 66.44 63.847 66.4599 63.9794 66.5608C64.2863 66.7691 64.6253 66.9243 64.9826 67.02C67.9559 67.8879 71.474 65.7686 73.5712 64.1796C72.4259 63.3403 71.201 62.6181 69.9147 62.0235C69.2746 62.0061 68.6367 61.9417 68.0059 61.8307C67.8421 61.8071 67.704 61.6953 67.6454 61.5389C67.5867 61.3825 67.6168 61.2061 67.7239 61.0786C67.831 60.9511 67.9981 60.8927 68.1602 60.926C68.767 61.0323 69.3808 61.0921 69.9964 61.1051C72.9561 60.9444 76.0929 58.2188 77.4547 56.8824C76.2522 56.2366 74.996 55.6988 73.7006 55.2751C72.9372 55.6028 72.0933 55.6877 71.2811 55.5185C71.1234 55.4796 70.9982 55.3584 70.9527 55.2008C70.9072 55.0431 70.9483 54.8729 71.0605 54.7542C71.1727 54.6355 71.339 54.5863 71.4967 54.6253ZM58.6135 61.8146C60.7947 61.0913 62.6809 61.0362 64.8167 61.6424C62.8829 63.1992 60.5269 63.2635 58.6135 61.8146ZM62.1637 57.6677C62.1796 54.453 63.1919 51.9709 65.3686 49.801C65.5796 52.6482 64.6309 54.9743 62.1637 57.6677Z" fill="#B68E6A"/>
<path fill-rule="evenodd" clip-rule="evenodd" d="M43.4127 97.0195H42L46.7797 85.5411H44.6606L45.1433 84.3403H48.6869L43.4127 97.0195ZM52.9909 92.4519C52.5593 92.5931 52.1511 92.6638 51.7666 92.6638C50.9425 92.6638 50.2439 92.3969 49.671 91.8632C49.0353 91.2667 48.7174 90.5094 48.7174 89.5911C48.7174 88.8926 48.8744 88.2058 49.1883 87.5308C49.5258 86.8088 49.9928 86.1691 50.5893 85.6119C51.5311 84.7328 52.5671 84.2933 53.6973 84.2933C54.8353 84.2933 55.7144 84.7014 56.3344 85.5177C56.7661 86.0906 56.9819 86.7578 56.9819 87.5191C56.9819 88.0606 56.8406 88.6728 56.5581 89.3556C56.2755 90.0384 55.8831 90.7095 55.3808 91.3688L51.0602 97.0668H49.4591L52.9909 92.4519ZM53.6266 85.5412C52.8731 85.549 52.1393 85.9022 51.4251 86.6007C51.0091 87.0088 50.6775 87.4758 50.4303 88.0017C50.1831 88.5275 50.0594 89.0337 50.0594 89.5204C50.0594 90.0227 50.2282 90.474 50.5657 90.8742C50.9267 91.2981 51.4369 91.51 52.0961 91.51C52.8104 91.51 53.4932 91.2117 54.1446 90.6152C54.5841 90.215 54.9412 89.744 55.2159 89.2025C55.4906 88.6609 55.6397 88.1312 55.6633 87.6132C55.6868 87.0559 55.5181 86.5811 55.1571 86.1887C54.7568 85.757 54.2466 85.5412 53.6266 85.5412ZM64.1348 88.7434C64.8725 89.0652 65.4082 89.4733 65.7418 89.9678C66.0753 90.4622 66.2421 91.1019 66.2421 91.8867C66.2421 93.119 65.8458 94.2217 65.0531 95.1949C64.0563 96.4271 62.7809 97.0432 61.2269 97.0432C60.238 97.0432 59.4453 96.8117 58.8488 96.3486C58.2445 95.8777 57.9423 95.1871 57.9423 94.2766C57.9423 93.7743 58.0875 93.1975 58.3779 92.546H59.8966C59.5669 93.0954 59.4021 93.5859 59.4021 94.0176C59.4021 94.5592 59.5787 94.9928 59.9319 95.3185C60.2851 95.6442 60.7599 95.8071 61.3564 95.8071C62.416 95.8071 63.3185 95.3323 64.0641 94.3826C64.6371 93.6448 64.9236 92.8325 64.9236 91.9456C64.9236 91.0195 64.5508 90.3484 63.8051 89.9325C63.3421 89.6735 62.8045 89.544 62.1923 89.544C62.0589 89.544 61.8548 89.5597 61.5801 89.5911L65.5475 85.3411H61.3211L61.8155 84.1403H68.3848L64.1348 88.7434ZM75.9969 92.7226H77.9511L77.4684 93.8881H75.4906L74.1603 97.0785H72.7711L74.0779 93.8881H68.427L68.8155 92.8638L77.233 84.3639H79.4816L75.9969 92.7226ZM77.4685 85.8472L70.6756 92.7225H74.5488L77.4685 85.8472Z" fill="#B68E6A"/>
</svg>
