<svg width="64" height="64" viewBox="0 0 64 64" fill="none" xmlns="http://www.w3.org/2000/svg">
<g id="Logo ">
<g id="Oval">
<path fill-rule="evenodd" clip-rule="evenodd" d="M0 32C0 49.6731 14.3269 64 32 64C49.6731 64 64 49.6731 64 32C64 14.3269 49.6731 0 32 0C14.3269 0 0 14.3269 0 32ZM62.4133 32C62.4133 48.7968 48.7968 62.4133 32 62.4133C15.2033 62.4133 1.58682 48.7968 1.58682 32C1.58682 15.2033 15.2033 1.58682 32 1.58682C48.7968 1.58682 62.4133 15.2033 62.4133 32Z" fill="#2E2C2B"/>
<path fill-rule="evenodd" clip-rule="evenodd" d="M0 32C0 49.6731 14.3269 64 32 64C49.6731 64 64 49.6731 64 32C64 14.3269 49.6731 0 32 0C14.3269 0 0 14.3269 0 32ZM62.4133 32C62.4133 48.7968 48.7968 62.4133 32 62.4133C15.2033 62.4133 1.58682 48.7968 1.58682 32C1.58682 15.2033 15.2033 1.58682 32 1.58682C48.7968 1.58682 62.4133 15.2033 62.4133 32Z" fill="#2E2C2B"/>
</g>
<g id="Oval_2">
<path fill-rule="evenodd" clip-rule="evenodd" d="M3.62384 31.7421C3.62384 47.5563 16.4438 60.3763 32.258 60.3763C48.0721 60.3763 60.8921 47.5563 60.8921 31.7421C60.8921 15.928 48.0721 3.10803 32.258 3.10803C16.4438 3.10803 3.62384 15.928 3.62384 31.7421ZM60.363 31.7421C60.363 47.2642 47.7799 59.8473 32.2578 59.8473C16.7358 59.8473 4.15264 47.2642 4.15264 31.7421C4.15264 16.22 16.7358 3.63691 32.2578 3.63691C47.7799 3.63691 60.363 16.22 60.363 31.7421Z" fill="#2E2C2B"/>
<path fill-rule="evenodd" clip-rule="evenodd" d="M3.62384 31.7421C3.62384 47.5563 16.4438 60.3763 32.258 60.3763C48.0721 60.3763 60.8921 47.5563 60.8921 31.7421C60.8921 15.928 48.0721 3.10803 32.258 3.10803C16.4438 3.10803 3.62384 15.928 3.62384 31.7421ZM60.363 31.7421C60.363 47.2642 47.7799 59.8473 32.2578 59.8473C16.7358 59.8473 4.15264 47.2642 4.15264 31.7421C4.15264 16.22 16.7358 3.63691 32.2578 3.63691C47.7799 3.63691 60.363 16.22 60.363 31.7421Z" fill="#2E2C2B"/>
</g>
<g id="Group">
<g id="&#209;&#131;">
<path fill-rule="evenodd" clip-rule="evenodd" d="M6.52587 27.1138L11.7651 29.1057C12.4496 29.3508 12.9146 29.654 13.16 30.0154C13.4053 30.3767 13.4506 30.9339 13.2958 31.687L12.2798 31.5446C12.3445 31.2339 12.3465 30.9925 12.2861 30.8205C12.2256 30.6486 12.0738 30.5243 11.8309 30.4476L11.7701 30.4284L5.94885 31.2337L6.10848 30.0939L8.67428 29.8136L10.4244 29.6962L8.77252 29.1876L6.35745 28.3163L6.52587 27.1138Z" fill="#2E2C2B"/>
<path fill-rule="evenodd" clip-rule="evenodd" d="M6.52587 27.1138L11.7651 29.1057C12.4496 29.3508 12.9146 29.654 13.16 30.0154C13.4053 30.3767 13.4506 30.9339 13.2958 31.687L12.2798 31.5446C12.3445 31.2339 12.3465 30.9925 12.2861 30.8205C12.2256 30.6486 12.0738 30.5243 11.8309 30.4476L11.7701 30.4284L5.94885 31.2337L6.10848 30.0939L8.67428 29.8136L10.4244 29.6962L8.77252 29.1876L6.35745 28.3163L6.52587 27.1138Z" fill="#2E2C2B"/>
</g>
<g id="&#209;&#129;">
<path fill-rule="evenodd" clip-rule="evenodd" d="M11.8686 25.3616L12.2491 24.3315L13.1624 24.6689C13.7189 24.8744 14.0949 25.1709 14.2903 25.5582C14.4858 25.9456 14.4859 26.4034 14.2908 26.9316C14.0957 27.4599 13.798 27.8077 13.3977 27.975C12.9973 28.1423 12.5189 28.1231 11.9624 27.9176L8.38773 26.5972C7.83122 26.3917 7.45525 26.0952 7.25979 25.7079C7.06434 25.3205 7.06417 24.8627 7.25928 24.3344C7.4544 23.8062 7.75212 23.4584 8.15245 23.2911C8.55278 23.1238 9.03118 23.1429 9.58769 23.3485L10.2555 23.5952L9.87501 24.6252L9.13847 24.3532C8.68672 24.1863 8.39134 24.2911 8.25232 24.6675C8.1133 25.0438 8.26966 25.3155 8.72141 25.4823L12.4336 26.8535C12.8788 27.0179 13.1709 26.9119 13.3099 26.5356C13.4489 26.1592 13.2959 25.8888 12.8507 25.7243L11.8686 25.3616Z" fill="#2E2C2B"/>
<path fill-rule="evenodd" clip-rule="evenodd" d="M11.8686 25.3616L12.2491 24.3315L13.1624 24.6689C13.7189 24.8744 14.0949 25.1709 14.2903 25.5582C14.4858 25.9456 14.4859 26.4034 14.2908 26.9316C14.0957 27.4599 13.798 27.8077 13.3977 27.975C12.9973 28.1423 12.5189 28.1231 11.9624 27.9176L8.38773 26.5972C7.83122 26.3917 7.45525 26.0952 7.25979 25.7079C7.06434 25.3205 7.06417 24.8627 7.25928 24.3344C7.4544 23.8062 7.75212 23.4584 8.15245 23.2911C8.55278 23.1238 9.03118 23.1429 9.58769 23.3485L10.2555 23.5952L9.87501 24.6252L9.13847 24.3532C8.68672 24.1863 8.39134 24.2911 8.25232 24.6675C8.1133 25.0438 8.26966 25.3155 8.72141 25.4823L12.4336 26.8535C12.8788 27.0179 13.1709 26.9119 13.3099 26.5356C13.4489 26.1592 13.2959 25.8888 12.8507 25.7243L11.8686 25.3616Z" fill="#2E2C2B"/>
</g>
<g id="&#208;&#176;">
<path fill-rule="evenodd" clip-rule="evenodd" d="M10.5405 18.221L17.3596 21.154L16.731 22.1431L15.5012 21.5992L14.7366 22.8022L15.7511 23.6847L15.1791 24.5847L9.62861 19.6556L10.5405 18.221ZM11.1489 19.6837L13.9765 22.1439L14.5769 21.1994L11.1489 19.6837Z" fill="#2E2C2B"/>
<path fill-rule="evenodd" clip-rule="evenodd" d="M10.5405 18.221L17.3596 21.154L16.731 22.1431L15.5012 21.5992L14.7366 22.8022L15.7511 23.6847L15.1791 24.5847L9.62861 19.6556L10.5405 18.221ZM11.1489 19.6837L13.9765 22.1439L14.5769 21.1994L11.1489 19.6837Z" fill="#2E2C2B"/>
</g>
<g id="&#209;&#135;">
<path fill-rule="evenodd" clip-rule="evenodd" d="M13.6648 14.346L14.4877 13.5264L19.6594 18.7185L18.8365 19.5382L16.753 17.4465C16.7656 17.8182 16.6272 18.1481 16.3379 18.4362C16.0088 18.764 15.6486 18.9086 15.2573 18.8698C14.866 18.8311 14.4881 18.6287 14.1236 18.2628L11.9367 16.0673L12.7596 15.2476L14.88 17.3764C15.0475 17.5445 15.2192 17.6272 15.3951 17.6243C15.5711 17.6214 15.7289 17.5504 15.8685 17.4113C16.0032 17.2772 16.0624 17.1271 16.0461 16.9612C16.0298 16.7952 15.9354 16.6256 15.763 16.4526L13.6648 14.346Z" fill="#2E2C2B"/>
<path fill-rule="evenodd" clip-rule="evenodd" d="M13.6648 14.346L14.4877 13.5264L19.6594 18.7185L18.8365 19.5382L16.753 17.4465C16.7656 17.8182 16.6272 18.1481 16.3379 18.4362C16.0088 18.764 15.6486 18.9086 15.2573 18.8698C14.866 18.8311 14.4881 18.6287 14.1236 18.2628L11.9367 16.0673L12.7596 15.2476L14.88 17.3764C15.0475 17.5445 15.2192 17.6272 15.3951 17.6243C15.5711 17.6214 15.7289 17.5504 15.8685 17.4113C16.0032 17.2772 16.0624 17.1271 16.0461 16.9612C16.0298 16.7952 15.9354 16.6256 15.763 16.4526L13.6648 14.346Z" fill="#2E2C2B"/>
</g>
<g id="&#208;&#181;">
<path fill-rule="evenodd" clip-rule="evenodd" d="M18.1505 12.2351L19.2645 13.9458L20.6005 13.0757L21.1718 13.953L19.8358 14.8231L21.0069 16.6215L22.6881 15.5268L23.2594 16.4041L20.605 18.1326L16.6059 11.9916L19.2603 10.263L19.8316 11.1403L18.1505 12.2351Z" fill="#2E2C2B"/>
<path fill-rule="evenodd" clip-rule="evenodd" d="M18.1505 12.2351L19.2645 13.9458L20.6005 13.0757L21.1718 13.953L19.8358 14.8231L21.0069 16.6215L22.6881 15.5268L23.2594 16.4041L20.605 18.1326L16.6059 11.9916L19.2603 10.263L19.8316 11.1403L18.1505 12.2351Z" fill="#2E2C2B"/>
</g>
<g id="&#208;&#178;">
<path fill-rule="evenodd" clip-rule="evenodd" d="M22.7096 8.7318C23.2669 8.51406 23.7236 8.48364 24.0796 8.64052C24.4356 8.7974 24.7178 9.14238 24.926 9.67545L25.0213 9.91923C25.2956 10.6213 25.2419 11.1706 24.8602 11.567C25.4791 11.565 25.9384 11.9475 26.2381 12.7146L26.4552 13.2704C26.661 13.797 26.6785 14.2528 26.5078 14.638C26.3371 15.0232 25.9829 15.3208 25.4453 15.5308L23.7439 16.1955L21.077 9.36963L22.7096 8.7318ZM24.1075 12.5129L23.6256 12.7012L24.4447 14.7977L25.0643 14.5556C25.2544 14.4813 25.3757 14.3759 25.4281 14.2393C25.4806 14.1026 25.4585 13.9108 25.362 13.6638L25.1296 13.0689C25.0077 12.7569 24.8692 12.5619 24.714 12.4839C24.5588 12.4059 24.3567 12.4156 24.1075 12.5129ZM23.061 9.71843L22.5397 9.92207L23.2445 11.7261L23.6674 11.5608C23.8838 11.4763 24.0245 11.3577 24.0895 11.2049C24.1545 11.0521 24.1362 10.8457 24.0346 10.5856L23.886 10.2053C23.7031 9.73728 23.4281 9.57498 23.061 9.71843Z" fill="#2E2C2B"/>
<path fill-rule="evenodd" clip-rule="evenodd" d="M22.7096 8.7318C23.2669 8.51406 23.7236 8.48364 24.0796 8.64052C24.4356 8.7974 24.7178 9.14238 24.926 9.67545L25.0213 9.91923C25.2956 10.6213 25.2419 11.1706 24.8602 11.567C25.4791 11.565 25.9384 11.9475 26.2381 12.7146L26.4552 13.2704C26.661 13.797 26.6785 14.2528 26.5078 14.638C26.3371 15.0232 25.9829 15.3208 25.4453 15.5308L23.7439 16.1955L21.077 9.36963L22.7096 8.7318ZM24.1075 12.5129L23.6256 12.7012L24.4447 14.7977L25.0643 14.5556C25.2544 14.4813 25.3757 14.3759 25.4281 14.2393C25.4806 14.1026 25.4585 13.9108 25.362 13.6638L25.1296 13.0689C25.0077 12.7569 24.8692 12.5619 24.714 12.4839C24.5588 12.4059 24.3567 12.4156 24.1075 12.5129ZM23.061 9.71843L22.5397 9.92207L23.2445 11.7261L23.6674 11.5608C23.8838 11.4763 24.0245 11.3577 24.0895 11.2049C24.1545 11.0521 24.1362 10.8457 24.0346 10.5856L23.886 10.2053C23.7031 9.73728 23.4281 9.57498 23.061 9.71843Z" fill="#2E2C2B"/>
</g>
<g id="&#209;&#129;_2">
<path fill-rule="evenodd" clip-rule="evenodd" d="M29.3675 11.7517L30.4514 11.5755L30.6076 12.5365C30.7028 13.1221 30.6299 13.5953 30.3891 13.9562C30.1482 14.3171 29.7499 14.5427 29.194 14.633C28.6382 14.7234 28.1889 14.6356 27.8461 14.3695C27.5034 14.1035 27.2844 13.6777 27.1892 13.0922L26.5778 9.33078C26.4827 8.74521 26.5555 8.27199 26.7964 7.91111C27.0372 7.55023 27.4356 7.32462 27.9914 7.23427C28.5473 7.14393 28.9966 7.23176 29.3393 7.49778C29.6821 7.7638 29.901 8.18959 29.9962 8.77515L30.1104 9.47783L29.0266 9.654L28.9006 8.87899C28.8233 8.40365 28.5867 8.19817 28.1906 8.26254C27.7946 8.32691 27.6352 8.59676 27.7125 9.07211L28.3474 12.9782C28.4235 13.4466 28.6596 13.6487 29.0556 13.5843C29.4517 13.5199 29.6116 13.2535 29.5355 12.785L29.3675 11.7517Z" fill="#2E2C2B"/>
<path fill-rule="evenodd" clip-rule="evenodd" d="M29.3675 11.7517L30.4514 11.5755L30.6076 12.5365C30.7028 13.1221 30.6299 13.5953 30.3891 13.9562C30.1482 14.3171 29.7499 14.5427 29.194 14.633C28.6382 14.7234 28.1889 14.6356 27.8461 14.3695C27.5034 14.1035 27.2844 13.6777 27.1892 13.0922L26.5778 9.33078C26.4827 8.74521 26.5555 8.27199 26.7964 7.91111C27.0372 7.55023 27.4356 7.32462 27.9914 7.23427C28.5473 7.14393 28.9966 7.23176 29.3393 7.49778C29.6821 7.7638 29.901 8.18959 29.9962 8.77515L30.1104 9.47783L29.0266 9.654L28.9006 8.87899C28.8233 8.40365 28.5867 8.19817 28.1906 8.26254C27.7946 8.32691 27.6352 8.59676 27.7125 9.07211L28.3474 12.9782C28.4235 13.4466 28.6596 13.6487 29.0556 13.5843C29.4517 13.5199 29.6116 13.2535 29.5355 12.785L29.3675 11.7517Z" fill="#2E2C2B"/>
</g>
<g id="&#208;&#186;">
<path fill-rule="evenodd" clip-rule="evenodd" d="M34.0157 14.3036L33.0497 11.3246L32.6541 11.9737L32.5292 14.221L31.3695 14.1566L31.7761 6.83954L32.9357 6.90397L32.7586 10.0921L34.4538 6.98831L35.6135 7.05274L33.8193 10.2245L35.207 14.3698L34.0157 14.3036Z" fill="#2E2C2B"/>
<path fill-rule="evenodd" clip-rule="evenodd" d="M34.0157 14.3036L33.0497 11.3246L32.6541 11.9737L32.5292 14.221L31.3695 14.1566L31.7761 6.83954L32.9357 6.90397L32.7586 10.0921L34.4538 6.98831L35.6135 7.05274L33.8193 10.2245L35.207 14.3698L34.0157 14.3036Z" fill="#2E2C2B"/>
</g>
<g id="&#208;&#184;">
<path fill-rule="evenodd" clip-rule="evenodd" d="M38.4922 11.8111L36.6239 14.7685L35.4779 14.4365L37.5175 7.39764L38.5113 7.68562L37.2206 12.1402L38.0749 10.7092L39.8297 8.06764L41.0569 8.42321L39.0173 15.462L38.0133 15.1711L39.4497 10.2138L38.4922 11.8111Z" fill="#2E2C2B"/>
<path fill-rule="evenodd" clip-rule="evenodd" d="M38.4922 11.8111L36.6239 14.7685L35.4779 14.4365L37.5175 7.39764L38.5113 7.68562L37.2206 12.1402L38.0749 10.7092L39.8297 8.06764L41.0569 8.42321L39.0173 15.462L38.0133 15.1711L39.4497 10.2138L38.4922 11.8111Z" fill="#2E2C2B"/>
</g>
<g id="&#208;&#181;_2">
<path fill-rule="evenodd" clip-rule="evenodd" d="M43.5188 10.7381L42.5614 12.5411L43.9695 13.2889L43.4785 14.2135L42.0704 13.4657L41.0638 15.3612L42.8357 16.3021L42.3447 17.2267L39.547 15.7412L42.984 9.26874L45.7816 10.7543L45.2906 11.679L43.5188 10.7381Z" fill="#2E2C2B"/>
<path fill-rule="evenodd" clip-rule="evenodd" d="M43.5188 10.7381L42.5614 12.5411L43.9695 13.2889L43.4785 14.2135L42.0704 13.4657L41.0638 15.3612L42.8357 16.3021L42.3447 17.2267L39.547 15.7412L42.984 9.26874L45.7816 10.7543L45.2906 11.679L43.5188 10.7381Z" fill="#2E2C2B"/>
</g>
<g id="&#208;&#177;">
<path fill-rule="evenodd" clip-rule="evenodd" d="M45.5235 19.8668L44.239 18.5532L49.4785 13.4295L51.7522 15.7546L51.0037 16.4866L49.542 14.9919L48.2022 16.3021L48.6747 16.7852C49.0782 17.1979 49.2723 17.6185 49.257 18.047C49.2416 18.4755 49.0244 18.8947 48.6052 19.3046L48.0438 19.8536C47.6247 20.2635 47.2007 20.4714 46.772 20.4771C46.3432 20.4829 45.927 20.2795 45.5235 19.8668ZM45.7997 18.6516L46.2721 19.1348C46.5477 19.4166 46.8502 19.3965 47.1796 19.0744L47.8457 18.423C48.1751 18.1009 48.2019 17.799 47.9263 17.5171L47.4539 17.034L45.7997 18.6516Z" fill="#2E2C2B"/>
<path fill-rule="evenodd" clip-rule="evenodd" d="M45.5235 19.8668L44.239 18.5532L49.4785 13.4295L51.7522 15.7546L51.0037 16.4866L49.542 14.9919L48.2022 16.3021L48.6747 16.7852C49.0782 17.1979 49.2723 17.6185 49.257 18.047C49.2416 18.4755 49.0244 18.8947 48.6052 19.3046L48.0438 19.8536C47.6247 20.2635 47.2007 20.4714 46.772 20.4771C46.3432 20.4829 45.927 20.2795 45.5235 19.8668ZM45.7997 18.6516L46.2721 19.1348C46.5477 19.4166 46.8502 19.3965 47.1796 19.0744L47.8457 18.423C48.1751 18.1009 48.2019 17.799 47.9263 17.5171L47.4539 17.034L45.7997 18.6516Z" fill="#2E2C2B"/>
</g>
<g id="&#208;&#176;_2">
<path fill-rule="evenodd" clip-rule="evenodd" d="M54.6192 19.9338L49.0107 24.7967L48.3938 23.8002L49.4187 22.9297L48.6684 21.7178L47.4323 22.247L46.871 21.3403L53.7245 18.4884L54.6192 19.9338ZM53.0375 19.8451L49.5919 21.32L50.181 22.2716L53.0375 19.8451Z" fill="#2E2C2B"/>
<path fill-rule="evenodd" clip-rule="evenodd" d="M54.6192 19.9338L49.0107 24.7967L48.3938 23.8002L49.4187 22.9297L48.6684 21.7178L47.4323 22.247L46.871 21.3403L53.7245 18.4884L54.6192 19.9338ZM53.0375 19.8451L49.5919 21.32L50.181 22.2716L53.0375 19.8451Z" fill="#2E2C2B"/>
</g>
<g id="&#208;&#189;">
<path fill-rule="evenodd" clip-rule="evenodd" d="M52.8842 25.4703L49.9146 26.493L49.5364 25.3949L56.4653 23.0085L56.8435 24.1066L53.874 25.1294L54.3038 26.3773L57.2733 25.3545L57.6584 26.4727L50.7295 28.859L50.3444 27.7409L53.3139 26.7182L52.8842 25.4703Z" fill="#2E2C2B"/>
<path fill-rule="evenodd" clip-rule="evenodd" d="M52.8842 25.4703L49.9146 26.493L49.5364 25.3949L56.4653 23.0085L56.8435 24.1066L53.874 25.1294L54.3038 26.3773L57.2733 25.3545L57.6584 26.4727L50.7295 28.859L50.3444 27.7409L53.3139 26.7182L52.8842 25.4703Z" fill="#2E2C2B"/>
</g>
<g id="&#208;&#184;_2">
<path fill-rule="evenodd" clip-rule="evenodd" d="M54.0147 30.7658L50.5689 30.163L50.44 28.9768L57.7255 28.1854L57.8373 29.2141L53.2266 29.7149L54.875 29.9607L57.9855 30.5787L58.1235 31.8488L50.838 32.6403L50.7251 31.6011L55.8562 31.0436L54.0147 30.7658Z" fill="#2E2C2B"/>
<path fill-rule="evenodd" clip-rule="evenodd" d="M54.0147 30.7658L50.5689 30.163L50.44 28.9768L57.7255 28.1854L57.8373 29.2141L53.2266 29.7149L54.875 29.9607L57.9855 30.5787L58.1235 31.8488L50.838 32.6403L50.7251 31.6011L55.8562 31.0436L54.0147 30.7658Z" fill="#2E2C2B"/>
</g>
</g>
<g id="Rectangle-path">
<path d="M6.46741 36.3844H16.7836V36.9002H6.46741V36.3844Z" fill="#2E2C2B"/>
<path d="M6.46741 36.3844H16.7836V36.9002H6.46741V36.3844Z" fill="#2E2C2B"/>
</g>
<g id="Rectangle-path_2">
<path d="M48.248 36.3844H58.5643V36.9002H48.248V36.3844Z" fill="#2E2C2B"/>
<path d="M48.248 36.3844H58.5643V36.9002H48.248V36.3844Z" fill="#2E2C2B"/>
</g>
<g id="4838485">
<g id="Shape">
<path fill-rule="evenodd" clip-rule="evenodd" d="M42.0254 25.281C42.0629 25.3459 42.0687 25.4247 42.041 25.4945C41.724 26.2863 40.8957 28.0741 39.5859 28.9315C40.2418 29.1771 40.877 29.476 41.4851 29.8254C41.5488 29.8632 41.5917 29.9285 41.6015 30.0024C41.6113 30.0764 41.587 30.1508 41.5356 30.2043C40.9089 30.8516 39.4202 32.2483 37.814 32.6831C38.389 32.9964 38.9386 33.3554 39.4575 33.7567C39.5156 33.8027 39.5496 33.8733 39.5496 33.948C39.5496 34.0227 39.5156 34.0932 39.4575 34.1393C38.2077 35.1339 36.4382 36.2112 34.7755 36.0278C34.989 36.4129 35.1817 36.8094 35.3529 37.2156C35.3805 37.2836 35.3763 37.3605 35.3413 37.425C35.3063 37.4894 35.2444 37.5343 35.1728 37.5472L35.1706 37.5475C35.0531 37.5679 33.0443 37.9162 31.5185 37.5544C31.5215 37.9076 31.5096 38.1544 31.5062 38.2259L31.5053 38.2467C31.4994 38.333 31.4486 38.4096 31.372 38.4479C31.2953 38.4861 31.2043 38.4803 31.1331 38.4325C30.3347 37.9164 29.2507 37.0905 28.492 36.0217C28.2847 36.2161 28.0802 36.4096 27.8785 36.6023C28.0593 36.9509 27.9916 37.3783 27.7121 37.6522C27.4327 37.9262 27.0083 37.9813 26.6696 37.7876C26.199 38.2601 25.7344 38.7398 25.283 39.2183C25.4669 39.5538 25.4162 39.971 25.1575 40.2515C24.8988 40.5321 24.4909 40.6121 24.1473 40.4498C23.6023 41.0498 23.0488 41.6777 22.4486 42.3675C22.3391 42.4936 22.183 42.5683 22.0172 42.5738C21.8514 42.5793 21.6908 42.5152 21.5734 42.3966L20.5698 41.3825C20.3468 41.1567 20.3347 40.7948 20.5421 40.5543C21.1424 39.8547 21.715 39.2183 22.2793 38.5941C22.0865 38.2547 22.1357 37.8277 22.4006 37.5424C22.6655 37.2571 23.0837 37.1806 23.4306 37.354C23.894 36.8634 24.3646 36.3776 24.8364 35.9052C24.6806 35.5674 24.748 35.1672 25.0057 34.9008C25.2737 34.627 25.6862 34.5606 26.0249 34.7368C26.2302 34.5401 26.4379 34.3433 26.6456 34.149C25.5711 33.379 24.7427 32.2702 24.2241 31.4455C24.1762 31.372 24.1714 31.278 24.2115 31.1999C24.2516 31.1217 24.3304 31.0717 24.4174 31.069L24.4409 31.0683C24.5154 31.0656 24.759 31.0569 25.1017 31.0569C24.7379 29.5023 25.0921 27.4522 25.1089 27.3599C25.1216 27.2876 25.166 27.2249 25.2297 27.1895C25.2934 27.1541 25.3695 27.1498 25.4366 27.1778C25.8363 27.3526 26.2262 27.5492 26.6047 27.7668C26.4259 26.0847 27.4895 24.2933 28.4727 23.0303C28.52 22.9747 28.5888 22.9427 28.6612 22.9427C28.7337 22.9427 28.8025 22.9747 28.8497 23.0303C29.2464 23.5559 29.6016 24.1122 29.9122 24.6941C30.342 23.0679 31.7213 21.5607 32.3612 20.9292C32.4141 20.8771 32.4877 20.8525 32.5608 20.8625C32.6339 20.8724 32.6984 20.9158 32.7358 20.9802C33.0822 21.5946 33.3781 22.2368 33.6206 22.9003C34.4657 21.5704 36.2329 20.7324 37.0192 20.4118C37.09 20.383 37.17 20.3899 37.2349 20.4304C37.2998 20.4709 37.3419 20.5402 37.3482 20.617C37.41 21.1844 37.4316 21.7554 37.413 22.3258C38.5727 21.3688 40.3987 21.0749 41.2066 20.9899C41.2787 20.9822 41.3505 21.0078 41.4017 21.0597C41.453 21.1116 41.4784 21.1841 41.4707 21.2571C41.3675 22.2663 41.0602 23.9812 40.1598 25.0949C40.7237 25.0758 41.2882 25.0986 41.8489 25.1629C41.9226 25.1725 41.9878 25.2161 42.0254 25.281ZM24.5844 38.4642L24.9697 38.854C25.4055 38.3889 25.8533 37.9261 26.3071 37.4743L25.9169 37.0784C25.4752 37.5302 25.0226 38.0014 24.5844 38.4642ZM25.1353 36.289L25.5771 36.7359C25.1353 37.1865 24.6827 37.6577 24.2445 38.1205L23.7979 37.6674C24.2361 37.1974 24.6875 36.7359 25.1353 36.2854V36.289ZM22.5951 38.9609C22.044 39.5658 21.4894 40.1924 20.9035 40.8701C20.8594 40.919 20.8621 40.9946 20.9095 41.0402L21.2913 41.4227C21.6983 40.9114 22.2961 40.2252 23.0393 39.4103L22.5951 38.9609ZM22.0872 42.0445C22.0645 42.069 22.0328 42.0829 21.9996 42.0829C21.9664 42.0829 21.9347 42.069 21.912 42.0445L21.6334 41.7688C22.0308 41.2672 22.6287 40.5786 23.3802 39.7563L23.7668 40.1474C23.2277 40.7401 22.6755 41.3631 22.0872 42.0445ZM24.2506 39.9458C24.4095 40.0808 24.6437 40.0719 24.7921 39.9252C24.9449 39.7718 24.9481 39.5227 24.7993 39.3653L23.3166 37.8654C23.216 37.7639 23.0696 37.7243 22.9324 37.7617C22.7952 37.799 22.6881 37.9076 22.6514 38.0465C22.6148 38.1854 22.6542 38.3335 22.7548 38.435L22.7775 38.458L22.7783 38.4588C22.9677 38.6507 24.2316 39.9311 24.2506 39.9458ZM27.1006 37.4208C26.9939 37.4208 26.8916 37.377 26.8173 37.2994L26.085 36.5586L26.0718 36.5453L26.0717 36.5452C25.971 36.4434 25.341 35.8069 25.3299 35.7922C25.1825 35.6347 25.1857 35.3871 25.3372 35.2336C25.4886 35.0801 25.7333 35.0763 25.8893 35.225C25.9397 35.2712 27.3419 36.6909 27.39 36.7407C27.4992 36.8577 27.5292 37.0292 27.4664 37.177C27.4035 37.3249 27.2597 37.4207 27.1006 37.4208ZM37.8164 28.8927C38.1226 28.968 38.4803 28.9219 38.8825 28.7567C40.0938 28.2211 40.9366 26.8402 41.472 25.6111C40.5368 25.5346 39.2799 25.5468 38.4023 25.8711C38.2837 25.9 38.1626 25.8345 38.1205 25.7187C38.0785 25.6029 38.1289 25.4736 38.2378 25.418C38.6265 25.2825 39.0293 25.1929 39.4383 25.1509C40.4588 24.2716 40.8297 22.4899 40.9594 21.5074C39.9834 21.6385 38.2234 22.015 37.3578 23.0473C37.3149 23.4715 37.2222 23.889 37.0817 24.291C37.0583 24.3808 36.9864 24.4492 36.8963 24.4673C36.8063 24.4854 36.714 24.4499 36.6584 24.376C36.6029 24.3021 36.5938 24.2027 36.6351 24.1197C36.9653 23.2271 36.9761 21.9397 36.9016 20.9888C35.9676 21.4053 34.3205 22.2992 33.7899 23.6084C33.6254 24.0165 33.5798 24.3796 33.6543 24.6906C33.6854 24.821 33.6061 24.9523 33.4772 24.9839C33.3482 25.0154 33.2184 24.9352 33.1873 24.8047C33.0988 24.3701 33.1432 23.9186 33.3145 23.5101C33.093 22.8173 32.8118 22.1455 32.4741 21.5025C31.7742 22.2348 30.348 23.9157 30.2664 25.4946C30.272 25.824 30.3029 26.1525 30.3588 26.4771C30.3895 26.5673 30.3651 26.6674 30.2965 26.7328C30.2279 26.7983 30.1277 26.817 30.0405 26.7808C29.9533 26.7445 29.8951 26.6599 29.8918 26.5645C29.8339 26.227 29.8002 25.8856 29.791 25.5431C29.4802 24.8546 29.1021 24.1991 28.6625 23.5866C27.7297 24.8472 26.7441 26.6629 27.1775 28.1822C27.228 28.3732 27.3091 28.5546 27.4176 28.7191C27.4703 28.7899 27.4807 28.8841 27.4447 28.965C27.4087 29.0458 27.332 29.1004 27.2446 29.1074C27.1573 29.1143 27.0731 29.0725 27.025 28.9984C26.902 28.8175 26.8065 28.6189 26.7417 28.4094C26.3521 28.1667 25.9498 27.9457 25.5364 27.7475C25.4451 28.4324 25.2867 30.0841 25.6468 31.2258C25.6709 31.3016 25.6567 31.3846 25.6088 31.4479C25.5609 31.5111 25.4854 31.5466 25.4067 31.5428H24.8653C25.3275 32.2217 26.0718 33.158 26.995 33.8005C28.4416 32.2047 28.7429 31.1541 28.7429 30.0793C28.7429 29.9451 28.8504 29.8364 28.983 29.8364C29.1157 29.8364 29.2232 29.9451 29.2232 30.0793C29.2296 30.5549 29.1623 31.0287 29.0239 31.4832C29.4525 31.1141 29.7758 30.6356 29.9603 30.0975C29.9869 30.0148 30.055 29.9528 30.1391 29.9348C30.2231 29.9168 30.3103 29.9455 30.3678 30.0101C30.4252 30.0747 30.4443 30.1654 30.4177 30.2481C30.1475 31.0837 29.4957 31.8561 28.6673 32.3298C28.2615 33.0425 27.7691 33.701 27.2015 34.29C27.2015 34.29 26.7669 34.6944 26.3971 35.0478L26.8221 35.4777C28.5529 33.8124 30.4222 32.3008 32.4093 30.9598C32.3085 28.7203 32.9856 27.0734 34.6003 25.6573C34.6662 25.5992 34.7581 25.5819 34.8403 25.6122C34.9224 25.6426 34.9818 25.7156 34.9952 25.803C35.2545 27.5288 34.8091 28.8089 33.9424 29.9833C34.6403 29.5631 35.3386 29.1769 36.0373 28.8247C36.1556 28.7649 36.2995 28.8132 36.359 28.9328C36.3877 28.9906 36.3924 29.0576 36.3721 29.1189C36.3519 29.1802 36.3083 29.2308 36.251 29.2595C34.6896 30.0536 33.1903 30.9667 31.7658 31.9909C32.7887 31.7978 33.7455 31.8901 34.8356 32.2654C34.9142 32.2924 34.9735 32.3586 34.9923 32.4404C35.0111 32.5222 34.9868 32.6081 34.928 32.6674C33.6314 33.979 31.8463 34.0774 30.5173 32.92C29.3466 33.8223 28.2264 34.7897 27.1619 35.8178L27.5724 36.238C27.8342 35.9878 28.1031 35.734 28.3744 35.4826C28.4264 35.4356 28.496 35.4139 28.5652 35.423C28.6343 35.4321 28.6961 35.4711 28.7345 35.53C29.3492 36.487 30.27 37.2594 31.0383 37.7926C31.043 37.6929 31.0416 37.5793 31.04 37.4546V37.4545C31.0392 37.3877 31.0383 37.3177 31.0383 37.2448C31.0345 37.1652 31.0696 37.0888 31.1321 37.0404C31.1946 36.9919 31.2767 36.9775 31.3517 37.0019C32.4802 37.3711 34.1177 37.206 34.7899 37.1137C34.5972 36.6943 34.3824 36.2856 34.1465 35.8894C33.9393 35.8239 33.743 35.7273 33.5642 35.6028C33.4909 35.5542 33.4496 35.469 33.4565 35.3806C33.4634 35.2922 33.5173 35.2147 33.5972 35.1782C33.6771 35.1418 33.7703 35.1523 33.8403 35.2057C34.0027 35.3159 34.182 35.398 34.371 35.4486C35.9436 35.9077 37.8044 34.7867 38.9137 33.9463C38.3079 33.5023 37.6601 33.1203 36.9797 32.8058C36.6411 32.7966 36.3037 32.7625 35.97 32.7038C35.8834 32.6914 35.8104 32.6322 35.7794 32.5495C35.7483 32.4667 35.7643 32.3735 35.8209 32.3061C35.8775 32.2386 35.966 32.2077 36.0517 32.2253C36.3726 32.2815 36.6973 32.3132 37.0229 32.32C38.5884 32.235 40.2475 30.7934 40.9678 30.0866C40.3318 29.745 39.6673 29.4605 38.9821 29.2364C38.5784 29.4097 38.132 29.4546 37.7024 29.3652C37.619 29.3446 37.5528 29.2805 37.5287 29.1971C37.5046 29.1137 37.5264 29.0237 37.5857 28.9609C37.6451 28.8981 37.733 28.8721 37.8164 28.8927ZM31.0022 32.6953C32.1559 32.3128 33.1535 32.2836 34.2832 32.6043C33.2604 33.4277 32.0142 33.4617 31.0022 32.6953ZM32.88 30.5019C32.8884 28.8016 33.4238 27.4887 34.5751 26.341C34.6868 27.847 34.1849 29.0773 32.88 30.5019Z" fill="#2E2C2B"/>
<path fill-rule="evenodd" clip-rule="evenodd" d="M42.0254 25.281C42.0629 25.3459 42.0687 25.4247 42.041 25.4945C41.724 26.2863 40.8957 28.0741 39.5859 28.9315C40.2418 29.1771 40.877 29.476 41.4851 29.8254C41.5488 29.8632 41.5917 29.9285 41.6015 30.0024C41.6113 30.0764 41.587 30.1508 41.5356 30.2043C40.9089 30.8516 39.4202 32.2483 37.814 32.6831C38.389 32.9964 38.9386 33.3554 39.4575 33.7567C39.5156 33.8027 39.5496 33.8733 39.5496 33.948C39.5496 34.0227 39.5156 34.0932 39.4575 34.1393C38.2077 35.1339 36.4382 36.2112 34.7755 36.0278C34.989 36.4129 35.1817 36.8094 35.3529 37.2156C35.3805 37.2836 35.3763 37.3605 35.3413 37.425C35.3063 37.4894 35.2444 37.5343 35.1728 37.5472L35.1706 37.5475C35.0531 37.5679 33.0443 37.9162 31.5185 37.5544C31.5215 37.9076 31.5096 38.1544 31.5062 38.2259L31.5053 38.2467C31.4994 38.333 31.4486 38.4096 31.372 38.4479C31.2953 38.4861 31.2043 38.4803 31.1331 38.4325C30.3347 37.9164 29.2507 37.0905 28.492 36.0217C28.2847 36.2161 28.0802 36.4096 27.8785 36.6023C28.0593 36.9509 27.9916 37.3783 27.7121 37.6522C27.4327 37.9262 27.0083 37.9813 26.6696 37.7876C26.199 38.2601 25.7344 38.7398 25.283 39.2183C25.4669 39.5538 25.4162 39.971 25.1575 40.2515C24.8988 40.5321 24.4909 40.6121 24.1473 40.4498C23.6023 41.0498 23.0488 41.6777 22.4486 42.3675C22.3391 42.4936 22.183 42.5683 22.0172 42.5738C21.8514 42.5793 21.6908 42.5152 21.5734 42.3966L20.5698 41.3825C20.3468 41.1567 20.3347 40.7948 20.5421 40.5543C21.1424 39.8547 21.715 39.2183 22.2793 38.5941C22.0865 38.2547 22.1357 37.8277 22.4006 37.5424C22.6655 37.2571 23.0837 37.1806 23.4306 37.354C23.894 36.8634 24.3646 36.3776 24.8364 35.9052C24.6806 35.5674 24.748 35.1672 25.0057 34.9008C25.2737 34.627 25.6862 34.5606 26.0249 34.7368C26.2302 34.5401 26.4379 34.3433 26.6456 34.149C25.5711 33.379 24.7427 32.2702 24.2241 31.4455C24.1762 31.372 24.1714 31.278 24.2115 31.1999C24.2516 31.1217 24.3304 31.0717 24.4174 31.069L24.4409 31.0683C24.5154 31.0656 24.759 31.0569 25.1017 31.0569C24.7379 29.5023 25.0921 27.4522 25.1089 27.3599C25.1216 27.2876 25.166 27.2249 25.2297 27.1895C25.2934 27.1541 25.3695 27.1498 25.4366 27.1778C25.8363 27.3526 26.2262 27.5492 26.6047 27.7668C26.4259 26.0847 27.4895 24.2933 28.4727 23.0303C28.52 22.9747 28.5888 22.9427 28.6612 22.9427C28.7337 22.9427 28.8025 22.9747 28.8497 23.0303C29.2464 23.5559 29.6016 24.1122 29.9122 24.6941C30.342 23.0679 31.7213 21.5607 32.3612 20.9292C32.4141 20.8771 32.4877 20.8525 32.5608 20.8625C32.6339 20.8724 32.6984 20.9158 32.7358 20.9802C33.0822 21.5946 33.3781 22.2368 33.6206 22.9003C34.4657 21.5704 36.2329 20.7324 37.0192 20.4118C37.09 20.383 37.17 20.3899 37.2349 20.4304C37.2998 20.4709 37.3419 20.5402 37.3482 20.617C37.41 21.1844 37.4316 21.7554 37.413 22.3258C38.5727 21.3688 40.3987 21.0749 41.2066 20.9899C41.2787 20.9822 41.3505 21.0078 41.4017 21.0597C41.453 21.1116 41.4784 21.1841 41.4707 21.2571C41.3675 22.2663 41.0602 23.9812 40.1598 25.0949C40.7237 25.0758 41.2882 25.0986 41.8489 25.1629C41.9226 25.1725 41.9878 25.2161 42.0254 25.281ZM24.5844 38.4642L24.9697 38.854C25.4055 38.3889 25.8533 37.9261 26.3071 37.4743L25.9169 37.0784C25.4752 37.5302 25.0226 38.0014 24.5844 38.4642ZM25.1353 36.289L25.5771 36.7359C25.1353 37.1865 24.6827 37.6577 24.2445 38.1205L23.7979 37.6674C24.2361 37.1974 24.6875 36.7359 25.1353 36.2854V36.289ZM22.5951 38.9609C22.044 39.5658 21.4894 40.1924 20.9035 40.8701C20.8594 40.919 20.8621 40.9946 20.9095 41.0402L21.2913 41.4227C21.6983 40.9114 22.2961 40.2252 23.0393 39.4103L22.5951 38.9609ZM22.0872 42.0445C22.0645 42.069 22.0328 42.0829 21.9996 42.0829C21.9664 42.0829 21.9347 42.069 21.912 42.0445L21.6334 41.7688C22.0308 41.2672 22.6287 40.5786 23.3802 39.7563L23.7668 40.1474C23.2277 40.7401 22.6755 41.3631 22.0872 42.0445ZM24.2506 39.9458C24.4095 40.0808 24.6437 40.0719 24.7921 39.9252C24.9449 39.7718 24.9481 39.5227 24.7993 39.3653L23.3166 37.8654C23.216 37.7639 23.0696 37.7243 22.9324 37.7617C22.7952 37.799 22.6881 37.9076 22.6514 38.0465C22.6148 38.1854 22.6542 38.3335 22.7548 38.435L22.7775 38.458L22.7783 38.4588C22.9677 38.6507 24.2316 39.9311 24.2506 39.9458ZM27.1006 37.4208C26.9939 37.4208 26.8916 37.377 26.8173 37.2994L26.085 36.5586L26.0718 36.5453L26.0717 36.5452C25.971 36.4434 25.341 35.8069 25.3299 35.7922C25.1825 35.6347 25.1857 35.3871 25.3372 35.2336C25.4886 35.0801 25.7333 35.0763 25.8893 35.225C25.9397 35.2712 27.3419 36.6909 27.39 36.7407C27.4992 36.8577 27.5292 37.0292 27.4664 37.177C27.4035 37.3249 27.2597 37.4207 27.1006 37.4208ZM37.8164 28.8927C38.1226 28.968 38.4803 28.9219 38.8825 28.7567C40.0938 28.2211 40.9366 26.8402 41.472 25.6111C40.5368 25.5346 39.2799 25.5468 38.4023 25.8711C38.2837 25.9 38.1626 25.8345 38.1205 25.7187C38.0785 25.6029 38.1289 25.4736 38.2378 25.418C38.6265 25.2825 39.0293 25.1929 39.4383 25.1509C40.4588 24.2716 40.8297 22.4899 40.9594 21.5074C39.9834 21.6385 38.2234 22.015 37.3578 23.0473C37.3149 23.4715 37.2222 23.889 37.0817 24.291C37.0583 24.3808 36.9864 24.4492 36.8963 24.4673C36.8063 24.4854 36.714 24.4499 36.6584 24.376C36.6029 24.3021 36.5938 24.2027 36.6351 24.1197C36.9653 23.2271 36.9761 21.9397 36.9016 20.9888C35.9676 21.4053 34.3205 22.2992 33.7899 23.6084C33.6254 24.0165 33.5798 24.3796 33.6543 24.6906C33.6854 24.821 33.6061 24.9523 33.4772 24.9839C33.3482 25.0154 33.2184 24.9352 33.1873 24.8047C33.0988 24.3701 33.1432 23.9186 33.3145 23.5101C33.093 22.8173 32.8118 22.1455 32.4741 21.5025C31.7742 22.2348 30.348 23.9157 30.2664 25.4946C30.272 25.824 30.3029 26.1525 30.3588 26.4771C30.3895 26.5673 30.3651 26.6674 30.2965 26.7328C30.2279 26.7983 30.1277 26.817 30.0405 26.7808C29.9533 26.7445 29.8951 26.6599 29.8918 26.5645C29.8339 26.227 29.8002 25.8856 29.791 25.5431C29.4802 24.8546 29.1021 24.1991 28.6625 23.5866C27.7297 24.8472 26.7441 26.6629 27.1775 28.1822C27.228 28.3732 27.3091 28.5546 27.4176 28.7191C27.4703 28.7899 27.4807 28.8841 27.4447 28.965C27.4087 29.0458 27.332 29.1004 27.2446 29.1074C27.1573 29.1143 27.0731 29.0725 27.025 28.9984C26.902 28.8175 26.8065 28.6189 26.7417 28.4094C26.3521 28.1667 25.9498 27.9457 25.5364 27.7475C25.4451 28.4324 25.2867 30.0841 25.6468 31.2258C25.6709 31.3016 25.6567 31.3846 25.6088 31.4479C25.5609 31.5111 25.4854 31.5466 25.4067 31.5428H24.8653C25.3275 32.2217 26.0718 33.158 26.995 33.8005C28.4416 32.2047 28.7429 31.1541 28.7429 30.0793C28.7429 29.9451 28.8504 29.8364 28.983 29.8364C29.1157 29.8364 29.2232 29.9451 29.2232 30.0793C29.2296 30.5549 29.1623 31.0287 29.0239 31.4832C29.4525 31.1141 29.7758 30.6356 29.9603 30.0975C29.9869 30.0148 30.055 29.9528 30.1391 29.9348C30.2231 29.9168 30.3103 29.9455 30.3678 30.0101C30.4252 30.0747 30.4443 30.1654 30.4177 30.2481C30.1475 31.0837 29.4957 31.8561 28.6673 32.3298C28.2615 33.0425 27.7691 33.701 27.2015 34.29C27.2015 34.29 26.7669 34.6944 26.3971 35.0478L26.8221 35.4777C28.5529 33.8124 30.4222 32.3008 32.4093 30.9598C32.3085 28.7203 32.9856 27.0734 34.6003 25.6573C34.6662 25.5992 34.7581 25.5819 34.8403 25.6122C34.9224 25.6426 34.9818 25.7156 34.9952 25.803C35.2545 27.5288 34.8091 28.8089 33.9424 29.9833C34.6403 29.5631 35.3386 29.1769 36.0373 28.8247C36.1556 28.7649 36.2995 28.8132 36.359 28.9328C36.3877 28.9906 36.3924 29.0576 36.3721 29.1189C36.3519 29.1802 36.3083 29.2308 36.251 29.2595C34.6896 30.0536 33.1903 30.9667 31.7658 31.9909C32.7887 31.7978 33.7455 31.8901 34.8356 32.2654C34.9142 32.2924 34.9735 32.3586 34.9923 32.4404C35.0111 32.5222 34.9868 32.6081 34.928 32.6674C33.6314 33.979 31.8463 34.0774 30.5173 32.92C29.3466 33.8223 28.2264 34.7897 27.1619 35.8178L27.5724 36.238C27.8342 35.9878 28.1031 35.734 28.3744 35.4826C28.4264 35.4356 28.496 35.4139 28.5652 35.423C28.6343 35.4321 28.6961 35.4711 28.7345 35.53C29.3492 36.487 30.27 37.2594 31.0383 37.7926C31.043 37.6929 31.0416 37.5793 31.04 37.4546V37.4545C31.0392 37.3877 31.0383 37.3177 31.0383 37.2448C31.0345 37.1652 31.0696 37.0888 31.1321 37.0404C31.1946 36.9919 31.2767 36.9775 31.3517 37.0019C32.4802 37.3711 34.1177 37.206 34.7899 37.1137C34.5972 36.6943 34.3824 36.2856 34.1465 35.8894C33.9393 35.8239 33.743 35.7273 33.5642 35.6028C33.4909 35.5542 33.4496 35.469 33.4565 35.3806C33.4634 35.2922 33.5173 35.2147 33.5972 35.1782C33.6771 35.1418 33.7703 35.1523 33.8403 35.2057C34.0027 35.3159 34.182 35.398 34.371 35.4486C35.9436 35.9077 37.8044 34.7867 38.9137 33.9463C38.3079 33.5023 37.6601 33.1203 36.9797 32.8058C36.6411 32.7966 36.3037 32.7625 35.97 32.7038C35.8834 32.6914 35.8104 32.6322 35.7794 32.5495C35.7483 32.4667 35.7643 32.3735 35.8209 32.3061C35.8775 32.2386 35.966 32.2077 36.0517 32.2253C36.3726 32.2815 36.6973 32.3132 37.0229 32.32C38.5884 32.235 40.2475 30.7934 40.9678 30.0866C40.3318 29.745 39.6673 29.4605 38.9821 29.2364C38.5784 29.4097 38.132 29.4546 37.7024 29.3652C37.619 29.3446 37.5528 29.2805 37.5287 29.1971C37.5046 29.1137 37.5264 29.0237 37.5857 28.9609C37.6451 28.8981 37.733 28.8721 37.8164 28.8927ZM31.0022 32.6953C32.1559 32.3128 33.1535 32.2836 34.2832 32.6043C33.2604 33.4277 32.0142 33.4617 31.0022 32.6953ZM32.88 30.5019C32.8884 28.8016 33.4238 27.4887 34.5751 26.341C34.6868 27.847 34.1849 29.0773 32.88 30.5019Z" fill="#2E2C2B"/>
</g>
</g>
<g id="c 1934">
<path fill-rule="evenodd" clip-rule="evenodd" d="M20.9418 51.3535H19.2169C18.6482 51.3535 18.2435 51.2684 18.0027 51.0982C17.8325 50.982 17.6965 50.819 17.5948 50.6094C17.4931 50.3997 17.4423 50.1808 17.4423 49.9524C17.4423 49.6909 17.5118 49.3982 17.6509 49.0744C17.7899 48.7506 17.9653 48.4725 18.177 48.24C18.4054 47.9951 18.6679 47.8021 18.9647 47.6609C19.2616 47.5198 19.5553 47.4492 19.8459 47.4492C20.1987 47.4492 20.4893 47.5468 20.7176 47.7419C20.9459 47.937 21.0601 48.1861 21.0601 48.4891C21.0601 48.7133 20.9875 48.9354 20.8422 49.1554H20.07C20.261 48.9063 20.3565 48.705 20.3565 48.5514C20.3565 48.4185 20.3046 48.3075 20.2008 48.2182C20.097 48.129 19.9683 48.0844 19.8147 48.0844C19.5324 48.0844 19.2335 48.211 18.918 48.4642C18.6897 48.6469 18.504 48.87 18.3607 49.1336C18.2175 49.3972 18.1459 49.6473 18.1459 49.8839C18.1459 50.0375 18.1843 50.1818 18.2611 50.3167C18.3379 50.4516 18.4386 50.5523 18.5631 50.6187C18.7084 50.6976 18.9782 50.737 19.3726 50.737H21.1909L20.9418 51.3535ZM25.9117 51.3162H25.1645L27.6926 45.2449H26.5718L26.8271 44.6098H28.7014L25.9117 51.3162ZM30.9778 48.9001C30.7495 48.9748 30.5336 49.0122 30.3302 49.0122C29.8943 49.0122 29.5249 48.8711 29.2218 48.5888C28.8856 48.2733 28.7175 47.8727 28.7175 47.387C28.7175 47.0175 28.8005 46.6543 28.9665 46.2973C29.145 45.9153 29.392 45.577 29.7075 45.2823C30.2057 44.8173 30.7537 44.5849 31.3514 44.5849C31.9534 44.5849 32.4183 44.8007 32.7463 45.2325C32.9746 45.5355 33.0888 45.8884 33.0888 46.291C33.0888 46.5775 33.014 46.9013 32.8646 47.2624C32.7151 47.6236 32.5076 47.9785 32.2419 48.3272L29.9566 51.3411H29.1098L30.9778 48.9001ZM31.3141 45.2449C30.9156 45.2491 30.5274 45.4359 30.1496 45.8053C29.9296 46.0212 29.7542 46.2682 29.6235 46.5463C29.4927 46.8245 29.4273 47.0922 29.4273 47.3496C29.4273 47.6153 29.5166 47.854 29.6951 48.0657C29.886 48.2899 30.1559 48.402 30.5046 48.402C30.8823 48.402 31.2435 48.2442 31.5881 47.9287C31.8205 47.717 32.0094 47.4679 32.1547 47.1815C32.3 46.8951 32.3789 46.6148 32.3913 46.3409C32.4038 46.0461 32.3145 45.795 32.1236 45.5874C31.9119 45.3591 31.642 45.2449 31.3141 45.2449ZM36.8721 46.9386C37.2623 47.1088 37.5457 47.3247 37.7221 47.5862C37.8985 47.8478 37.9867 48.1861 37.9867 48.6012C37.9867 49.253 37.7771 49.8362 37.3578 50.351C36.8306 51.0027 36.156 51.3286 35.3341 51.3286C34.811 51.3286 34.3917 51.2062 34.0762 50.9612C33.7566 50.7121 33.5968 50.3468 33.5968 49.8653C33.5968 49.5996 33.6735 49.2945 33.8271 48.9499H34.6304C34.4561 49.2405 34.3689 49.5 34.3689 49.7283C34.3689 50.0147 34.4623 50.2441 34.6491 50.4164C34.8359 50.5887 35.0871 50.6748 35.4026 50.6748C35.963 50.6748 36.4404 50.4236 36.8348 49.9213C37.1378 49.5311 37.2893 49.1015 37.2893 48.6324C37.2893 48.1425 37.0921 47.7876 36.6978 47.5676C36.4528 47.4306 36.1685 47.3621 35.8447 47.3621C35.7741 47.3621 35.6662 47.3704 35.5209 47.387L37.6193 45.1391H35.3839L35.6454 44.5039H39.12L36.8721 46.9386ZM43.1463 49.0433H44.1799L43.9246 49.6598H42.8785L42.1749 51.3472H41.4401L42.1313 49.6598H39.1424L39.3478 49.118L43.8001 44.6222H44.9894L43.1463 49.0433ZM43.9246 45.4067L40.3317 49.0433H42.3804L43.9246 45.4067Z" fill="#2E2C2B"/>
<path fill-rule="evenodd" clip-rule="evenodd" d="M20.9418 51.3535H19.2169C18.6482 51.3535 18.2435 51.2684 18.0027 51.0982C17.8325 50.982 17.6965 50.819 17.5948 50.6094C17.4931 50.3997 17.4423 50.1808 17.4423 49.9524C17.4423 49.6909 17.5118 49.3982 17.6509 49.0744C17.7899 48.7506 17.9653 48.4725 18.177 48.24C18.4054 47.9951 18.6679 47.8021 18.9647 47.6609C19.2616 47.5198 19.5553 47.4492 19.8459 47.4492C20.1987 47.4492 20.4893 47.5468 20.7176 47.7419C20.9459 47.937 21.0601 48.1861 21.0601 48.4891C21.0601 48.7133 20.9875 48.9354 20.8422 49.1554H20.07C20.261 48.9063 20.3565 48.705 20.3565 48.5514C20.3565 48.4185 20.3046 48.3075 20.2008 48.2182C20.097 48.129 19.9683 48.0844 19.8147 48.0844C19.5324 48.0844 19.2335 48.211 18.918 48.4642C18.6897 48.6469 18.504 48.87 18.3607 49.1336C18.2175 49.3972 18.1459 49.6473 18.1459 49.8839C18.1459 50.0375 18.1843 50.1818 18.2611 50.3167C18.3379 50.4516 18.4386 50.5523 18.5631 50.6187C18.7084 50.6976 18.9782 50.737 19.3726 50.737H21.1909L20.9418 51.3535ZM25.9117 51.3162H25.1645L27.6926 45.2449H26.5718L26.8271 44.6098H28.7014L25.9117 51.3162ZM30.9778 48.9001C30.7495 48.9748 30.5336 49.0122 30.3302 49.0122C29.8943 49.0122 29.5249 48.8711 29.2218 48.5888C28.8856 48.2733 28.7175 47.8727 28.7175 47.387C28.7175 47.0175 28.8005 46.6543 28.9665 46.2973C29.145 45.9153 29.392 45.577 29.7075 45.2823C30.2057 44.8173 30.7537 44.5849 31.3514 44.5849C31.9534 44.5849 32.4183 44.8007 32.7463 45.2325C32.9746 45.5355 33.0888 45.8884 33.0888 46.291C33.0888 46.5775 33.014 46.9013 32.8646 47.2624C32.7151 47.6236 32.5076 47.9785 32.2419 48.3272L29.9566 51.3411H29.1098L30.9778 48.9001ZM31.3141 45.2449C30.9156 45.2491 30.5274 45.4359 30.1496 45.8053C29.9296 46.0212 29.7542 46.2682 29.6235 46.5463C29.4927 46.8245 29.4273 47.0922 29.4273 47.3496C29.4273 47.6153 29.5166 47.854 29.6951 48.0657C29.886 48.2899 30.1559 48.402 30.5046 48.402C30.8823 48.402 31.2435 48.2442 31.5881 47.9287C31.8205 47.717 32.0094 47.4679 32.1547 47.1815C32.3 46.8951 32.3789 46.6148 32.3913 46.3409C32.4038 46.0461 32.3145 45.795 32.1236 45.5874C31.9119 45.3591 31.642 45.2449 31.3141 45.2449ZM36.8721 46.9386C37.2623 47.1088 37.5457 47.3247 37.7221 47.5862C37.8985 47.8478 37.9867 48.1861 37.9867 48.6012C37.9867 49.253 37.7771 49.8362 37.3578 50.351C36.8306 51.0027 36.156 51.3286 35.3341 51.3286C34.811 51.3286 34.3917 51.2062 34.0762 50.9612C33.7566 50.7121 33.5968 50.3468 33.5968 49.8653C33.5968 49.5996 33.6735 49.2945 33.8271 48.9499H34.6304C34.4561 49.2405 34.3689 49.5 34.3689 49.7283C34.3689 50.0147 34.4623 50.2441 34.6491 50.4164C34.8359 50.5887 35.0871 50.6748 35.4026 50.6748C35.963 50.6748 36.4404 50.4236 36.8348 49.9213C37.1378 49.5311 37.2893 49.1015 37.2893 48.6324C37.2893 48.1425 37.0921 47.7876 36.6978 47.5676C36.4528 47.4306 36.1685 47.3621 35.8447 47.3621C35.7741 47.3621 35.6662 47.3704 35.5209 47.387L37.6193 45.1391H35.3839L35.6454 44.5039H39.12L36.8721 46.9386ZM43.1463 49.0433H44.1799L43.9246 49.6598H42.8785L42.1749 51.3472H41.4401L42.1313 49.6598H39.1424L39.3478 49.118L43.8001 44.6222H44.9894L43.1463 49.0433ZM43.9246 45.4067L40.3317 49.0433H42.3804L43.9246 45.4067Z" fill="#2E2C2B"/>
</g>
</g>
</svg>
