<svg width="59" height="12" viewBox="0 0 59 12" fill="none" xmlns="http://www.w3.org/2000/svg">
<path d="M0 6L5 8.88675V3.11325L0 6ZM59 6L54 3.11325V8.88675L59 6ZM4.425 6.5H7.375V5.5H4.425V6.5ZM10.325 6.5H13.275V5.5H10.325V6.5ZM16.225 6.5H19.175V5.5H16.225V6.5ZM22.125 6.5H25.075V5.5H22.125V6.5ZM28.025 6.5H30.975V5.5H28.025V6.5ZM33.925 6.5H36.875V5.5H33.925V6.5ZM39.825 6.5H42.775V5.5H39.825V6.5ZM45.725 6.5H48.675V5.5H45.725V6.5ZM51.625 6.5H54.575V5.5H51.625V6.5ZM0 6L10 11.7735V0.226497L0 6ZM59 6L49 0.226497V11.7735L59 6ZM4.425 7H7.375V5H4.425V7ZM10.325 7H13.275V5H10.325V7ZM16.225 7H19.175V5H16.225V7ZM22.125 7H25.075V5H22.125V7ZM28.025 7H30.975V5H28.025V7ZM33.925 7H36.875V5H33.925V7ZM39.825 7H42.775V5H39.825V7ZM45.725 7H48.675V5H45.725V7ZM51.625 7H54.575V5H51.625V7Z" fill="#F22B2B"/>
</svg>
