<svg width="14" height="21" viewBox="0 0 14 21" fill="none" xmlns="http://www.w3.org/2000/svg">
<path d="M0.193353 11.2711C-0.343018 12.3254 0.265977 12.8294 1.65546 13.6904C2.8367 14.4202 4.46856 14.687 5.5168 14.7938C5.08718 15.2068 7.05592 13.3133 1.38597 18.7671C0.183728 19.9195 2.11921 21.7684 3.32057 20.6405L6.57292 17.5036C7.81803 18.7015 9.01152 19.8495 9.82527 20.6449C11.0275 21.7771 12.9621 19.944 11.773 18.7715C11.6837 18.6866 7.36566 14.5444 7.62904 14.7982C8.6904 14.6914 10.2978 14.4088 11.465 13.6948L11.4641 13.6939C12.8536 12.8286 13.4626 12.3254 12.9341 11.2711C12.6147 10.6726 11.7537 10.1721 10.6075 11.0374C10.6075 11.0374 9.05965 12.2231 6.5633 12.2231C4.06607 12.2231 2.51908 11.0374 2.51908 11.0374C1.37372 10.1677 0.509225 10.6726 0.193353 11.2711Z" fill="black"/>
<path d="M6.56165 10.6242C9.60487 10.6242 12.0898 8.24592 12.0898 5.3182C12.0898 2.37823 9.60487 0 6.56165 0C3.51755 0 1.03257 2.37823 1.03257 5.3182C1.03257 8.24592 3.51755 10.6242 6.56165 10.6242ZM6.56165 2.6941C8.05701 2.6941 9.27675 3.86746 9.27675 5.3182C9.27675 6.75669 8.05701 7.93005 6.56165 7.93005C5.06628 7.93005 3.84654 6.75669 3.84654 5.3182C3.84567 3.86659 5.06541 2.6941 6.56165 2.6941Z" fill="black"/>
</svg>
