<svg width="12" height="18" viewBox="0 0 12 18" fill="none" xmlns="http://www.w3.org/2000/svg">
<path d="M0.165731 9.66081C-0.294015 10.5646 0.22798 10.9965 1.41897 11.7345C2.43146 12.36 3.8302 12.5888 4.72869 12.6803C4.36044 13.0343 6.04793 11.4113 1.18797 16.086C0.157481 17.0737 1.81647 18.6585 2.84621 17.6917L5.63393 15.003C6.70117 16.0298 7.72416 17.0137 8.42166 17.6955C9.45215 18.666 11.1104 17.0947 10.0911 16.0898C10.0146 16.017 6.31342 12.4665 6.53917 12.684C7.44891 12.5925 8.82665 12.3503 9.82714 11.7383L9.82639 11.7375C11.0174 10.9958 11.5394 10.5646 11.0864 9.66081C10.8126 9.14781 10.0746 8.71882 9.09215 9.46056C9.09215 9.46056 7.76541 10.4768 5.62568 10.4768C3.4852 10.4768 2.15921 9.46056 2.15921 9.46056C1.17747 8.71507 0.436478 9.14781 0.165731 9.66081Z" fill="white"/>
<path d="M5.62419 9.10642C8.23266 9.10642 10.3626 7.06794 10.3626 4.55846C10.3626 2.03848 8.23266 0 5.62419 0C3.01496 0 0.884979 2.03848 0.884979 4.55846C0.884979 7.06794 3.01496 9.10642 5.62419 9.10642ZM5.62419 2.30923C6.90592 2.30923 7.95142 3.31497 7.95142 4.55846C7.95142 5.79145 6.90592 6.79719 5.62419 6.79719C4.34245 6.79719 3.29696 5.79145 3.29696 4.55846C3.29621 3.31422 4.3417 2.30923 5.62419 2.30923Z" fill="white"/>
</svg>
