<svg width="82" height="82" viewBox="0 0 82 82" fill="none" xmlns="http://www.w3.org/2000/svg">
<circle cx="41" cy="41" r="41" fill="#BA8D6C"/>
<path d="M66.0038 40.7479H64.1766L55.2563 33.0622C54.3458 32.2778 53.1934 31.9173 52.0568 32.0009L48.4683 26.5103C48.0312 25.8417 47.3593 25.3864 46.5761 25.2286C45.7933 25.0704 44.9973 25.2295 44.3357 25.6761L41.0678 27.8798C40.7102 28.1212 40.2545 28.1777 39.8487 28.031L37.5131 27.1872C36.5726 26.8478 35.5335 27.0031 34.7339 27.6025C34.3791 27.8683 34.3074 28.3709 34.5732 28.7252C34.8389 29.0799 35.3411 29.1516 35.6959 28.8859C36.0621 28.6115 36.538 28.5406 36.9685 28.6959L39.3036 29.5397C40.189 29.8594 41.1835 29.7362 41.9647 29.2097L45.2326 27.006C45.5358 26.8012 45.9004 26.7287 46.2588 26.8008C46.6177 26.8733 46.9258 27.0818 47.1261 27.3883L47.709 28.2807L44.5573 29.2258C44.133 29.3531 43.8924 29.8001 44.0197 30.2244C44.147 30.6488 44.594 30.8894 45.0179 30.7621L47.2146 30.1033L46.6082 31.1143C46.3804 31.4942 46.5036 31.9865 46.8834 32.2143C47.0124 32.2922 47.1549 32.3289 47.295 32.3289C47.5677 32.3289 47.8335 32.19 47.9838 31.9391L48.9965 30.2508L50.4306 32.445C50.305 32.5068 50.1814 32.5744 50.0603 32.649L43.6246 36.6173L41.7801 33.9331C40.697 32.3573 38.6189 31.8666 36.9454 32.7915L35.0268 33.852C34.5312 34.1255 33.9371 34.1869 33.3965 34.0197L32.5767 33.7663L34.0932 31.3051C34.3256 30.9281 34.2082 30.4341 33.8312 30.2018C33.4542 29.969 32.9598 30.0864 32.7279 30.4638L30.9942 33.2773L29.2387 32.7347C27.515 32.202 25.6701 32.9823 24.8523 34.5911L21.7212 40.7479H17.9964C16.3443 40.7479 15 42.0922 15 43.7443V47.0295C15 48.6819 16.3443 50.0258 17.9964 50.0258H20.0168V62.9681C20.0168 63.411 20.376 63.7702 20.8189 63.7702H63.1809C63.6238 63.7702 63.983 63.411 63.983 62.9681V50.0258H66.0034C67.6559 50.0258 68.9998 48.6819 68.9998 47.0295V43.7443C69.0002 42.0922 67.6559 40.7479 66.0038 40.7479ZM47.2657 36.2564V37.9369C47.2657 38.3797 47.625 38.739 48.0679 38.739C48.5108 38.739 48.87 38.3797 48.87 37.9369V35.9968L52.1585 37.2896C52.5705 37.4519 53.0361 37.2488 53.1984 36.8368C53.3603 36.4244 53.1576 35.9589 52.7452 35.797L49.8543 34.6603L50.902 34.0143C51.9488 33.3691 53.2775 33.4746 54.209 34.2772L61.7191 40.7479H46.4636L44.5343 37.9406L47.2657 36.2564ZM26.2819 35.3178C26.745 34.4073 27.7894 33.9657 28.7654 34.2673L32.9228 35.5523C33.8777 35.8477 34.9275 35.7393 35.8026 35.256L37.7212 34.1956C38.6688 33.6719 39.845 33.95 40.458 34.842L44.5174 40.7479H41.0019L39.8141 37.9064C39.6435 37.4977 39.1735 37.3049 38.7652 37.4754C38.3565 37.6464 38.1637 38.1161 38.3342 38.5248L39.2633 40.7479H31.7548L31.6831 39.3216L33.7772 38.5499C34.1929 38.3966 34.4059 37.9356 34.2527 37.5203C34.0994 37.1046 33.6384 36.8916 33.2231 37.0449L30.9172 37.8944L28.1709 36.3968C27.782 36.1847 27.295 36.328 27.0828 36.7165C26.8706 37.1055 27.014 37.5928 27.4029 37.805L30.0743 39.2618L30.1484 40.7479H23.5208L26.2819 35.3178ZM21.6211 62.1663V59.1934H55.239C55.6818 59.1934 56.0411 58.8342 56.0411 58.3913C56.0411 57.9484 55.6818 57.5891 55.239 57.5891H21.6211V54.603H62.3791V57.5891H58.4471C58.0042 57.5891 57.645 57.9484 57.645 58.3913C57.645 58.8342 58.0042 59.1934 58.4471 59.1934H62.3791V62.1663H21.6211ZM62.3791 52.9992H21.6211V50.0258H62.3791V52.9992ZM67.3963 47.0295C67.3963 47.7974 66.7714 48.422 66.0038 48.422H17.9964C17.2284 48.422 16.6039 47.7974 16.6039 47.0295V43.7443C16.6039 42.9763 17.2289 42.3517 17.9964 42.3517H66.0038C66.7714 42.3517 67.3963 42.9767 67.3963 43.7443V47.0295Z" fill="white"/>
<path d="M31.22 21.1788C30.5773 21.7601 29.7776 22.4831 29.7776 23.9049C29.7776 24.3478 30.1364 24.7071 30.5793 24.7071C31.0222 24.7071 31.3815 24.3478 31.3815 23.9049C31.3815 23.2272 31.695 22.912 32.2957 22.3686C32.9388 21.7873 33.7385 21.0642 33.7385 19.6425C33.7385 18.2207 32.9388 17.4977 32.2957 16.9163C31.695 16.3729 31.3815 16.0582 31.3815 15.38C31.3815 14.7023 31.695 14.3871 32.2957 13.8441C32.9388 13.2628 33.7389 12.5398 33.7389 11.118C33.7389 10.6751 33.3796 10.3163 32.9367 10.3163C32.4938 10.3163 32.1346 10.6751 32.1346 11.118C32.1346 11.7961 31.8211 12.1109 31.2204 12.6543C30.5777 13.2352 29.7776 13.9583 29.7776 15.38C29.7776 16.8018 30.5773 17.5249 31.22 18.1062C31.8211 18.6496 32.1346 18.9648 32.1346 19.6425C32.1346 20.3206 31.8211 20.6354 31.22 21.1788Z" fill="white"/>
<path d="M41.4621 21.1788C40.8194 21.7601 40.0193 22.4831 40.0193 23.9049C40.0193 24.3478 40.3785 24.7071 40.8214 24.7071C41.2643 24.7071 41.6236 24.3478 41.6236 23.9049C41.6236 23.2272 41.9371 22.912 42.5378 22.3686C43.1805 21.7873 43.9806 21.0642 43.9806 19.6425C43.9806 18.2207 43.1809 17.4977 42.5378 16.9163C41.9371 16.3729 41.6236 16.0582 41.6236 15.38C41.6236 14.7023 41.9371 14.3871 42.5378 13.8441C43.1809 13.2628 43.9806 12.5398 43.9806 11.118C43.9806 10.6751 43.6217 10.3163 43.1788 10.3163C42.7359 10.3163 42.3767 10.6751 42.3767 11.118C42.3767 11.7957 42.0632 12.1109 41.4621 12.6543C40.8194 13.2352 40.0193 13.9583 40.0193 15.38C40.0193 16.8018 40.8194 17.5249 41.4621 18.1062C42.0632 18.6496 42.3767 18.9648 42.3767 19.6425C42.3767 20.3206 42.0632 20.6354 41.4621 21.1788Z" fill="white"/>
<path d="M51.7045 21.1788C51.0618 21.7601 50.2617 22.4831 50.2617 23.9049C50.2617 24.3478 50.6206 24.7071 51.0634 24.7071C51.5063 24.7071 51.8656 24.3478 51.8656 23.9049C51.8656 23.2272 52.1791 22.912 52.7802 22.3686C53.4229 21.7873 54.223 21.0642 54.223 19.6425C54.223 18.2207 53.4229 17.4977 52.7802 16.9163C52.1791 16.3729 51.8656 16.0582 51.8656 15.38C51.8656 14.7023 52.1791 14.3871 52.7802 13.8441C53.4229 13.2628 54.223 12.5398 54.223 11.118C54.223 10.6751 53.8637 10.3163 53.4208 10.3163C52.978 10.3163 52.6187 10.6751 52.6187 11.118C52.6187 11.7957 52.3052 12.1109 51.7045 12.6543C51.0614 13.2352 50.2617 13.9583 50.2617 15.38C50.2617 16.8018 51.0614 17.5249 51.7045 18.1062C52.3052 18.6496 52.6187 18.9648 52.6187 19.6425C52.6187 20.3206 52.3052 20.6354 51.7045 21.1788Z" fill="white"/>
</svg>
