<svg width="320" height="320" viewBox="0 0 320 320" fill="none" xmlns="http://www.w3.org/2000/svg">
<ellipse cx="159.932" cy="161" rx="159.5" ry="158" fill="white"/>
<path fill-rule="evenodd" clip-rule="evenodd" d="M0 159.715C0 71.507 71.507 0 159.715 0C247.924 0 319.431 71.507 319.431 159.715C319.431 247.924 247.924 319.431 159.715 319.431C71.507 319.431 0 247.924 0 159.715ZM159.715 4.478C73.9802 4.478 4.478 73.9802 4.478 159.715C4.478 245.451 73.9802 314.953 159.715 314.953C245.451 314.953 314.953 245.451 314.953 159.715C314.953 73.9802 245.451 4.478 159.715 4.478Z" fill="black"/>
<path fill-rule="evenodd" clip-rule="evenodd" d="M17.1113 158.414C17.1113 78.9365 81.5406 14.5072 161.018 14.5072C240.496 14.5072 304.925 78.9365 304.925 158.414C304.925 237.892 240.496 302.321 161.018 302.321C81.5406 302.321 17.1113 237.892 17.1113 158.414ZM161.018 15.9999C82.365 15.9999 18.604 79.7608 18.604 158.414C18.604 237.067 82.365 300.828 161.018 300.828C239.671 300.828 303.432 237.067 303.432 158.414C303.432 79.7608 239.671 15.9999 161.018 15.9999Z" fill="black"/>
<path d="M30.8711 171.841H82.9294V174.443H30.8711V171.841Z" fill="black"/>
<path d="M241.709 171.841H293.767V174.443H241.709V171.841Z" fill="black"/>
<path d="M88.2703 210.37L85.5103 220H82.1203V199H85.0603V212.29L86.2603 207.67L88.9603 199H92.5903V220H89.6203V205.21L88.2703 210.37ZM106.541 199C109.821 199 111.461 200.73 111.461 204.19V206.92C111.461 210.38 109.821 212.11 106.541 212.11H104.981V220H101.681V199H106.541ZM106.541 202H104.981V209.11H106.541C107.081 209.11 107.481 208.96 107.741 208.66C108.021 208.36 108.161 207.85 108.161 207.13V203.98C108.161 203.26 108.021 202.75 107.741 202.45C107.481 202.15 107.081 202 106.541 202ZM117.34 202V207.85H121.87V210.85H117.34V217H123.04V220H114.04V199H123.04V202H117.34ZM132.585 212.17H135.705V214.96C135.705 216.66 135.285 217.97 134.445 218.89C133.605 219.79 132.385 220.24 130.785 220.24C129.185 220.24 127.965 219.79 127.125 218.89C126.285 217.97 125.865 216.66 125.865 214.96V204.04C125.865 202.34 126.285 201.04 127.125 200.14C127.965 199.22 129.185 198.76 130.785 198.76C132.385 198.76 133.605 199.22 134.445 200.14C135.285 201.04 135.705 202.34 135.705 204.04V206.08H132.585V203.83C132.585 202.45 132.015 201.76 130.875 201.76C129.735 201.76 129.165 202.45 129.165 203.83V215.17C129.165 216.53 129.735 217.21 130.875 217.21C132.015 217.21 132.585 216.53 132.585 215.17V212.17ZM137.797 202V199H147.997V202H144.547V220H141.247V202H137.797ZM157.82 199L161.18 220H157.85L157.28 216.19H153.23L152.66 220H149.63L152.99 199H157.82ZM155.24 202.72L153.65 213.34H156.83L155.24 202.72ZM168.747 199C170.447 199 171.687 199.4 172.467 200.2C173.247 200.98 173.637 202.19 173.637 203.83V204.58C173.637 206.74 172.927 208.15 171.507 208.81C173.147 209.45 173.967 210.95 173.967 213.31V215.02C173.967 216.64 173.537 217.88 172.677 218.74C171.837 219.58 170.597 220 168.957 220H163.767V199H168.747ZM168.537 210.55H167.067V217H168.957C169.537 217 169.967 216.85 170.247 216.55C170.527 216.23 170.667 215.69 170.667 214.93V213.1C170.667 212.14 170.497 211.48 170.157 211.12C169.837 210.74 169.297 210.55 168.537 210.55ZM168.657 202H167.067V207.55H168.357C169.017 207.55 169.507 207.38 169.827 207.04C170.167 206.7 170.337 206.13 170.337 205.33V204.16C170.337 202.72 169.777 202 168.657 202ZM181.865 199C185.145 199 186.785 200.73 186.785 204.19V206.92C186.785 210.38 185.145 212.11 181.865 212.11H180.305V220H177.005V199H181.865ZM181.865 202H180.305V209.11H181.865C182.405 209.11 182.805 208.96 183.065 208.66C183.345 208.36 183.485 207.85 183.485 207.13V203.98C183.485 203.26 183.345 202.75 183.065 202.45C182.805 202.15 182.405 202 181.865 202ZM196.683 199L200.043 220H196.713L196.143 216.19H192.093L191.523 220H188.493L191.853 199H196.683ZM194.103 202.72L192.513 213.34H195.693L194.103 202.72ZM202.63 220V199H205.93V217H209.68V199H213.04V217.06H214.48V222.82H211.27V220H202.63ZM223.482 210.37L220.722 220H217.332V199H220.272V212.29L221.472 207.67L224.172 199H227.802V220H224.832V205.21L223.482 210.37ZM237.335 210.37L234.575 220H231.185V199H234.125V212.29L235.325 207.67L238.025 199H241.655V220H238.685V205.21L237.335 210.37ZM73.9782 233.83V245.17C73.9782 246.55 74.5482 247.24 75.6882 247.24C76.8282 247.24 77.3982 246.55 77.3982 245.17V233.83C77.3982 232.45 76.8282 231.76 75.6882 231.76C74.5482 231.76 73.9782 232.45 73.9782 233.83ZM70.6782 244.96V234.04C70.6782 232.36 71.1082 231.06 71.9682 230.14C72.8282 229.22 74.0682 228.76 75.6882 228.76C77.3082 228.76 78.5482 229.22 79.4082 230.14C80.2682 231.06 80.6982 232.36 80.6982 234.04V244.96C80.6982 246.64 80.2682 247.94 79.4082 248.86C78.5482 249.78 77.3082 250.24 75.6882 250.24C74.0682 250.24 72.8282 249.78 71.9682 248.86C71.1082 247.94 70.6782 246.64 70.6782 244.96ZM89.1428 250H83.9228V229H93.1628V232H87.2228V237.37H89.1428C90.7828 237.37 92.0228 237.82 92.8628 238.72C93.7028 239.6 94.1228 240.88 94.1228 242.56V244.81C94.1228 246.49 93.7028 247.78 92.8628 248.68C92.0228 249.56 90.7828 250 89.1428 250ZM87.2228 247H89.1428C90.2628 247 90.8228 246.34 90.8228 245.02V242.35C90.8228 241.03 90.2628 240.37 89.1428 240.37H87.2228V247ZM108.254 229L104.714 244.66C104.294 246.7 103.624 248.14 102.704 248.98C101.784 249.82 100.234 250.17 98.0539 250.03V247.09C98.9539 247.15 99.6339 247.06 100.094 246.82C100.554 246.58 100.844 246.1 100.964 245.38L100.994 245.2L96.4339 229H99.7039L101.504 236.17L102.524 241.09L103.304 236.2L104.804 229H108.254ZM115.67 229C117.37 229 118.61 229.4 119.39 230.2C120.17 230.98 120.56 232.19 120.56 233.83V234.58C120.56 236.74 119.85 238.15 118.43 238.81C120.07 239.45 120.89 240.95 120.89 243.31V245.02C120.89 246.64 120.46 247.88 119.6 248.74C118.76 249.58 117.52 250 115.88 250H110.69V229H115.67ZM115.46 240.55H113.99V247H115.88C116.46 247 116.89 246.85 117.17 246.55C117.45 246.23 117.59 245.69 117.59 244.93V243.1C117.59 242.14 117.42 241.48 117.08 241.12C116.76 240.74 116.22 240.55 115.46 240.55ZM115.58 232H113.99V237.55H115.28C115.94 237.55 116.43 237.38 116.75 237.04C117.09 236.7 117.26 236.13 117.26 235.33V234.16C117.26 232.72 116.7 232 115.58 232ZM130.078 240.37L127.318 250H123.928V229H126.868V242.29L128.068 237.67L130.768 229H134.398V250H131.428V235.21L130.078 240.37ZM146.788 241V250H143.488V229H146.788V238H150.538V229H153.898V250H150.538V241H146.788ZM164.661 229L168.021 250H164.691L164.121 246.19H160.071L159.501 250H156.471L159.831 229H164.661ZM162.081 232.72L160.491 243.34H163.671L162.081 232.72ZM187.176 229L183.636 244.66C183.216 246.7 182.546 248.14 181.626 248.98C180.706 249.82 179.156 250.17 176.976 250.03V247.09C177.876 247.15 178.556 247.06 179.016 246.82C179.476 246.58 179.766 246.1 179.886 245.38L179.916 245.2L175.356 229H178.626L180.426 236.17L181.446 241.09L182.226 236.2L183.726 229H187.176ZM196.062 242.17H199.182V244.96C199.182 246.66 198.762 247.97 197.922 248.89C197.082 249.79 195.862 250.24 194.262 250.24C192.662 250.24 191.442 249.79 190.602 248.89C189.762 247.97 189.342 246.66 189.342 244.96V234.04C189.342 232.34 189.762 231.04 190.602 230.14C191.442 229.22 192.662 228.76 194.262 228.76C195.862 228.76 197.082 229.22 197.922 230.14C198.762 231.04 199.182 232.34 199.182 234.04V236.08H196.062V233.83C196.062 232.45 195.492 231.76 194.352 231.76C193.212 231.76 192.642 232.45 192.642 233.83V245.17C192.642 246.53 193.212 247.21 194.352 247.21C195.492 247.21 196.062 246.53 196.062 245.17V242.17ZM209.555 229L212.915 250H209.585L209.015 246.19H204.965L204.395 250H201.365L204.725 229H209.555ZM206.975 232.72L205.385 243.34H208.565L206.975 232.72ZM222.221 229H225.521V250H222.221V241.54C221.501 242.32 220.561 242.71 219.401 242.71C218.081 242.71 217.061 242.28 216.341 241.42C215.641 240.54 215.291 239.36 215.291 237.88V229H218.591V237.61C218.591 238.29 218.771 238.81 219.131 239.17C219.491 239.51 219.951 239.68 220.511 239.68C221.051 239.68 221.471 239.5 221.771 239.14C222.071 238.76 222.221 238.22 222.221 237.52V229ZM236.323 229L239.683 250H236.353L235.783 246.19H231.733L231.163 250H228.133L231.493 229H236.323ZM233.743 232.72L232.153 243.34H235.333L233.743 232.72ZM250.219 229H253.279L249.829 239.2L253.519 250H250.039L247.339 241.69L244.609 250H241.519L245.209 239.2L241.759 229H245.179L247.669 236.74L250.219 229Z" fill="black"/>
<path d="M70.3715 137.74L71.3817 132.851L75.7533 133.755C78.417 134.305 80.3337 135.387 81.5033 137.001C82.6416 138.609 82.9517 140.666 82.4337 143.173C81.9157 145.68 80.8156 147.446 79.1335 148.471C77.4199 149.489 75.2313 149.723 72.5676 149.173L55.457 145.638C52.7933 145.087 50.8923 144.008 49.754 142.401C48.5844 140.787 48.2586 138.726 48.7766 136.219C49.2946 133.712 50.4104 131.949 52.1239 130.931C53.806 129.906 55.979 129.669 58.6427 130.219L61.8392 130.88L60.8291 135.768L57.3036 135.04C55.1413 134.593 53.8755 135.263 53.5065 137.049C53.1374 138.835 54.034 139.952 56.1963 140.399L73.965 144.07C76.096 144.51 77.346 143.837 77.7151 142.051C78.0842 140.265 77.2032 139.152 75.0723 138.711L70.3715 137.74Z" fill="black"/>
<path d="M57.3095 123.709L52.9244 121.757L59.5611 106.848L63.9463 108.8L61.7015 113.842L88.0126 125.554L85.8654 130.378L59.5543 118.666L57.3095 123.709Z" fill="black"/>
<path d="M74.2071 85.3073L90.996 104.75C93.2221 107.23 94.4385 109.461 94.645 111.443C94.8514 113.426 93.8284 115.754 91.5759 118.426L87.7922 115.631C88.725 114.53 89.2555 113.569 89.384 112.749C89.5124 111.929 89.1703 111.099 88.3578 110.261L88.1546 110.051L62.9707 100.519L66.0792 96.3109L77.018 100.81L84.3196 104.175L78.7677 98.5223L70.9274 89.7473L74.2071 85.3073Z" fill="black"/>
<path d="M120.394 95.0704L116.35 98.3896L113.488 94.9018L104.768 102.058L107.63 105.546L103.66 108.804L97.8137 101.68L99.4092 100.37C99.3938 99.1412 98.8041 97.7416 97.6399 96.1718L83.007 76.4503L94.4351 67.0713L112.767 89.408L114.548 87.9464L120.394 95.0704ZM89.8738 77.0242L101.586 92.8089C102.847 94.5474 103.408 96.0123 103.268 97.2036L108.611 92.8186L93.3245 74.1923L89.8738 77.0242Z" fill="black"/>
<path d="M122.314 72.4135L124.782 88.2508L119.86 90.5301L105.741 60.0407L110.009 58.064L118.945 77.3594L117.581 69.8449L115.671 55.4418L120.942 53.0012L135.061 83.4905L130.749 85.4874L120.805 64.0142L122.314 72.4135Z" fill="black"/>
<path d="M140.942 82.26L135.669 83.3076C135.871 82.3539 135.794 80.9826 135.439 79.1935L134.429 74.1089C133.693 70.4053 134.374 67.8394 136.472 66.4112C134 65.793 132.427 63.7891 131.754 60.3993L131.239 57.8099C130.728 55.2362 130.963 53.2157 131.944 51.7485C132.918 50.2498 134.74 49.2355 137.407 48.7055L145.223 47.1528L151.77 80.1087L146.591 81.1376L143.926 67.7198L142.137 68.0753C140.944 68.3122 140.146 68.8133 139.744 69.5784C139.335 70.3121 139.28 71.4323 139.579 72.9388L140.608 78.1176C140.957 79.8753 141.068 81.2561 140.942 82.26ZM140.979 52.8897L138.484 53.3854C136.726 53.7346 136.072 55.0391 136.521 57.2989L137.166 60.5475C137.416 61.8029 137.845 62.6475 138.453 63.0814C139.092 63.5089 139.93 63.6198 140.966 63.414L142.99 63.0119L140.979 52.8897Z" fill="black"/>
<path d="M185.913 49.27L191.088 50.3186L184.415 83.2493L179.24 82.2007L181.928 68.9343C180.551 69.9286 178.953 70.2415 177.134 69.8729C175.064 69.4534 173.601 68.455 172.746 66.8776C171.928 65.2753 171.754 63.3136 172.224 60.9928L175.046 47.0678L180.221 48.1165L177.485 61.6181C177.268 62.6844 177.386 63.557 177.836 64.2359C178.292 64.8835 178.959 65.2962 179.838 65.4742C180.684 65.6458 181.4 65.497 181.985 65.0278C182.576 64.5272 182.983 63.7281 183.205 62.6304L185.913 49.27Z" fill="black"/>
<path d="M203.03 74.6579L192.459 86.7054L187.554 84.3896L201.9 54.0061L206.153 56.0145L197.075 75.2429L201.967 69.3783L211.796 58.6787L217.048 61.1585L202.702 91.542L198.405 89.5131L208.509 68.1144L203.03 74.6579Z" fill="black"/>
<path d="M220.55 89.699L224.466 92.7951L221.697 96.2968C220.01 98.4304 218.183 99.6578 216.216 99.9789C214.269 100.275 212.291 99.6291 210.283 98.0413C208.275 96.4535 207.19 94.6781 207.029 92.7149C206.887 90.7267 207.66 88.6657 209.347 86.5321L220.184 72.8265C221.871 70.6929 223.688 69.4781 225.635 69.182C227.602 68.8609 229.59 69.4943 231.598 71.082C233.606 72.6698 234.681 74.4578 234.822 76.446C234.984 78.4092 234.221 80.4576 232.534 82.5912L230.509 85.1516L226.593 82.0555L228.826 79.2315C230.196 77.4995 230.165 76.0679 228.734 74.9366C227.303 73.8053 225.903 74.1057 224.534 75.8377L213.281 90.0704C211.931 91.7773 211.972 93.1964 213.402 94.3277C214.833 95.459 216.223 95.1712 217.573 93.4642L220.55 89.699Z" fill="black"/>
<path d="M238.761 84.1824L242.46 81.1238L252.859 93.7014L249.16 96.76L245.643 92.5058L223.447 110.857L220.082 106.788L242.278 88.4366L238.761 84.1824Z" fill="black"/>
<path d="M233.61 127.713L243.255 117.097L239.777 117.023L230.562 121.67L228.185 116.956L258.185 101.825L260.563 106.54L247.491 113.132L263.676 112.711L266.053 117.426L249.374 117.612L236.053 132.556L233.61 127.713Z" fill="black"/>
<path d="M253.707 140.496L237.701 139.655L236.482 134.37L269.223 126.82L270.28 131.404L249.56 136.181L257.194 136.391L271.682 137.484L272.987 143.143L240.246 150.693L239.178 146.063L262.237 140.746L253.707 140.496Z" fill="black"/>
<path d="M196.971 166.539C196.001 163.495 193.15 161.646 190.929 160.63C186.367 158.545 181.363 154.109 176.888 149.043L177.556 148.633C178.13 148.28 178.31 147.528 177.957 146.953C177.604 146.378 176.852 146.199 176.278 146.552L175.277 147.166C174.692 146.465 174.119 145.757 173.561 145.044L174.554 144.399C175.12 144.031 175.28 143.275 174.912 142.709C174.545 142.144 173.788 141.983 173.223 142.351L172.074 143.098C171.43 142.232 170.811 141.366 170.219 140.508L171.072 139.979C171.645 139.623 171.821 138.87 171.465 138.297C171.109 137.724 170.356 137.548 169.784 137.904L168.861 138.477C167.252 135.991 165.918 133.628 164.972 131.583C164.835 131.217 163.67 127.853 165.993 125.53C166.47 125.054 166.47 124.28 165.992 123.804C165.516 123.327 164.742 123.327 164.266 123.804C161.762 126.307 161.973 129.498 162.346 131.241C160.887 131.655 158.141 132.343 155.057 132.651C147.741 133.384 144.145 131.479 142.418 129.751C136.142 123.476 135.735 117.222 135.732 117.164C135.708 116.652 135.367 116.21 134.878 116.056C134.389 115.903 133.856 116.071 133.544 116.477L115.253 140.29C115.045 140.561 114.96 140.906 115.018 141.242C115.076 141.578 115.272 141.874 115.558 142.059C115.9 142.28 149.85 164.223 159.417 170.032C167.203 174.76 177.786 177 185.889 177C188.335 177 190.557 176.796 192.406 176.394C192.71 176.328 192.977 176.148 193.153 175.892L196.949 170.37C196.952 170.367 196.953 170.362 196.956 170.358C196.985 170.314 197.012 170.268 197.036 170.221C197.04 170.212 197.044 170.204 197.048 170.195C197.069 170.15 197.087 170.104 197.103 170.057C197.104 170.052 197.107 170.048 197.108 170.043C197.109 170.04 197.111 170.032 197.113 170.028C197.114 170.023 197.116 170.018 197.117 170.012C197.193 169.756 197.55 168.355 196.971 166.539ZM144.206 152.514C153.551 158.488 159.945 162.524 163.214 164.51C171 169.238 181.583 171.478 189.685 171.478C190.974 171.478 192.199 171.42 193.341 171.307L191.419 174.103C187.615 174.832 182.383 174.704 176.959 173.739C170.822 172.648 165.042 170.59 160.685 167.945C152.13 162.751 123.96 144.578 117.996 140.727L120.597 137.341C129.303 142.96 136.029 147.278 140.181 149.939C140.385 150.069 140.613 150.132 140.839 150.132C141.241 150.132 141.635 149.933 141.868 149.569C142.232 149.001 142.067 148.246 141.499 147.882C139.66 146.704 137.314 145.199 134.517 143.401C135.795 141.048 136.466 138.411 136.466 135.705C136.466 131.95 135.149 128.293 132.758 125.407C132.328 124.888 131.558 124.816 131.039 125.246C130.52 125.676 130.447 126.446 130.878 126.965C132.907 129.414 134.024 132.518 134.024 135.705C134.024 137.941 133.483 140.12 132.455 142.076C129.428 140.129 125.956 137.893 122.09 135.398L133.817 120.13C134.564 122.848 136.364 127.151 140.691 131.478C146.902 137.689 159.48 134.629 163.202 133.54C164.15 135.455 165.378 137.574 166.795 139.761L162.646 142.338C162.073 142.694 161.897 143.446 162.253 144.019C162.484 144.392 162.883 144.596 163.292 144.596C163.512 144.596 163.734 144.537 163.935 144.412L168.152 141.792C168.755 142.669 169.384 143.55 170.032 144.426L166.734 146.569C166.169 146.936 166.009 147.693 166.376 148.258C166.61 148.618 167.002 148.814 167.401 148.814C167.629 148.814 167.86 148.75 168.065 148.616L171.512 146.376C172.059 147.078 172.616 147.772 173.179 148.454L170.113 150.337C169.539 150.69 169.359 151.442 169.712 152.016C169.942 152.392 170.343 152.599 170.753 152.599C170.971 152.599 171.192 152.54 171.391 152.418L174.78 150.337C181.459 157.993 186.669 161.368 189.914 162.851C194.336 164.873 194.875 167.446 194.857 168.646C191.086 169.301 186.012 169.152 180.756 168.217C174.619 167.126 168.839 165.068 164.482 162.423C161.229 160.447 154.851 156.421 145.522 150.457C144.954 150.094 144.199 150.26 143.835 150.828C143.472 151.396 143.638 152.151 144.206 152.514Z" fill="black"/>
</svg>
