<svg width="25" height="16" viewBox="0 0 25 16" fill="none" xmlns="http://www.w3.org/2000/svg">
<path fill-rule="evenodd" clip-rule="evenodd" d="M13.5526 15.0098C13.5526 15.0098 13.9981 14.9584 14.2263 14.7037C14.4352 14.4704 14.4279 14.03 14.4279 14.03C14.4279 14.03 14.4002 11.9738 15.3189 11.6702C16.2244 11.3716 17.387 13.6587 18.6209 14.5381C19.5529 15.203 20.2604 15.0575 20.2604 15.0575L23.5576 15.0098C23.5576 15.0098 25.2816 14.8994 24.4642 13.4905C24.3966 13.3751 23.9874 12.448 22.0134 10.5436C19.9453 8.55005 20.223 8.87248 22.7125 5.42367C24.2288 3.32352 24.8349 2.04135 24.6453 1.4931C24.4655 0.968691 23.3499 1.10795 23.3499 1.10795L19.6387 1.13178C19.6387 1.13178 19.3634 1.09289 19.1594 1.2196C18.9602 1.34381 18.831 1.63361 18.831 1.63361C18.831 1.63361 18.2442 3.25828 17.4607 4.64081C15.8079 7.55643 15.1475 7.71075 14.877 7.53009C14.248 7.1073 14.405 5.83391 14.405 4.92937C14.405 2.10282 14.8179 0.924781 13.6021 0.61992C13.1989 0.5183 12.9019 0.451808 11.8697 0.440517C10.5452 0.426717 9.42486 0.445535 8.78982 0.76796C8.36727 0.982491 8.04129 1.46174 8.2405 1.48934C8.48558 1.52321 9.04094 1.6449 9.33552 2.06142C9.71583 2.59963 9.70254 3.80653 9.70254 3.80653C9.70254 3.80653 9.92107 7.13364 9.19185 7.5464C8.69203 7.82993 8.00628 7.25157 6.53216 4.60569C5.7776 3.25075 5.20775 1.7528 5.20775 1.7528C5.20775 1.7528 5.09789 1.47303 4.9011 1.32248C4.66326 1.14057 4.33125 1.08411 4.33125 1.08411L0.804714 1.10795C0.804714 1.10795 0.274708 1.123 0.080332 1.36263C-0.0923125 1.57465 0.0670517 2.015 0.0670517 2.015C0.0670517 2.015 2.82816 8.7282 5.95507 12.1118C8.82242 15.2131 12.0773 15.0098 12.0773 15.0098H13.5526Z" fill="white"/>
</svg>
