<svg width="25" height="15" viewBox="0 0 25 15" fill="none" xmlns="http://www.w3.org/2000/svg">
<path fill-rule="evenodd" clip-rule="evenodd" d="M13.5526 14.5725C13.5526 14.5725 13.9981 14.521 14.2263 14.2663C14.4352 14.033 14.4279 13.5926 14.4279 13.5926C14.4279 13.5926 14.4002 11.5364 15.3189 11.2328C16.2244 10.9342 17.387 13.2213 18.6209 14.1007C19.5529 14.7657 20.2604 14.6201 20.2604 14.6201L23.5576 14.5725C23.5576 14.5725 25.2816 14.4621 24.4642 13.0532C24.3966 12.9377 23.9874 12.0106 22.0134 10.1062C19.9453 8.11267 20.223 8.4351 22.7125 4.98629C24.2288 2.88614 24.8349 1.60397 24.6453 1.05572C24.4655 0.531313 23.3499 0.67057 23.3499 0.67057L19.6387 0.694407C19.6387 0.694407 19.3634 0.655515 19.1594 0.782227C18.9602 0.906429 18.831 1.19623 18.831 1.19623C18.831 1.19623 18.2442 2.8209 17.4607 4.20344C15.8079 7.11906 15.1475 7.27337 14.877 7.09271C14.248 6.66992 14.405 5.39653 14.405 4.49199C14.405 1.66544 14.8179 0.487403 13.6021 0.182542C13.1989 0.0809223 12.9019 0.0144301 11.8697 0.00313898C10.5452 -0.0106613 9.42486 0.00815726 8.78982 0.330582C8.36727 0.545113 8.04129 1.02436 8.2405 1.05196C8.48558 1.08583 9.04094 1.20753 9.33552 1.62404C9.71583 2.16225 9.70254 3.36915 9.70254 3.36915C9.70254 3.36915 9.92107 6.69627 9.19185 7.10902C8.69203 7.39255 8.00628 6.8142 6.53216 4.16831C5.7776 2.81337 5.20775 1.31542 5.20775 1.31542C5.20775 1.31542 5.09789 1.03565 4.9011 0.885101C4.66326 0.703189 4.33125 0.646733 4.33125 0.646733L0.804714 0.67057C0.804714 0.67057 0.274708 0.685625 0.080332 0.925247C-0.0923125 1.13727 0.0670517 1.57762 0.0670517 1.57762C0.0670517 1.57762 2.82816 8.29082 5.95507 11.6744C8.82242 14.7757 12.0773 14.5725 12.0773 14.5725H13.5526Z" fill="black"/>
</svg>
