<svg width="26" height="19" viewBox="0 0 26 19" fill="none" xmlns="http://www.w3.org/2000/svg">
<path fill-rule="evenodd" clip-rule="evenodd" d="M23.1728 0.556806C24.2864 0.856732 25.1646 1.73469 25.4643 2.8485C26.0213 4.88291 25.9999 9.12353 25.9999 9.12353C25.9999 9.12353 25.9999 13.3425 25.4645 15.3771C25.1646 16.4907 24.2866 17.3689 23.1728 17.6686C21.1382 18.2042 12.9999 18.2042 12.9999 18.2042C12.9999 18.2042 4.88291 18.2042 2.82708 17.6474C1.71326 17.3475 0.835308 16.4693 0.535383 15.3557C0 13.3425 0 9.1021 0 9.1021C0 9.1021 0 4.88291 0.535383 2.8485C0.83511 1.73489 1.73469 0.835308 2.82688 0.535581C4.86149 0 12.9997 0 12.9997 0C12.9997 0 21.1382 0 23.1728 0.556806ZM17.1759 9.10247L10.4083 13.0003V5.20461L17.1759 9.10247Z" fill="black"/>
</svg>
