<svg width="22" height="16" viewBox="0 0 22 16" fill="none" xmlns="http://www.w3.org/2000/svg">
<path fill-rule="evenodd" clip-rule="evenodd" d="M19.6078 0.471144C20.5501 0.724927 21.2931 1.46781 21.5467 2.41027C22.018 4.1317 21.9999 7.71991 21.9999 7.71991C21.9999 7.71991 21.9999 11.2898 21.5469 13.0114C21.2931 13.9537 20.5502 14.6968 19.6078 14.9504C17.8862 15.4036 11 15.4036 11 15.4036C11 15.4036 4.1317 15.4036 2.39214 14.9324C1.44969 14.6786 0.706799 13.9356 0.453016 12.9933C0 11.2898 0 7.70178 0 7.70178C0 7.70178 0 4.1317 0.453016 2.41027C0.706632 1.46798 1.46781 0.706799 2.39197 0.453184C4.11357 0 10.9998 0 10.9998 0C10.9998 0 17.8862 0 19.6078 0.471144ZM14.5336 7.702L8.80722 11.0002V4.40381L14.5336 7.702Z" fill="white"/>
</svg>
